M48
; DRILL file {KiCad (5.1.6-0-10_14)} date Friday, October 02, 2020 at 10:38:49 PM
; FORMAT={-:-/ absolute / metric / decimal}
; #@! TF.CreationDate,2020-10-02T22:38:49+09:00
; #@! TF.GenerationSoftware,Kicad,Pcbnew,(5.1.6-0-10_14)
FMAT,2
METRIC
T1C0.400
T2C0.800
T3C2.200
%
G90
G05
T1
X129.0Y-97.0
X129.0Y-106.0
X131.0Y-106.0
X131.43Y-98.27
X133.0Y-93.0
X133.0Y-95.0
X133.0Y-97.0
X133.0Y-103.5
X133.0Y-108.0
X135.0Y-95.0
X135.0Y-97.0
X135.73Y-102.32
X136.0Y-109.0
X136.96Y-99.09
X137.1Y-105.23
X138.0Y-109.0
X139.47Y-101.5
X139.82Y-109.01
X140.56Y-97.91
X140.97Y-106.25
X141.0Y-99.0
X142.0Y-95.0
X142.15Y-102.32
X143.0Y-94.0
X143.393Y-99.977
X144.0Y-95.0
X145.49Y-99.04
X146.15Y-102.85
X147.0Y-109.0
X147.405Y-105.595
X147.85Y-98.85
X150.53Y-100.55
X151.0Y-97.0
X152.65Y-107.0
X157.0Y-101.0
X158.455Y-105.595
X158.5Y-108.55
X162.0Y-99.0
X163.0Y-107.0
X164.0Y-99.0
X166.0Y-97.0
T2
X158.0Y-95.0
X158.0Y-97.0
X137.0Y-94.7
X137.0Y-96.7
X161.5Y-95.0
X161.5Y-97.0
X154.59Y-94.47
X154.59Y-96.47
X154.59Y-98.47
X154.59Y-100.47
T3
X165.3Y-109.8
X129.7Y-109.8
X129.7Y-94.2
X165.3Y-94.2
T0
M30
