M48
; DRILL file {KiCad (5.1.8-0-10_14)} date Sunday, December 13, 2020 at 09:55:54 AM
; FORMAT={-:-/ absolute / metric / decimal}
; #@! TF.CreationDate,2020-12-13T09:55:54+09:00
; #@! TF.GenerationSoftware,Kicad,Pcbnew,(5.1.8-0-10_14)
FMAT,2
METRIC
T1C0.400
T2C1.000
T3C1.300
T4C2.200
%
G90
G05
T1
X61.2Y-106.7
X61.2Y-112.6
X61.3Y-192.2
X61.3Y-201.5
X62.1Y-218.2
X62.87Y-80.53
X63.57Y-115.2
X63.7Y-221.4
X63.9Y-85.4
X63.9Y-93.7
X64.1Y-103.0
X64.2Y-200.176
X64.352Y-116.17
X65.0Y-207.3
X65.1Y-123.0
X65.1Y-128.0
X65.1Y-172.0
X65.1Y-211.8
X65.2Y-116.7
X65.3Y-46.8
X65.3Y-187.9
X65.4Y-40.8
X65.6Y-192.7
X66.042Y-117.694
X66.5Y-109.0
X67.4Y-143.3
X67.9Y-137.7
X68.0Y-132.5
X68.3Y-109.0
X68.8Y-109.9
X69.4Y-114.3
X69.5Y-110.8
X69.9Y-57.4
X70.125Y-87.75
X70.2Y-132.6
X70.2Y-137.7
X70.223Y-111.625
X70.3Y-84.9
X70.4Y-81.2
X70.6Y-143.0
X70.7Y-155.2
X70.9Y-112.4
X70.925Y-71.625
X71.2Y-43.6
X71.3Y-198.4
X71.5Y-32.6
X71.5Y-169.4
X71.8Y-52.1
X72.3Y-172.1
X73.7Y-57.1
X74.1Y-174.3
X74.6Y-117.1
X74.675Y-93.125
X74.884Y-78.744
X75.3Y-144.7
X75.4Y-79.6
X75.7Y-165.5
X75.8Y-202.9
X75.9Y-172.4
X76.0Y-193.4
X76.6Y-132.9
X76.7Y-154.6
X77.0Y-71.625
X78.0Y-47.0
X78.1Y-181.4
X78.6Y-156.9
X79.05Y-57.35
X79.2Y-84.3
X79.4Y-102.15
X80.4Y-122.125
X80.6Y-68.2
X80.6Y-115.4
X80.625Y-94.725
X80.7Y-111.7
X80.725Y-148.825
X80.8Y-88.2
X80.9Y-129.0
X80.9Y-142.9
X81.0Y-61.2
X81.2Y-34.2
X81.36Y-40.492
X81.4Y-138.8
X81.7Y-208.7
X81.9Y-168.2
X81.9Y-174.8
X82.375Y-92.575
X82.425Y-147.175
X83.0Y-201.5
X83.1Y-181.5
X83.2Y-219.3
X83.7Y-84.2
X83.7Y-228.4
X84.1Y-155.1
X84.2Y-100.8
X84.85Y-121.7
X85.1Y-67.625
X85.25Y-94.25
X85.275Y-148.825
X85.6Y-192.6
X85.735Y-40.017
X85.8Y-165.3
X85.9Y-31.2
X85.9Y-46.0
X86.1Y-208.6
X86.2Y-127.7
X86.2Y-226.9
X86.225Y-174.225
X86.4Y-111.6
X86.5Y-139.3
X86.9Y-73.5
X87.6Y-218.7
X87.6Y-225.9
X87.975Y-201.225
X88.7Y-155.3
X89.85Y-147.15
X89.875Y-173.875
X90.1Y-181.7
X90.2Y-205.6
X90.5Y-93.4
X90.7Y-34.1
X90.775Y-40.067
X90.8Y-57.5
X90.9Y-128.0
X90.975Y-150.875
X91.097Y-120.297
X91.3Y-142.9
X91.4Y-38.4
X91.4Y-61.2
X91.4Y-88.0
X91.4Y-101.6
X91.4Y-215.7
X91.617Y-67.017
X91.665Y-44.097
X91.7Y-165.2
X91.9Y-197.9
X92.0Y-83.7
X92.1Y-139.2
X92.2Y-115.4
X92.3Y-168.3
X92.3Y-178.5
X92.4Y-92.8
X92.4Y-111.4
X92.475Y-124.35
X92.8Y-31.4
X92.8Y-65.5
X93.173Y-71.627
X93.3Y-200.3
X93.325Y-97.55
X94.2Y-219.5
X94.4Y-192.7
X95.955Y-54.077
X96.1Y-174.8
X96.3Y-190.8
X96.4Y-137.2
X96.875Y-164.025
X97.0Y-41.1
X97.0Y-148.9
X97.325Y-109.15
X97.588Y-82.387
X97.588Y-82.387
X98.0Y-122.3
X98.3Y-95.1
X98.3Y-181.8
X99.0Y-57.7
X99.6Y-138.8
X100.0Y-36.7
X100.025Y-198.275
X100.1Y-31.6
X100.2Y-165.6
X100.287Y-127.762
X100.3Y-155.1
X100.7Y-90.4
X100.7Y-117.7
X100.8Y-144.9
X100.87Y-45.742
X100.925Y-216.175
X101.0Y-100.35
X101.275Y-73.8
X101.3Y-63.3
X101.3Y-111.6
X102.9Y-85.0
X103.9Y-192.3
X104.925Y-216.175
X105.0Y-57.6
X105.025Y-198.275
X105.2Y-139.1
X105.4Y-31.5
X106.1Y-172.6
X106.2Y-111.6
X106.8Y-165.6
X107.1Y-146.9
X107.5Y-185.6
X107.8Y-209.0
X108.0Y-228.2
X108.125Y-92.15
X108.25Y-65.7
X108.35Y-120.45
X108.36Y-38.342
X108.5Y-159.4
X108.7Y-172.7
X109.225Y-132.525
X109.4Y-31.5
X109.4Y-84.7
X109.7Y-222.7
X109.8Y-44.0
X110.0Y-138.7
X110.03Y-51.002
X110.1Y-48.9
X110.1Y-119.9
X110.1Y-204.9
X110.55Y-104.375
X110.7Y-111.7
X111.011Y-183.211
X111.075Y-77.225
X111.2Y-216.7
X111.475Y-131.125
X111.475Y-131.125
X111.6Y-199.3
X112.0Y-157.1
X112.0Y-165.5
X112.03Y-48.702
X112.4Y-192.3
X112.475Y-79.675
X112.575Y-102.95
X112.7Y-209.0
X112.9Y-176.4
X113.6Y-57.0
X113.6Y-187.1
X114.0Y-119.0
X114.0Y-180.0
X114.1Y-156.5
X114.17Y-42.152
X114.17Y-45.032
X114.4Y-228.2
X114.45Y-96.4
X114.45Y-99.175
X114.5Y-161.2
X114.575Y-124.625
X114.575Y-127.025
X116.0Y-70.05
X116.0Y-74.15
X116.0Y-151.0
X116.0Y-153.9
X116.1Y-133.8
X116.6Y-32.2
X116.6Y-40.0
X116.8Y-106.3
X117.0Y-223.6
X117.2Y-43.6
X117.3Y-52.1
X117.6Y-80.3
X117.6Y-205.7
X119.0Y-179.9
X119.2Y-45.9
X119.4Y-183.7
X119.7Y-228.4
X120.0Y-188.2
X120.3Y-98.9
X120.6Y-72.1
X120.6Y-154.1
X120.6Y-161.7
X120.7Y-125.7
X121.6Y-133.6
X122.6Y-43.6
X122.7Y-104.9
X123.4Y-52.2
X123.5Y-129.3
X123.8Y-205.7
X124.0Y-75.0
X124.2Y-80.0
X124.4Y-212.9
X124.6Y-199.1
X124.7Y-194.6
X124.9Y-55.4
X124.9Y-217.6
X125.1Y-100.9
X125.1Y-173.2
X125.1Y-179.9
X125.2Y-109.0
X125.2Y-183.7
X125.3Y-60.8
X125.3Y-119.4
X125.3Y-146.6
X125.3Y-168.8
X125.3Y-188.0
X125.4Y-38.7
X125.4Y-65.7
X125.4Y-115.9
X125.4Y-142.5
X125.5Y-34.1
X125.5Y-91.1
X125.8Y-154.0
X125.9Y-125.7
X125.9Y-161.9
X126.3Y-133.3
X126.4Y-82.7
X126.6Y-72.0
X127.0Y-51.9
X127.5Y-77.7
X127.7Y-104.9
X127.8Y-40.9
X128.6Y-36.7
T2
X66.75Y-55.59
X66.75Y-58.13
X66.75Y-81.498
X66.75Y-84.038
X66.75Y-86.578
X66.75Y-89.118
X66.75Y-91.658
X66.75Y-94.198
X66.75Y-96.738
X66.75Y-99.278
X66.75Y-101.818
X66.75Y-104.358
X66.75Y-72.875
X66.75Y-75.415
X66.75Y-64.233
X66.75Y-66.773
T3
X68.528Y-41.132
X68.528Y-46.212
X68.5Y-147.8
X68.5Y-152.88
X68.5Y-157.96
X68.5Y-163.04
X68.5Y-168.12
X68.5Y-173.2
X68.5Y-178.28
X68.5Y-183.36
X68.5Y-188.44
X68.5Y-193.52
X68.528Y-207.228
X68.528Y-212.308
X121.614Y-141.95
X121.614Y-147.03
X121.0Y-194.02
X121.0Y-199.1
X121.614Y-33.692
X121.614Y-38.772
X121.614Y-88.395
X121.614Y-93.475
X121.0Y-212.32
X121.0Y-217.4
X121.614Y-115.026
X121.614Y-120.106
X121.614Y-168.62
X121.614Y-173.7
X68.528Y-122.772
X68.528Y-127.852
X121.614Y-60.722
X121.614Y-65.802
T4
X62.6Y-225.1
X62.9Y-32.9
X124.0Y-226.0
X124.0Y-47.0
T0
M30
