G04 #@! TF.GenerationSoftware,KiCad,Pcbnew,(5.1.6-0-10_14)*
G04 #@! TF.CreationDate,2020-10-02T22:37:35+09:00*
G04 #@! TF.ProjectId,rsp02_LoadSW_OCP_Circuit_v1_2,72737030-325f-44c6-9f61-6453575f4f43,v1.1*
G04 #@! TF.SameCoordinates,Original*
G04 #@! TF.FileFunction,Copper,L1,Top*
G04 #@! TF.FilePolarity,Positive*
%FSLAX46Y46*%
G04 Gerber Fmt 4.6, Leading zero omitted, Abs format (unit mm)*
G04 Created by KiCad (PCBNEW (5.1.6-0-10_14)) date 2020-10-02 22:37:35*
%MOMM*%
%LPD*%
G01*
G04 APERTURE LIST*
G04 #@! TA.AperFunction,ComponentPad*
%ADD10C,3.500000*%
G04 #@! TD*
G04 #@! TA.AperFunction,SMDPad,CuDef*
%ADD11R,0.460000X1.099999*%
G04 #@! TD*
G04 #@! TA.AperFunction,SMDPad,CuDef*
%ADD12R,1.725000X2.235000*%
G04 #@! TD*
G04 #@! TA.AperFunction,SMDPad,CuDef*
%ADD13R,0.990000X0.405000*%
G04 #@! TD*
G04 #@! TA.AperFunction,SMDPad,CuDef*
%ADD14R,1.300000X1.300000*%
G04 #@! TD*
G04 #@! TA.AperFunction,SMDPad,CuDef*
%ADD15R,2.000000X1.300000*%
G04 #@! TD*
G04 #@! TA.AperFunction,SMDPad,CuDef*
%ADD16R,0.800000X0.900000*%
G04 #@! TD*
G04 #@! TA.AperFunction,ComponentPad*
%ADD17R,1.350000X1.350000*%
G04 #@! TD*
G04 #@! TA.AperFunction,ComponentPad*
%ADD18O,1.350000X1.350000*%
G04 #@! TD*
G04 #@! TA.AperFunction,ViaPad*
%ADD19C,0.800000*%
G04 #@! TD*
G04 #@! TA.AperFunction,Conductor*
%ADD20C,0.200000*%
G04 #@! TD*
G04 #@! TA.AperFunction,Conductor*
%ADD21C,0.500000*%
G04 #@! TD*
G04 #@! TA.AperFunction,Conductor*
%ADD22C,0.400000*%
G04 #@! TD*
G04 #@! TA.AperFunction,Conductor*
%ADD23C,1.200000*%
G04 #@! TD*
G04 APERTURE END LIST*
G04 #@! TA.AperFunction,SMDPad,CuDef*
G36*
G01*
X129380000Y-103150000D02*
X129720000Y-103150000D01*
G75*
G02*
X129860000Y-103290000I0J-140000D01*
G01*
X129860000Y-103570000D01*
G75*
G02*
X129720000Y-103710000I-140000J0D01*
G01*
X129380000Y-103710000D01*
G75*
G02*
X129240000Y-103570000I0J140000D01*
G01*
X129240000Y-103290000D01*
G75*
G02*
X129380000Y-103150000I140000J0D01*
G01*
G37*
G04 #@! TD.AperFunction*
G04 #@! TA.AperFunction,SMDPad,CuDef*
G36*
G01*
X129380000Y-102190000D02*
X129720000Y-102190000D01*
G75*
G02*
X129860000Y-102330000I0J-140000D01*
G01*
X129860000Y-102610000D01*
G75*
G02*
X129720000Y-102750000I-140000J0D01*
G01*
X129380000Y-102750000D01*
G75*
G02*
X129240000Y-102610000I0J140000D01*
G01*
X129240000Y-102330000D01*
G75*
G02*
X129380000Y-102190000I140000J0D01*
G01*
G37*
G04 #@! TD.AperFunction*
D10*
X165300000Y-109800000D03*
X129700000Y-109800000D03*
X129700000Y-94200000D03*
X165300000Y-94200000D03*
D11*
X133510000Y-98720000D03*
X133510000Y-101020000D03*
D12*
X150357500Y-94775000D03*
D13*
X151235000Y-93785000D03*
X151235000Y-94445000D03*
X151235000Y-95105000D03*
X151235000Y-95765000D03*
X148365000Y-95765000D03*
X148365000Y-95105000D03*
X148365000Y-94445000D03*
X148365000Y-93785000D03*
G04 #@! TA.AperFunction,SMDPad,CuDef*
G36*
G01*
X140775000Y-93324999D02*
X140775000Y-96175001D01*
G75*
G02*
X140525001Y-96425000I-249999J0D01*
G01*
X139674999Y-96425000D01*
G75*
G02*
X139425000Y-96175001I0J249999D01*
G01*
X139425000Y-93324999D01*
G75*
G02*
X139674999Y-93075000I249999J0D01*
G01*
X140525001Y-93075000D01*
G75*
G02*
X140775000Y-93324999I0J-249999D01*
G01*
G37*
G04 #@! TD.AperFunction*
G04 #@! TA.AperFunction,SMDPad,CuDef*
G36*
G01*
X146575000Y-93324999D02*
X146575000Y-96175001D01*
G75*
G02*
X146325001Y-96425000I-249999J0D01*
G01*
X145474999Y-96425000D01*
G75*
G02*
X145225000Y-96175001I0J249999D01*
G01*
X145225000Y-93324999D01*
G75*
G02*
X145474999Y-93075000I249999J0D01*
G01*
X146325001Y-93075000D01*
G75*
G02*
X146575000Y-93324999I0J-249999D01*
G01*
G37*
G04 #@! TD.AperFunction*
D14*
X135550000Y-105250000D03*
D15*
X134400000Y-110750000D03*
D14*
X133250000Y-105250000D03*
X138650000Y-105250000D03*
D15*
X139800000Y-110750000D03*
D14*
X140950000Y-105250000D03*
D16*
X160450000Y-101500000D03*
X158550000Y-101500000D03*
X159500000Y-103500000D03*
D17*
X137000000Y-94700000D03*
D18*
X137000000Y-96700000D03*
D17*
X154590000Y-94470000D03*
D18*
X154590000Y-96470000D03*
X154590000Y-98470000D03*
X154590000Y-100470000D03*
X158000000Y-97000000D03*
D17*
X158000000Y-95000000D03*
X161500000Y-95000000D03*
D18*
X161500000Y-97000000D03*
D11*
X129490000Y-100950000D03*
X129490000Y-98650000D03*
G04 #@! TA.AperFunction,SMDPad,CuDef*
G36*
G01*
X143300000Y-105745000D02*
X143300000Y-105445000D01*
G75*
G02*
X143450000Y-105295000I150000J0D01*
G01*
X145100000Y-105295000D01*
G75*
G02*
X145250000Y-105445000I0J-150000D01*
G01*
X145250000Y-105745000D01*
G75*
G02*
X145100000Y-105895000I-150000J0D01*
G01*
X143450000Y-105895000D01*
G75*
G02*
X143300000Y-105745000I0J150000D01*
G01*
G37*
G04 #@! TD.AperFunction*
G04 #@! TA.AperFunction,SMDPad,CuDef*
G36*
G01*
X143300000Y-107015000D02*
X143300000Y-106715000D01*
G75*
G02*
X143450000Y-106565000I150000J0D01*
G01*
X145100000Y-106565000D01*
G75*
G02*
X145250000Y-106715000I0J-150000D01*
G01*
X145250000Y-107015000D01*
G75*
G02*
X145100000Y-107165000I-150000J0D01*
G01*
X143450000Y-107165000D01*
G75*
G02*
X143300000Y-107015000I0J150000D01*
G01*
G37*
G04 #@! TD.AperFunction*
G04 #@! TA.AperFunction,SMDPad,CuDef*
G36*
G01*
X143300000Y-108285000D02*
X143300000Y-107985000D01*
G75*
G02*
X143450000Y-107835000I150000J0D01*
G01*
X145100000Y-107835000D01*
G75*
G02*
X145250000Y-107985000I0J-150000D01*
G01*
X145250000Y-108285000D01*
G75*
G02*
X145100000Y-108435000I-150000J0D01*
G01*
X143450000Y-108435000D01*
G75*
G02*
X143300000Y-108285000I0J150000D01*
G01*
G37*
G04 #@! TD.AperFunction*
G04 #@! TA.AperFunction,SMDPad,CuDef*
G36*
G01*
X143300000Y-109555000D02*
X143300000Y-109255000D01*
G75*
G02*
X143450000Y-109105000I150000J0D01*
G01*
X145100000Y-109105000D01*
G75*
G02*
X145250000Y-109255000I0J-150000D01*
G01*
X145250000Y-109555000D01*
G75*
G02*
X145100000Y-109705000I-150000J0D01*
G01*
X143450000Y-109705000D01*
G75*
G02*
X143300000Y-109555000I0J150000D01*
G01*
G37*
G04 #@! TD.AperFunction*
G04 #@! TA.AperFunction,SMDPad,CuDef*
G36*
G01*
X148250000Y-109555000D02*
X148250000Y-109255000D01*
G75*
G02*
X148400000Y-109105000I150000J0D01*
G01*
X150050000Y-109105000D01*
G75*
G02*
X150200000Y-109255000I0J-150000D01*
G01*
X150200000Y-109555000D01*
G75*
G02*
X150050000Y-109705000I-150000J0D01*
G01*
X148400000Y-109705000D01*
G75*
G02*
X148250000Y-109555000I0J150000D01*
G01*
G37*
G04 #@! TD.AperFunction*
G04 #@! TA.AperFunction,SMDPad,CuDef*
G36*
G01*
X148250000Y-108285000D02*
X148250000Y-107985000D01*
G75*
G02*
X148400000Y-107835000I150000J0D01*
G01*
X150050000Y-107835000D01*
G75*
G02*
X150200000Y-107985000I0J-150000D01*
G01*
X150200000Y-108285000D01*
G75*
G02*
X150050000Y-108435000I-150000J0D01*
G01*
X148400000Y-108435000D01*
G75*
G02*
X148250000Y-108285000I0J150000D01*
G01*
G37*
G04 #@! TD.AperFunction*
G04 #@! TA.AperFunction,SMDPad,CuDef*
G36*
G01*
X148250000Y-107015000D02*
X148250000Y-106715000D01*
G75*
G02*
X148400000Y-106565000I150000J0D01*
G01*
X150050000Y-106565000D01*
G75*
G02*
X150200000Y-106715000I0J-150000D01*
G01*
X150200000Y-107015000D01*
G75*
G02*
X150050000Y-107165000I-150000J0D01*
G01*
X148400000Y-107165000D01*
G75*
G02*
X148250000Y-107015000I0J150000D01*
G01*
G37*
G04 #@! TD.AperFunction*
G04 #@! TA.AperFunction,SMDPad,CuDef*
G36*
G01*
X148250000Y-105745000D02*
X148250000Y-105445000D01*
G75*
G02*
X148400000Y-105295000I150000J0D01*
G01*
X150050000Y-105295000D01*
G75*
G02*
X150200000Y-105445000I0J-150000D01*
G01*
X150200000Y-105745000D01*
G75*
G02*
X150050000Y-105895000I-150000J0D01*
G01*
X148400000Y-105895000D01*
G75*
G02*
X148250000Y-105745000I0J150000D01*
G01*
G37*
G04 #@! TD.AperFunction*
G04 #@! TA.AperFunction,SMDPad,CuDef*
G36*
G01*
X154550000Y-105745000D02*
X154550000Y-105445000D01*
G75*
G02*
X154700000Y-105295000I150000J0D01*
G01*
X156350000Y-105295000D01*
G75*
G02*
X156500000Y-105445000I0J-150000D01*
G01*
X156500000Y-105745000D01*
G75*
G02*
X156350000Y-105895000I-150000J0D01*
G01*
X154700000Y-105895000D01*
G75*
G02*
X154550000Y-105745000I0J150000D01*
G01*
G37*
G04 #@! TD.AperFunction*
G04 #@! TA.AperFunction,SMDPad,CuDef*
G36*
G01*
X154550000Y-107015000D02*
X154550000Y-106715000D01*
G75*
G02*
X154700000Y-106565000I150000J0D01*
G01*
X156350000Y-106565000D01*
G75*
G02*
X156500000Y-106715000I0J-150000D01*
G01*
X156500000Y-107015000D01*
G75*
G02*
X156350000Y-107165000I-150000J0D01*
G01*
X154700000Y-107165000D01*
G75*
G02*
X154550000Y-107015000I0J150000D01*
G01*
G37*
G04 #@! TD.AperFunction*
G04 #@! TA.AperFunction,SMDPad,CuDef*
G36*
G01*
X154550000Y-108285000D02*
X154550000Y-107985000D01*
G75*
G02*
X154700000Y-107835000I150000J0D01*
G01*
X156350000Y-107835000D01*
G75*
G02*
X156500000Y-107985000I0J-150000D01*
G01*
X156500000Y-108285000D01*
G75*
G02*
X156350000Y-108435000I-150000J0D01*
G01*
X154700000Y-108435000D01*
G75*
G02*
X154550000Y-108285000I0J150000D01*
G01*
G37*
G04 #@! TD.AperFunction*
G04 #@! TA.AperFunction,SMDPad,CuDef*
G36*
G01*
X154550000Y-109555000D02*
X154550000Y-109255000D01*
G75*
G02*
X154700000Y-109105000I150000J0D01*
G01*
X156350000Y-109105000D01*
G75*
G02*
X156500000Y-109255000I0J-150000D01*
G01*
X156500000Y-109555000D01*
G75*
G02*
X156350000Y-109705000I-150000J0D01*
G01*
X154700000Y-109705000D01*
G75*
G02*
X154550000Y-109555000I0J150000D01*
G01*
G37*
G04 #@! TD.AperFunction*
G04 #@! TA.AperFunction,SMDPad,CuDef*
G36*
G01*
X159500000Y-109555000D02*
X159500000Y-109255000D01*
G75*
G02*
X159650000Y-109105000I150000J0D01*
G01*
X161300000Y-109105000D01*
G75*
G02*
X161450000Y-109255000I0J-150000D01*
G01*
X161450000Y-109555000D01*
G75*
G02*
X161300000Y-109705000I-150000J0D01*
G01*
X159650000Y-109705000D01*
G75*
G02*
X159500000Y-109555000I0J150000D01*
G01*
G37*
G04 #@! TD.AperFunction*
G04 #@! TA.AperFunction,SMDPad,CuDef*
G36*
G01*
X159500000Y-108285000D02*
X159500000Y-107985000D01*
G75*
G02*
X159650000Y-107835000I150000J0D01*
G01*
X161300000Y-107835000D01*
G75*
G02*
X161450000Y-107985000I0J-150000D01*
G01*
X161450000Y-108285000D01*
G75*
G02*
X161300000Y-108435000I-150000J0D01*
G01*
X159650000Y-108435000D01*
G75*
G02*
X159500000Y-108285000I0J150000D01*
G01*
G37*
G04 #@! TD.AperFunction*
G04 #@! TA.AperFunction,SMDPad,CuDef*
G36*
G01*
X159500000Y-107015000D02*
X159500000Y-106715000D01*
G75*
G02*
X159650000Y-106565000I150000J0D01*
G01*
X161300000Y-106565000D01*
G75*
G02*
X161450000Y-106715000I0J-150000D01*
G01*
X161450000Y-107015000D01*
G75*
G02*
X161300000Y-107165000I-150000J0D01*
G01*
X159650000Y-107165000D01*
G75*
G02*
X159500000Y-107015000I0J150000D01*
G01*
G37*
G04 #@! TD.AperFunction*
G04 #@! TA.AperFunction,SMDPad,CuDef*
G36*
G01*
X159500000Y-105745000D02*
X159500000Y-105445000D01*
G75*
G02*
X159650000Y-105295000I150000J0D01*
G01*
X161300000Y-105295000D01*
G75*
G02*
X161450000Y-105445000I0J-150000D01*
G01*
X161450000Y-105745000D01*
G75*
G02*
X161300000Y-105895000I-150000J0D01*
G01*
X159650000Y-105895000D01*
G75*
G02*
X159500000Y-105745000I0J150000D01*
G01*
G37*
G04 #@! TD.AperFunction*
X163500000Y-101350000D03*
X163500000Y-103650000D03*
X166000000Y-103650000D03*
X166000000Y-101350000D03*
G04 #@! TA.AperFunction,SMDPad,CuDef*
G36*
G01*
X150900000Y-105740000D02*
X150900000Y-105400000D01*
G75*
G02*
X151040000Y-105260000I140000J0D01*
G01*
X151320000Y-105260000D01*
G75*
G02*
X151460000Y-105400000I0J-140000D01*
G01*
X151460000Y-105740000D01*
G75*
G02*
X151320000Y-105880000I-140000J0D01*
G01*
X151040000Y-105880000D01*
G75*
G02*
X150900000Y-105740000I0J140000D01*
G01*
G37*
G04 #@! TD.AperFunction*
G04 #@! TA.AperFunction,SMDPad,CuDef*
G36*
G01*
X151860000Y-105740000D02*
X151860000Y-105400000D01*
G75*
G02*
X152000000Y-105260000I140000J0D01*
G01*
X152280000Y-105260000D01*
G75*
G02*
X152420000Y-105400000I0J-140000D01*
G01*
X152420000Y-105740000D01*
G75*
G02*
X152280000Y-105880000I-140000J0D01*
G01*
X152000000Y-105880000D01*
G75*
G02*
X151860000Y-105740000I0J140000D01*
G01*
G37*
G04 #@! TD.AperFunction*
G04 #@! TA.AperFunction,SMDPad,CuDef*
G36*
G01*
X150870000Y-97830000D02*
X150870000Y-98170000D01*
G75*
G02*
X150730000Y-98310000I-140000J0D01*
G01*
X150450000Y-98310000D01*
G75*
G02*
X150310000Y-98170000I0J140000D01*
G01*
X150310000Y-97830000D01*
G75*
G02*
X150450000Y-97690000I140000J0D01*
G01*
X150730000Y-97690000D01*
G75*
G02*
X150870000Y-97830000I0J-140000D01*
G01*
G37*
G04 #@! TD.AperFunction*
G04 #@! TA.AperFunction,SMDPad,CuDef*
G36*
G01*
X151830000Y-97830000D02*
X151830000Y-98170000D01*
G75*
G02*
X151690000Y-98310000I-140000J0D01*
G01*
X151410000Y-98310000D01*
G75*
G02*
X151270000Y-98170000I0J140000D01*
G01*
X151270000Y-97830000D01*
G75*
G02*
X151410000Y-97690000I140000J0D01*
G01*
X151690000Y-97690000D01*
G75*
G02*
X151830000Y-97830000I0J-140000D01*
G01*
G37*
G04 #@! TD.AperFunction*
G04 #@! TA.AperFunction,SMDPad,CuDef*
G36*
G01*
X139780000Y-99765000D02*
X139780000Y-100135000D01*
G75*
G02*
X139645000Y-100270000I-135000J0D01*
G01*
X139375000Y-100270000D01*
G75*
G02*
X139240000Y-100135000I0J135000D01*
G01*
X139240000Y-99765000D01*
G75*
G02*
X139375000Y-99630000I135000J0D01*
G01*
X139645000Y-99630000D01*
G75*
G02*
X139780000Y-99765000I0J-135000D01*
G01*
G37*
G04 #@! TD.AperFunction*
G04 #@! TA.AperFunction,SMDPad,CuDef*
G36*
G01*
X138760000Y-99765000D02*
X138760000Y-100135000D01*
G75*
G02*
X138625000Y-100270000I-135000J0D01*
G01*
X138355000Y-100270000D01*
G75*
G02*
X138220000Y-100135000I0J135000D01*
G01*
X138220000Y-99765000D01*
G75*
G02*
X138355000Y-99630000I135000J0D01*
G01*
X138625000Y-99630000D01*
G75*
G02*
X138760000Y-99765000I0J-135000D01*
G01*
G37*
G04 #@! TD.AperFunction*
G04 #@! TA.AperFunction,SMDPad,CuDef*
G36*
G01*
X138370000Y-103835000D02*
X138370000Y-103465000D01*
G75*
G02*
X138505000Y-103330000I135000J0D01*
G01*
X138775000Y-103330000D01*
G75*
G02*
X138910000Y-103465000I0J-135000D01*
G01*
X138910000Y-103835000D01*
G75*
G02*
X138775000Y-103970000I-135000J0D01*
G01*
X138505000Y-103970000D01*
G75*
G02*
X138370000Y-103835000I0J135000D01*
G01*
G37*
G04 #@! TD.AperFunction*
G04 #@! TA.AperFunction,SMDPad,CuDef*
G36*
G01*
X139390000Y-103835000D02*
X139390000Y-103465000D01*
G75*
G02*
X139525000Y-103330000I135000J0D01*
G01*
X139795000Y-103330000D01*
G75*
G02*
X139930000Y-103465000I0J-135000D01*
G01*
X139930000Y-103835000D01*
G75*
G02*
X139795000Y-103970000I-135000J0D01*
G01*
X139525000Y-103970000D01*
G75*
G02*
X139390000Y-103835000I0J135000D01*
G01*
G37*
G04 #@! TD.AperFunction*
G04 #@! TA.AperFunction,SMDPad,CuDef*
G36*
G01*
X148260000Y-100815000D02*
X148260000Y-101185000D01*
G75*
G02*
X148125000Y-101320000I-135000J0D01*
G01*
X147855000Y-101320000D01*
G75*
G02*
X147720000Y-101185000I0J135000D01*
G01*
X147720000Y-100815000D01*
G75*
G02*
X147855000Y-100680000I135000J0D01*
G01*
X148125000Y-100680000D01*
G75*
G02*
X148260000Y-100815000I0J-135000D01*
G01*
G37*
G04 #@! TD.AperFunction*
G04 #@! TA.AperFunction,SMDPad,CuDef*
G36*
G01*
X149280000Y-100815000D02*
X149280000Y-101185000D01*
G75*
G02*
X149145000Y-101320000I-135000J0D01*
G01*
X148875000Y-101320000D01*
G75*
G02*
X148740000Y-101185000I0J135000D01*
G01*
X148740000Y-100815000D01*
G75*
G02*
X148875000Y-100680000I135000J0D01*
G01*
X149145000Y-100680000D01*
G75*
G02*
X149280000Y-100815000I0J-135000D01*
G01*
G37*
G04 #@! TD.AperFunction*
G04 #@! TA.AperFunction,SMDPad,CuDef*
G36*
G01*
X146240000Y-101185000D02*
X146240000Y-100815000D01*
G75*
G02*
X146375000Y-100680000I135000J0D01*
G01*
X146645000Y-100680000D01*
G75*
G02*
X146780000Y-100815000I0J-135000D01*
G01*
X146780000Y-101185000D01*
G75*
G02*
X146645000Y-101320000I-135000J0D01*
G01*
X146375000Y-101320000D01*
G75*
G02*
X146240000Y-101185000I0J135000D01*
G01*
G37*
G04 #@! TD.AperFunction*
G04 #@! TA.AperFunction,SMDPad,CuDef*
G36*
G01*
X145220000Y-101185000D02*
X145220000Y-100815000D01*
G75*
G02*
X145355000Y-100680000I135000J0D01*
G01*
X145625000Y-100680000D01*
G75*
G02*
X145760000Y-100815000I0J-135000D01*
G01*
X145760000Y-101185000D01*
G75*
G02*
X145625000Y-101320000I-135000J0D01*
G01*
X145355000Y-101320000D01*
G75*
G02*
X145220000Y-101185000I0J135000D01*
G01*
G37*
G04 #@! TD.AperFunction*
G04 #@! TA.AperFunction,SMDPad,CuDef*
G36*
G01*
X147630000Y-97605000D02*
X147630000Y-97235000D01*
G75*
G02*
X147765000Y-97100000I135000J0D01*
G01*
X148035000Y-97100000D01*
G75*
G02*
X148170000Y-97235000I0J-135000D01*
G01*
X148170000Y-97605000D01*
G75*
G02*
X148035000Y-97740000I-135000J0D01*
G01*
X147765000Y-97740000D01*
G75*
G02*
X147630000Y-97605000I0J135000D01*
G01*
G37*
G04 #@! TD.AperFunction*
G04 #@! TA.AperFunction,SMDPad,CuDef*
G36*
G01*
X146610000Y-97605000D02*
X146610000Y-97235000D01*
G75*
G02*
X146745000Y-97100000I135000J0D01*
G01*
X147015000Y-97100000D01*
G75*
G02*
X147150000Y-97235000I0J-135000D01*
G01*
X147150000Y-97605000D01*
G75*
G02*
X147015000Y-97740000I-135000J0D01*
G01*
X146745000Y-97740000D01*
G75*
G02*
X146610000Y-97605000I0J135000D01*
G01*
G37*
G04 #@! TD.AperFunction*
G04 #@! TA.AperFunction,SMDPad,CuDef*
G36*
G01*
X154710000Y-102655000D02*
X154710000Y-103025000D01*
G75*
G02*
X154575000Y-103160000I-135000J0D01*
G01*
X154305000Y-103160000D01*
G75*
G02*
X154170000Y-103025000I0J135000D01*
G01*
X154170000Y-102655000D01*
G75*
G02*
X154305000Y-102520000I135000J0D01*
G01*
X154575000Y-102520000D01*
G75*
G02*
X154710000Y-102655000I0J-135000D01*
G01*
G37*
G04 #@! TD.AperFunction*
G04 #@! TA.AperFunction,SMDPad,CuDef*
G36*
G01*
X155730000Y-102655000D02*
X155730000Y-103025000D01*
G75*
G02*
X155595000Y-103160000I-135000J0D01*
G01*
X155325000Y-103160000D01*
G75*
G02*
X155190000Y-103025000I0J135000D01*
G01*
X155190000Y-102655000D01*
G75*
G02*
X155325000Y-102520000I135000J0D01*
G01*
X155595000Y-102520000D01*
G75*
G02*
X155730000Y-102655000I0J-135000D01*
G01*
G37*
G04 #@! TD.AperFunction*
G04 #@! TA.AperFunction,SMDPad,CuDef*
G36*
G01*
X151720000Y-109685000D02*
X151720000Y-109315000D01*
G75*
G02*
X151855000Y-109180000I135000J0D01*
G01*
X152125000Y-109180000D01*
G75*
G02*
X152260000Y-109315000I0J-135000D01*
G01*
X152260000Y-109685000D01*
G75*
G02*
X152125000Y-109820000I-135000J0D01*
G01*
X151855000Y-109820000D01*
G75*
G02*
X151720000Y-109685000I0J135000D01*
G01*
G37*
G04 #@! TD.AperFunction*
G04 #@! TA.AperFunction,SMDPad,CuDef*
G36*
G01*
X152740000Y-109685000D02*
X152740000Y-109315000D01*
G75*
G02*
X152875000Y-109180000I135000J0D01*
G01*
X153145000Y-109180000D01*
G75*
G02*
X153280000Y-109315000I0J-135000D01*
G01*
X153280000Y-109685000D01*
G75*
G02*
X153145000Y-109820000I-135000J0D01*
G01*
X152875000Y-109820000D01*
G75*
G02*
X152740000Y-109685000I0J135000D01*
G01*
G37*
G04 #@! TD.AperFunction*
G04 #@! TA.AperFunction,SMDPad,CuDef*
G36*
G01*
X144870000Y-104235000D02*
X144870000Y-103865000D01*
G75*
G02*
X145005000Y-103730000I135000J0D01*
G01*
X145275000Y-103730000D01*
G75*
G02*
X145410000Y-103865000I0J-135000D01*
G01*
X145410000Y-104235000D01*
G75*
G02*
X145275000Y-104370000I-135000J0D01*
G01*
X145005000Y-104370000D01*
G75*
G02*
X144870000Y-104235000I0J135000D01*
G01*
G37*
G04 #@! TD.AperFunction*
G04 #@! TA.AperFunction,SMDPad,CuDef*
G36*
G01*
X145890000Y-104235000D02*
X145890000Y-103865000D01*
G75*
G02*
X146025000Y-103730000I135000J0D01*
G01*
X146295000Y-103730000D01*
G75*
G02*
X146430000Y-103865000I0J-135000D01*
G01*
X146430000Y-104235000D01*
G75*
G02*
X146295000Y-104370000I-135000J0D01*
G01*
X146025000Y-104370000D01*
G75*
G02*
X145890000Y-104235000I0J135000D01*
G01*
G37*
G04 #@! TD.AperFunction*
D19*
X133000000Y-103500000D03*
X139470000Y-101500000D03*
X146150000Y-102850000D03*
X133000000Y-93000000D03*
X133000000Y-95000000D03*
X133000000Y-97000000D03*
X135000000Y-97000000D03*
X129000000Y-97000000D03*
X135000000Y-95000000D03*
X129000000Y-106000000D03*
X131000000Y-106000000D03*
X133000000Y-108000000D03*
X136000000Y-109000000D03*
X138000000Y-109000000D03*
X163000000Y-107000000D03*
X162000000Y-99000000D03*
X157000000Y-101000000D03*
X158500000Y-108550000D03*
X144000000Y-95000000D03*
X142000000Y-95000000D03*
X141000000Y-99000000D03*
X164000000Y-99000000D03*
X151000000Y-97000000D03*
X166000000Y-97000000D03*
X143000000Y-94000000D03*
X152650000Y-107000000D03*
X147000000Y-109000000D03*
X137100000Y-105230000D03*
X140560000Y-97910000D03*
X147405000Y-105595000D03*
X150530000Y-100550000D03*
X147850000Y-98850000D03*
X142150000Y-102320000D03*
X135730000Y-102320000D03*
X139820000Y-109010000D03*
X140970000Y-106250000D03*
X131430000Y-98270000D03*
X158455000Y-105595000D03*
X145490000Y-99040000D03*
X143392874Y-99977126D03*
X136960000Y-99090000D03*
D20*
X144275000Y-108135000D02*
X145605000Y-108135000D01*
X139500000Y-101470000D02*
X139470000Y-101500000D01*
X139500000Y-100000000D02*
X139500000Y-101470000D01*
X133250000Y-103750000D02*
X133000000Y-103500000D01*
X133250000Y-105250000D02*
X133250000Y-103750000D01*
X146160000Y-102860000D02*
X146150000Y-102850000D01*
X146160000Y-104050000D02*
X146160000Y-102860000D01*
X146160000Y-107580000D02*
X146120000Y-107620000D01*
X146160000Y-104050000D02*
X146160000Y-107580000D01*
X145605000Y-108135000D02*
X146120000Y-107620000D01*
D21*
X154590000Y-100470000D02*
X154489990Y-100570010D01*
X152650000Y-107000000D02*
X152650000Y-106150000D01*
X152140000Y-105640000D02*
X152650000Y-106150000D01*
X152140000Y-105570000D02*
X152140000Y-105640000D01*
X154440000Y-100620000D02*
X154590000Y-100470000D01*
X154440000Y-102840000D02*
X154440000Y-100620000D01*
X137000000Y-94700000D02*
X136940000Y-94700000D01*
X151194990Y-105595000D02*
X151194990Y-109104990D01*
X151590000Y-109500000D02*
X152039990Y-109500000D01*
X151194990Y-109104990D02*
X151590000Y-109500000D01*
X151174990Y-105595000D02*
X151199990Y-105570000D01*
X149225000Y-105595000D02*
X151174990Y-105595000D01*
X134400000Y-110750000D02*
X134400000Y-108760000D01*
X135550000Y-107610000D02*
X135550000Y-105250000D01*
X134400000Y-108760000D02*
X135550000Y-107610000D01*
X135550000Y-105250000D02*
X136720000Y-105250000D01*
X137080000Y-105250000D02*
X137100000Y-105230000D01*
X136720000Y-105250000D02*
X137080000Y-105250000D01*
X139780000Y-95070000D02*
X140100000Y-94750000D01*
X149225000Y-105595000D02*
X147405000Y-105595000D01*
D22*
X140100000Y-97450000D02*
X140560000Y-97910000D01*
X140100000Y-94750000D02*
X140100000Y-97450000D01*
X140050000Y-94700000D02*
X140100000Y-94750000D01*
D23*
X137000000Y-94700000D02*
X140050000Y-94700000D01*
D21*
X154225000Y-94445000D02*
X154570000Y-94790000D01*
X154565000Y-94445000D02*
X154590000Y-94470000D01*
X154590000Y-94470000D02*
X154580000Y-94470000D01*
D22*
X154580000Y-94470000D02*
X153285000Y-95765000D01*
X153885000Y-93785000D02*
X151620001Y-93785000D01*
X154570000Y-94470000D02*
X153885000Y-93785000D01*
X154590000Y-94470000D02*
X154570000Y-94470000D01*
X154594999Y-94450000D02*
X151650000Y-94450000D01*
X153945000Y-95105000D02*
X151620001Y-95105000D01*
X154580000Y-94470000D02*
X153945000Y-95105000D01*
X151550000Y-98000000D02*
X152100000Y-98000000D01*
X152545000Y-97555000D02*
X152545000Y-95765000D01*
X152545000Y-95765000D02*
X151620001Y-95765000D01*
X152100000Y-98000000D02*
X152545000Y-97555000D01*
X153285000Y-95765000D02*
X152545000Y-95765000D01*
D20*
X163250000Y-100000000D02*
X163500000Y-100250000D01*
X161500000Y-100000000D02*
X163250000Y-100000000D01*
X159750000Y-95500000D02*
X159750000Y-98250000D01*
X159750000Y-98250000D02*
X161500000Y-100000000D01*
X163500000Y-100250000D02*
X163500000Y-101350000D01*
X159250000Y-95000000D02*
X159750000Y-95500000D01*
X158000000Y-95000000D02*
X159250000Y-95000000D01*
X161500000Y-95000000D02*
X162500000Y-95000000D01*
X166000000Y-98500000D02*
X166000000Y-101350000D01*
X162500000Y-95000000D02*
X166000000Y-98500000D01*
X153900000Y-106100000D02*
X154405000Y-105595000D01*
X154435000Y-108135000D02*
X153900000Y-107600000D01*
X154405000Y-105595000D02*
X155525000Y-105595000D01*
X155525000Y-108135000D02*
X154435000Y-108135000D01*
X153900000Y-106850000D02*
X155490000Y-106850000D01*
X155490000Y-106900000D02*
X155525000Y-106865000D01*
X153900000Y-107600000D02*
X153900000Y-106900000D01*
X153900000Y-106900000D02*
X153900000Y-106100000D01*
X147540000Y-96000000D02*
X147540000Y-96952876D01*
X147775000Y-95765000D02*
X147540000Y-96000000D01*
X148365000Y-95765000D02*
X147775000Y-95765000D01*
X153900000Y-106100000D02*
X153900000Y-105290000D01*
X153900000Y-105290000D02*
X152770000Y-104160000D01*
X152770000Y-104160000D02*
X151150000Y-104160000D01*
X151150000Y-104160000D02*
X150530000Y-103540000D01*
X150530000Y-103540000D02*
X150530000Y-100550000D01*
X147900000Y-97312876D02*
X147540000Y-96952876D01*
X147900000Y-97420000D02*
X147900000Y-97312876D01*
X147850000Y-97470000D02*
X147900000Y-97420000D01*
X147850000Y-98850000D02*
X147850000Y-97470000D01*
X156595000Y-109405000D02*
X155525000Y-109405000D01*
X157500000Y-104250000D02*
X157500000Y-108500000D01*
X158250000Y-103500000D02*
X157500000Y-104250000D01*
X157500000Y-108500000D02*
X156595000Y-109405000D01*
X159500000Y-103500000D02*
X158250000Y-103500000D01*
X155525000Y-109405000D02*
X153845000Y-109405000D01*
X153750000Y-109500000D02*
X152820000Y-109500000D01*
X153845000Y-109405000D02*
X153750000Y-109500000D01*
X138650000Y-103710000D02*
X138660000Y-103700000D01*
X138650000Y-105250000D02*
X138650000Y-103710000D01*
X138650000Y-105730000D02*
X138650000Y-105250000D01*
X129490000Y-102450000D02*
X129500000Y-102460000D01*
X138110001Y-103120001D02*
X138660000Y-103670000D01*
X138660000Y-103670000D02*
X138660000Y-103700000D01*
X134052881Y-103120001D02*
X138110001Y-103120001D01*
X133392880Y-102460000D02*
X134052881Y-103120001D01*
X144275000Y-106865000D02*
X142555000Y-106865000D01*
X142555000Y-106865000D02*
X141920000Y-107500000D01*
X141920000Y-107500000D02*
X139450000Y-107500000D01*
X138650000Y-106700000D02*
X138650000Y-105250000D01*
X139450000Y-107500000D02*
X138650000Y-106700000D01*
X129490000Y-102410000D02*
X129550000Y-102470000D01*
X129490000Y-100950000D02*
X129490000Y-102410000D01*
X129560000Y-102460000D02*
X129550000Y-102470000D01*
X133392880Y-102460000D02*
X129560000Y-102460000D01*
X147000000Y-99850000D02*
X148550000Y-99850000D01*
X148550000Y-99850000D02*
X149010000Y-100310000D01*
X146510000Y-100340000D02*
X147000000Y-99850000D01*
X149010000Y-100310000D02*
X149010000Y-101000000D01*
X146510000Y-101000000D02*
X146510000Y-100340000D01*
X149450000Y-99850000D02*
X148550000Y-99850000D01*
X150590000Y-98710000D02*
X149450000Y-99850000D01*
X150590000Y-98000000D02*
X150590000Y-98710000D01*
X143075000Y-105595000D02*
X144275000Y-105595000D01*
X133510000Y-101020000D02*
X133510000Y-101769999D01*
X142170000Y-102320000D02*
X142150000Y-102320000D01*
X135730000Y-102320000D02*
X133960000Y-102320000D01*
X133510000Y-101870000D02*
X133510000Y-101769999D01*
X133960000Y-102320000D02*
X133510000Y-101870000D01*
X142150000Y-104670000D02*
X143075000Y-105595000D01*
X142150000Y-102320000D02*
X142150000Y-104670000D01*
X144275000Y-104915000D02*
X145140000Y-104050000D01*
X144275000Y-105595000D02*
X144275000Y-104915000D01*
X145140000Y-102610000D02*
X145750000Y-102000000D01*
X145140000Y-104050000D02*
X145140000Y-102610000D01*
X147990000Y-101510000D02*
X147500000Y-102000000D01*
X147990000Y-101000000D02*
X147990000Y-101510000D01*
X145750000Y-102000000D02*
X147500000Y-102000000D01*
D22*
X148325000Y-93785000D02*
X146165000Y-93785000D01*
D20*
X148565000Y-94510000D02*
X148510000Y-94510000D01*
D21*
X145900000Y-94750000D02*
X145900000Y-95700000D01*
X145900000Y-94750000D02*
X145900000Y-96780000D01*
X145900000Y-96780000D02*
X146540000Y-97420000D01*
X140950000Y-106214990D02*
X140970000Y-106214990D01*
X140950000Y-105250000D02*
X140950000Y-106214990D01*
X131430000Y-98270000D02*
X130790000Y-97630000D01*
X130790000Y-97630000D02*
X129930000Y-97630000D01*
X129490000Y-98070000D02*
X129490000Y-98650000D01*
X129930000Y-97630000D02*
X129490000Y-98070000D01*
X140950000Y-101040000D02*
X140950000Y-105250000D01*
X144570000Y-97420000D02*
X140950000Y-101040000D01*
X146540000Y-97420000D02*
X144570000Y-97420000D01*
X139800000Y-109030000D02*
X139820000Y-109010000D01*
X139800000Y-110750000D02*
X139800000Y-109030000D01*
X146880000Y-97420000D02*
X146540000Y-97420000D01*
X145900000Y-94750000D02*
X146150000Y-94750000D01*
D22*
X146205000Y-94445000D02*
X145900000Y-94750000D01*
X148365000Y-94445000D02*
X146205000Y-94445000D01*
X146255000Y-95105000D02*
X145900000Y-94750000D01*
X148365000Y-95105000D02*
X146255000Y-95105000D01*
D20*
X160475000Y-109405000D02*
X161595000Y-109405000D01*
X161595000Y-109405000D02*
X162200000Y-108800000D01*
X161595000Y-105595000D02*
X160475000Y-105595000D01*
X162200000Y-106200000D02*
X161595000Y-105595000D01*
X162135000Y-106865000D02*
X162200000Y-106800000D01*
X160475000Y-106865000D02*
X162135000Y-106865000D01*
X162200000Y-106800000D02*
X162200000Y-106200000D01*
X162165000Y-108135000D02*
X162200000Y-108100000D01*
X160475000Y-108135000D02*
X162165000Y-108135000D01*
X162200000Y-108100000D02*
X162200000Y-106800000D01*
X162200000Y-108800000D02*
X162200000Y-108100000D01*
X160475000Y-105595000D02*
X158455000Y-105595000D01*
X145490000Y-100810000D02*
X145680000Y-101000000D01*
X145490000Y-99040000D02*
X145490000Y-100810000D01*
X145470000Y-99060000D02*
X145490000Y-99040000D01*
X133510000Y-98720000D02*
X133510000Y-98140000D01*
X145490000Y-99040000D02*
X144300000Y-99040000D01*
X143392874Y-99947126D02*
X143392874Y-99977126D01*
X144300000Y-99040000D02*
X143392874Y-99947126D01*
X136960000Y-99090000D02*
X135550000Y-99090000D01*
X135550000Y-99090000D02*
X134370000Y-97910000D01*
X134370000Y-97910000D02*
X133740000Y-97910000D01*
X133510000Y-98140000D02*
X133740000Y-97910000D01*
X163500000Y-105000000D02*
X163500000Y-103650000D01*
X165500000Y-105000000D02*
X163500000Y-105000000D01*
X166000000Y-104500000D02*
X165500000Y-105000000D01*
X166000000Y-103650000D02*
X166000000Y-104500000D01*
X162000000Y-102000000D02*
X161500000Y-101500000D01*
X161500000Y-101500000D02*
X160450000Y-101500000D01*
X162500000Y-105000000D02*
X162000000Y-104500000D01*
X162000000Y-104500000D02*
X162000000Y-102000000D01*
X163500000Y-105000000D02*
X162500000Y-105000000D01*
X159999998Y-102350000D02*
X156050000Y-102350000D01*
X160450000Y-101900000D02*
X159999998Y-102350000D01*
X160450000Y-101500000D02*
X160450000Y-101900000D01*
X155560000Y-102840000D02*
X156050000Y-102350000D01*
X155270000Y-102840000D02*
X155560000Y-102840000D01*
G36*
X167150001Y-111650000D02*
G01*
X140968265Y-111650000D01*
X141013158Y-111613158D01*
X141050647Y-111567477D01*
X141078504Y-111515360D01*
X141095659Y-111458810D01*
X141101451Y-111400000D01*
X141101451Y-110100000D01*
X141095659Y-110041190D01*
X141078504Y-109984640D01*
X141050647Y-109932523D01*
X141013158Y-109886842D01*
X140967477Y-109849353D01*
X140915360Y-109821496D01*
X140858810Y-109804341D01*
X140800000Y-109798549D01*
X140350000Y-109798549D01*
X140350000Y-109469950D01*
X140363726Y-109456224D01*
X140440332Y-109341574D01*
X140476191Y-109255000D01*
X147948549Y-109255000D01*
X147948549Y-109555000D01*
X147957224Y-109643074D01*
X147982914Y-109727763D01*
X148024632Y-109805813D01*
X148080776Y-109874224D01*
X148149187Y-109930368D01*
X148227237Y-109972086D01*
X148311926Y-109997776D01*
X148400000Y-110006451D01*
X150050000Y-110006451D01*
X150138074Y-109997776D01*
X150222763Y-109972086D01*
X150300813Y-109930368D01*
X150369224Y-109874224D01*
X150425368Y-109805813D01*
X150467086Y-109727763D01*
X150492776Y-109643074D01*
X150501451Y-109555000D01*
X150501451Y-109255000D01*
X150492776Y-109166926D01*
X150467086Y-109082237D01*
X150425368Y-109004187D01*
X150369224Y-108935776D01*
X150300813Y-108879632D01*
X150222763Y-108837914D01*
X150138074Y-108812224D01*
X150050000Y-108803549D01*
X148400000Y-108803549D01*
X148311926Y-108812224D01*
X148227237Y-108837914D01*
X148149187Y-108879632D01*
X148080776Y-108935776D01*
X148024632Y-109004187D01*
X147982914Y-109082237D01*
X147957224Y-109166926D01*
X147948549Y-109255000D01*
X140476191Y-109255000D01*
X140493099Y-109214182D01*
X140520000Y-109078944D01*
X140520000Y-108941056D01*
X140493099Y-108805818D01*
X140440332Y-108678426D01*
X140363726Y-108563776D01*
X140266224Y-108466274D01*
X140151574Y-108389668D01*
X140024182Y-108336901D01*
X139888944Y-108310000D01*
X139751056Y-108310000D01*
X139615818Y-108336901D01*
X139488426Y-108389668D01*
X139373776Y-108466274D01*
X139276274Y-108563776D01*
X139199668Y-108678426D01*
X139146901Y-108805818D01*
X139120000Y-108941056D01*
X139120000Y-109078944D01*
X139146901Y-109214182D01*
X139199668Y-109341574D01*
X139250001Y-109416903D01*
X139250001Y-109798549D01*
X138800000Y-109798549D01*
X138741190Y-109804341D01*
X138684640Y-109821496D01*
X138632523Y-109849353D01*
X138586842Y-109886842D01*
X138549353Y-109932523D01*
X138521496Y-109984640D01*
X138504341Y-110041190D01*
X138498549Y-110100000D01*
X138498549Y-111400000D01*
X138504341Y-111458810D01*
X138521496Y-111515360D01*
X138549353Y-111567477D01*
X138586842Y-111613158D01*
X138631735Y-111650000D01*
X135568265Y-111650000D01*
X135613158Y-111613158D01*
X135650647Y-111567477D01*
X135678504Y-111515360D01*
X135695659Y-111458810D01*
X135701451Y-111400000D01*
X135701451Y-110100000D01*
X135695659Y-110041190D01*
X135678504Y-109984640D01*
X135650647Y-109932523D01*
X135613158Y-109886842D01*
X135567477Y-109849353D01*
X135515360Y-109821496D01*
X135458810Y-109804341D01*
X135400000Y-109798549D01*
X134950000Y-109798549D01*
X134950000Y-108987817D01*
X135919804Y-108018013D01*
X135940790Y-108000790D01*
X136009521Y-107917042D01*
X136060592Y-107821494D01*
X136092042Y-107717819D01*
X136100000Y-107637018D01*
X136100000Y-107637011D01*
X136102660Y-107610000D01*
X136100000Y-107582989D01*
X136100000Y-106201451D01*
X136200000Y-106201451D01*
X136258810Y-106195659D01*
X136315360Y-106178504D01*
X136367477Y-106150647D01*
X136413158Y-106113158D01*
X136450647Y-106067477D01*
X136478504Y-106015360D01*
X136495659Y-105958810D01*
X136501451Y-105900000D01*
X136501451Y-105800000D01*
X136693098Y-105800000D01*
X136768426Y-105850332D01*
X136895818Y-105903099D01*
X137031056Y-105930000D01*
X137168944Y-105930000D01*
X137304182Y-105903099D01*
X137431574Y-105850332D01*
X137546224Y-105773726D01*
X137643726Y-105676224D01*
X137698549Y-105594175D01*
X137698549Y-105900000D01*
X137704341Y-105958810D01*
X137721496Y-106015360D01*
X137749353Y-106067477D01*
X137786842Y-106113158D01*
X137832523Y-106150647D01*
X137884640Y-106178504D01*
X137941190Y-106195659D01*
X138000000Y-106201451D01*
X138250000Y-106201451D01*
X138250000Y-106680353D01*
X138248065Y-106700000D01*
X138250000Y-106719646D01*
X138255788Y-106778413D01*
X138278660Y-106853813D01*
X138315803Y-106923302D01*
X138365789Y-106984211D01*
X138381052Y-106996737D01*
X139153267Y-107768953D01*
X139165789Y-107784211D01*
X139181047Y-107796733D01*
X139181049Y-107796735D01*
X139226697Y-107834197D01*
X139296185Y-107871340D01*
X139371586Y-107894212D01*
X139450000Y-107901935D01*
X139469647Y-107900000D01*
X141900354Y-107900000D01*
X141920000Y-107901935D01*
X141939646Y-107900000D01*
X141939647Y-107900000D01*
X141998414Y-107894212D01*
X142073814Y-107871340D01*
X142143303Y-107834197D01*
X142204211Y-107784211D01*
X142216737Y-107768948D01*
X142720685Y-107265000D01*
X143074197Y-107265000D01*
X143074632Y-107265813D01*
X143130776Y-107334224D01*
X143199187Y-107390368D01*
X143277237Y-107432086D01*
X143361926Y-107457776D01*
X143450000Y-107466451D01*
X145100000Y-107466451D01*
X145188074Y-107457776D01*
X145272763Y-107432086D01*
X145350813Y-107390368D01*
X145419224Y-107334224D01*
X145475368Y-107265813D01*
X145517086Y-107187763D01*
X145542776Y-107103074D01*
X145551451Y-107015000D01*
X145551451Y-106715000D01*
X145542776Y-106626926D01*
X145517086Y-106542237D01*
X145475368Y-106464187D01*
X145419224Y-106395776D01*
X145350813Y-106339632D01*
X145272763Y-106297914D01*
X145188074Y-106272224D01*
X145100000Y-106263549D01*
X143450000Y-106263549D01*
X143361926Y-106272224D01*
X143277237Y-106297914D01*
X143199187Y-106339632D01*
X143130776Y-106395776D01*
X143074632Y-106464187D01*
X143074197Y-106465000D01*
X142574647Y-106465000D01*
X142555000Y-106463065D01*
X142535353Y-106465000D01*
X142476586Y-106470788D01*
X142401186Y-106493660D01*
X142331697Y-106530803D01*
X142270789Y-106580789D01*
X142258265Y-106596050D01*
X141754315Y-107100000D01*
X139615686Y-107100000D01*
X139050000Y-106534315D01*
X139050000Y-106201451D01*
X139300000Y-106201451D01*
X139358810Y-106195659D01*
X139415360Y-106178504D01*
X139467477Y-106150647D01*
X139513158Y-106113158D01*
X139550647Y-106067477D01*
X139578504Y-106015360D01*
X139595659Y-105958810D01*
X139601451Y-105900000D01*
X139601451Y-104600000D01*
X139998549Y-104600000D01*
X139998549Y-105900000D01*
X140004341Y-105958810D01*
X140021496Y-106015360D01*
X140049353Y-106067477D01*
X140086842Y-106113158D01*
X140132523Y-106150647D01*
X140184640Y-106178504D01*
X140241190Y-106195659D01*
X140270000Y-106198496D01*
X140270000Y-106318944D01*
X140296901Y-106454182D01*
X140349668Y-106581574D01*
X140426274Y-106696224D01*
X140523776Y-106793726D01*
X140638426Y-106870332D01*
X140765818Y-106923099D01*
X140901056Y-106950000D01*
X141038944Y-106950000D01*
X141174182Y-106923099D01*
X141301574Y-106870332D01*
X141416224Y-106793726D01*
X141513726Y-106696224D01*
X141590332Y-106581574D01*
X141643099Y-106454182D01*
X141670000Y-106318944D01*
X141670000Y-106192264D01*
X141715360Y-106178504D01*
X141767477Y-106150647D01*
X141813158Y-106113158D01*
X141850647Y-106067477D01*
X141878504Y-106015360D01*
X141895659Y-105958810D01*
X141901451Y-105900000D01*
X141901451Y-104987136D01*
X142778263Y-105863948D01*
X142790789Y-105879211D01*
X142837765Y-105917763D01*
X142851697Y-105929197D01*
X142921186Y-105966340D01*
X142996586Y-105989212D01*
X143075000Y-105996935D01*
X143075511Y-105996885D01*
X143130776Y-106064224D01*
X143199187Y-106120368D01*
X143277237Y-106162086D01*
X143361926Y-106187776D01*
X143450000Y-106196451D01*
X145100000Y-106196451D01*
X145188074Y-106187776D01*
X145272763Y-106162086D01*
X145350813Y-106120368D01*
X145419224Y-106064224D01*
X145475368Y-105995813D01*
X145517086Y-105917763D01*
X145542776Y-105833074D01*
X145551451Y-105745000D01*
X145551451Y-105445000D01*
X145542776Y-105356926D01*
X145517086Y-105272237D01*
X145475368Y-105194187D01*
X145419224Y-105125776D01*
X145350813Y-105069632D01*
X145272763Y-105027914D01*
X145188074Y-105002224D01*
X145100000Y-104993549D01*
X144762136Y-104993549D01*
X145084234Y-104671451D01*
X145275000Y-104671451D01*
X145360147Y-104663065D01*
X145442023Y-104638228D01*
X145517479Y-104597896D01*
X145583617Y-104543617D01*
X145637896Y-104477479D01*
X145650000Y-104454834D01*
X145662104Y-104477479D01*
X145716383Y-104543617D01*
X145760000Y-104579413D01*
X145760001Y-107414313D01*
X145459483Y-107714832D01*
X145419224Y-107665776D01*
X145350813Y-107609632D01*
X145272763Y-107567914D01*
X145188074Y-107542224D01*
X145100000Y-107533549D01*
X143450000Y-107533549D01*
X143361926Y-107542224D01*
X143277237Y-107567914D01*
X143199187Y-107609632D01*
X143130776Y-107665776D01*
X143074632Y-107734187D01*
X143032914Y-107812237D01*
X143007224Y-107896926D01*
X142998549Y-107985000D01*
X142998549Y-108285000D01*
X143007224Y-108373074D01*
X143032914Y-108457763D01*
X143074632Y-108535813D01*
X143130776Y-108604224D01*
X143199187Y-108660368D01*
X143277237Y-108702086D01*
X143361926Y-108727776D01*
X143450000Y-108736451D01*
X145100000Y-108736451D01*
X145188074Y-108727776D01*
X145272763Y-108702086D01*
X145350813Y-108660368D01*
X145419224Y-108604224D01*
X145475368Y-108535813D01*
X145475803Y-108535000D01*
X145585354Y-108535000D01*
X145605000Y-108536935D01*
X145624646Y-108535000D01*
X145624647Y-108535000D01*
X145683414Y-108529212D01*
X145758814Y-108506340D01*
X145828303Y-108469197D01*
X145889211Y-108419211D01*
X145901737Y-108403948D01*
X146320685Y-107985000D01*
X147948549Y-107985000D01*
X147948549Y-108285000D01*
X147957224Y-108373074D01*
X147982914Y-108457763D01*
X148024632Y-108535813D01*
X148080776Y-108604224D01*
X148149187Y-108660368D01*
X148227237Y-108702086D01*
X148311926Y-108727776D01*
X148400000Y-108736451D01*
X150050000Y-108736451D01*
X150138074Y-108727776D01*
X150222763Y-108702086D01*
X150300813Y-108660368D01*
X150369224Y-108604224D01*
X150425368Y-108535813D01*
X150467086Y-108457763D01*
X150492776Y-108373074D01*
X150501451Y-108285000D01*
X150501451Y-107985000D01*
X150492776Y-107896926D01*
X150467086Y-107812237D01*
X150425368Y-107734187D01*
X150369224Y-107665776D01*
X150300813Y-107609632D01*
X150222763Y-107567914D01*
X150138074Y-107542224D01*
X150050000Y-107533549D01*
X148400000Y-107533549D01*
X148311926Y-107542224D01*
X148227237Y-107567914D01*
X148149187Y-107609632D01*
X148080776Y-107665776D01*
X148024632Y-107734187D01*
X147982914Y-107812237D01*
X147957224Y-107896926D01*
X147948549Y-107985000D01*
X146320685Y-107985000D01*
X146416735Y-107888951D01*
X146416741Y-107888943D01*
X146428944Y-107876740D01*
X146444211Y-107864211D01*
X146494197Y-107803303D01*
X146531340Y-107733814D01*
X146554212Y-107658414D01*
X146560000Y-107599647D01*
X146560000Y-107599646D01*
X146561935Y-107580000D01*
X146560000Y-107560353D01*
X146560000Y-106715000D01*
X147948549Y-106715000D01*
X147948549Y-107015000D01*
X147957224Y-107103074D01*
X147982914Y-107187763D01*
X148024632Y-107265813D01*
X148080776Y-107334224D01*
X148149187Y-107390368D01*
X148227237Y-107432086D01*
X148311926Y-107457776D01*
X148400000Y-107466451D01*
X150050000Y-107466451D01*
X150138074Y-107457776D01*
X150222763Y-107432086D01*
X150300813Y-107390368D01*
X150369224Y-107334224D01*
X150425368Y-107265813D01*
X150467086Y-107187763D01*
X150492776Y-107103074D01*
X150501451Y-107015000D01*
X150501451Y-106715000D01*
X150492776Y-106626926D01*
X150467086Y-106542237D01*
X150425368Y-106464187D01*
X150369224Y-106395776D01*
X150300813Y-106339632D01*
X150222763Y-106297914D01*
X150138074Y-106272224D01*
X150050000Y-106263549D01*
X148400000Y-106263549D01*
X148311926Y-106272224D01*
X148227237Y-106297914D01*
X148149187Y-106339632D01*
X148080776Y-106395776D01*
X148024632Y-106464187D01*
X147982914Y-106542237D01*
X147957224Y-106626926D01*
X147948549Y-106715000D01*
X146560000Y-106715000D01*
X146560000Y-105526056D01*
X146705000Y-105526056D01*
X146705000Y-105663944D01*
X146731901Y-105799182D01*
X146784668Y-105926574D01*
X146861274Y-106041224D01*
X146958776Y-106138726D01*
X147073426Y-106215332D01*
X147200818Y-106268099D01*
X147336056Y-106295000D01*
X147473944Y-106295000D01*
X147609182Y-106268099D01*
X147736574Y-106215332D01*
X147841834Y-106145000D01*
X148195271Y-106145000D01*
X148227237Y-106162086D01*
X148311926Y-106187776D01*
X148400000Y-106196451D01*
X150050000Y-106196451D01*
X150138074Y-106187776D01*
X150222763Y-106162086D01*
X150254729Y-106145000D01*
X150644990Y-106145000D01*
X150644991Y-109077972D01*
X150642330Y-109104990D01*
X150644991Y-109132008D01*
X150652949Y-109212809D01*
X150661651Y-109241494D01*
X150684399Y-109316484D01*
X150735469Y-109412032D01*
X150786977Y-109474794D01*
X150786983Y-109474800D01*
X150804201Y-109495780D01*
X150825181Y-109512998D01*
X151181987Y-109869804D01*
X151199210Y-109890790D01*
X151282958Y-109959521D01*
X151378506Y-110010592D01*
X151482181Y-110042042D01*
X151562982Y-110050000D01*
X151562991Y-110050000D01*
X151589999Y-110052660D01*
X151616543Y-110050046D01*
X151687977Y-110088228D01*
X151769853Y-110113065D01*
X151855000Y-110121451D01*
X152125000Y-110121451D01*
X152210147Y-110113065D01*
X152292023Y-110088228D01*
X152367479Y-110047896D01*
X152433617Y-109993617D01*
X152487896Y-109927479D01*
X152500000Y-109904834D01*
X152512104Y-109927479D01*
X152566383Y-109993617D01*
X152632521Y-110047896D01*
X152707977Y-110088228D01*
X152789853Y-110113065D01*
X152875000Y-110121451D01*
X153145000Y-110121451D01*
X153230147Y-110113065D01*
X153312023Y-110088228D01*
X153387479Y-110047896D01*
X153453617Y-109993617D01*
X153507896Y-109927479D01*
X153522584Y-109900000D01*
X153730354Y-109900000D01*
X153750000Y-109901935D01*
X153769646Y-109900000D01*
X153769647Y-109900000D01*
X153828414Y-109894212D01*
X153903814Y-109871340D01*
X153973303Y-109834197D01*
X154008880Y-109805000D01*
X154324197Y-109805000D01*
X154324632Y-109805813D01*
X154380776Y-109874224D01*
X154449187Y-109930368D01*
X154527237Y-109972086D01*
X154611926Y-109997776D01*
X154700000Y-110006451D01*
X156350000Y-110006451D01*
X156438074Y-109997776D01*
X156522763Y-109972086D01*
X156600813Y-109930368D01*
X156669224Y-109874224D01*
X156725368Y-109805813D01*
X156739633Y-109779125D01*
X156748814Y-109776340D01*
X156818303Y-109739197D01*
X156879211Y-109689211D01*
X156891737Y-109673948D01*
X157768953Y-108796733D01*
X157784211Y-108784211D01*
X157804081Y-108760000D01*
X157834196Y-108723304D01*
X157835114Y-108721587D01*
X157871340Y-108653814D01*
X157894212Y-108578414D01*
X157900000Y-108519647D01*
X157900000Y-108519637D01*
X157901934Y-108500001D01*
X157900000Y-108480365D01*
X157900000Y-106024351D01*
X157911274Y-106041224D01*
X158008776Y-106138726D01*
X158123426Y-106215332D01*
X158250818Y-106268099D01*
X158386056Y-106295000D01*
X158523944Y-106295000D01*
X158659182Y-106268099D01*
X158786574Y-106215332D01*
X158901224Y-106138726D01*
X158998726Y-106041224D01*
X159029612Y-105995000D01*
X159274197Y-105995000D01*
X159274632Y-105995813D01*
X159330776Y-106064224D01*
X159399187Y-106120368D01*
X159477237Y-106162086D01*
X159561926Y-106187776D01*
X159650000Y-106196451D01*
X161300000Y-106196451D01*
X161388074Y-106187776D01*
X161472763Y-106162086D01*
X161550813Y-106120368D01*
X161552938Y-106118624D01*
X161800001Y-106365687D01*
X161800001Y-106465000D01*
X161675803Y-106465000D01*
X161675368Y-106464187D01*
X161619224Y-106395776D01*
X161550813Y-106339632D01*
X161472763Y-106297914D01*
X161388074Y-106272224D01*
X161300000Y-106263549D01*
X159650000Y-106263549D01*
X159561926Y-106272224D01*
X159477237Y-106297914D01*
X159399187Y-106339632D01*
X159330776Y-106395776D01*
X159274632Y-106464187D01*
X159232914Y-106542237D01*
X159207224Y-106626926D01*
X159198549Y-106715000D01*
X159198549Y-107015000D01*
X159207224Y-107103074D01*
X159232914Y-107187763D01*
X159274632Y-107265813D01*
X159330776Y-107334224D01*
X159399187Y-107390368D01*
X159477237Y-107432086D01*
X159561926Y-107457776D01*
X159650000Y-107466451D01*
X161300000Y-107466451D01*
X161388074Y-107457776D01*
X161472763Y-107432086D01*
X161550813Y-107390368D01*
X161619224Y-107334224D01*
X161675368Y-107265813D01*
X161675803Y-107265000D01*
X161800001Y-107265000D01*
X161800000Y-107735000D01*
X161675803Y-107735000D01*
X161675368Y-107734187D01*
X161619224Y-107665776D01*
X161550813Y-107609632D01*
X161472763Y-107567914D01*
X161388074Y-107542224D01*
X161300000Y-107533549D01*
X159650000Y-107533549D01*
X159561926Y-107542224D01*
X159477237Y-107567914D01*
X159399187Y-107609632D01*
X159330776Y-107665776D01*
X159274632Y-107734187D01*
X159232914Y-107812237D01*
X159207224Y-107896926D01*
X159198549Y-107985000D01*
X159198549Y-108285000D01*
X159207224Y-108373074D01*
X159232914Y-108457763D01*
X159274632Y-108535813D01*
X159330776Y-108604224D01*
X159399187Y-108660368D01*
X159477237Y-108702086D01*
X159561926Y-108727776D01*
X159650000Y-108736451D01*
X161300000Y-108736451D01*
X161388074Y-108727776D01*
X161472763Y-108702086D01*
X161550813Y-108660368D01*
X161619224Y-108604224D01*
X161675368Y-108535813D01*
X161675803Y-108535000D01*
X161800000Y-108535000D01*
X161800000Y-108634314D01*
X161552938Y-108881376D01*
X161550813Y-108879632D01*
X161472763Y-108837914D01*
X161388074Y-108812224D01*
X161300000Y-108803549D01*
X159650000Y-108803549D01*
X159561926Y-108812224D01*
X159477237Y-108837914D01*
X159399187Y-108879632D01*
X159330776Y-108935776D01*
X159274632Y-109004187D01*
X159232914Y-109082237D01*
X159207224Y-109166926D01*
X159198549Y-109255000D01*
X159198549Y-109555000D01*
X159207224Y-109643074D01*
X159232914Y-109727763D01*
X159274632Y-109805813D01*
X159330776Y-109874224D01*
X159399187Y-109930368D01*
X159477237Y-109972086D01*
X159561926Y-109997776D01*
X159650000Y-110006451D01*
X161300000Y-110006451D01*
X161388074Y-109997776D01*
X161472763Y-109972086D01*
X161550813Y-109930368D01*
X161619224Y-109874224D01*
X161675368Y-109805813D01*
X161679957Y-109797227D01*
X161748814Y-109776340D01*
X161818303Y-109739197D01*
X161879211Y-109689211D01*
X161891737Y-109673948D01*
X162468954Y-109096732D01*
X162484211Y-109084211D01*
X162498302Y-109067042D01*
X162534196Y-109023304D01*
X162534197Y-109023303D01*
X162571340Y-108953814D01*
X162594212Y-108878414D01*
X162600000Y-108819647D01*
X162600000Y-108819637D01*
X162601934Y-108800001D01*
X162600000Y-108780365D01*
X162600000Y-108119637D01*
X162601934Y-108100001D01*
X162600000Y-108080365D01*
X162600000Y-106819646D01*
X162601935Y-106800000D01*
X162600000Y-106780353D01*
X162600000Y-106219635D01*
X162601934Y-106199999D01*
X162600000Y-106180363D01*
X162600000Y-106180353D01*
X162594212Y-106121586D01*
X162571340Y-106046186D01*
X162534197Y-105976697D01*
X162522941Y-105962982D01*
X162496735Y-105931049D01*
X162496733Y-105931047D01*
X162484211Y-105915789D01*
X162468953Y-105903267D01*
X161891735Y-105326050D01*
X161879211Y-105310789D01*
X161818303Y-105260803D01*
X161748814Y-105223660D01*
X161679957Y-105202773D01*
X161675368Y-105194187D01*
X161619224Y-105125776D01*
X161550813Y-105069632D01*
X161472763Y-105027914D01*
X161388074Y-105002224D01*
X161300000Y-104993549D01*
X159650000Y-104993549D01*
X159561926Y-105002224D01*
X159477237Y-105027914D01*
X159399187Y-105069632D01*
X159330776Y-105125776D01*
X159274632Y-105194187D01*
X159274197Y-105195000D01*
X159029612Y-105195000D01*
X158998726Y-105148776D01*
X158901224Y-105051274D01*
X158786574Y-104974668D01*
X158659182Y-104921901D01*
X158523944Y-104895000D01*
X158386056Y-104895000D01*
X158250818Y-104921901D01*
X158123426Y-104974668D01*
X158008776Y-105051274D01*
X157911274Y-105148776D01*
X157900000Y-105165649D01*
X157900000Y-104415685D01*
X158415686Y-103900000D01*
X158798549Y-103900000D01*
X158798549Y-103950000D01*
X158804341Y-104008810D01*
X158821496Y-104065360D01*
X158849353Y-104117477D01*
X158886842Y-104163158D01*
X158932523Y-104200647D01*
X158984640Y-104228504D01*
X159041190Y-104245659D01*
X159100000Y-104251451D01*
X159900000Y-104251451D01*
X159958810Y-104245659D01*
X160015360Y-104228504D01*
X160067477Y-104200647D01*
X160113158Y-104163158D01*
X160150647Y-104117477D01*
X160178504Y-104065360D01*
X160195659Y-104008810D01*
X160201451Y-103950000D01*
X160201451Y-103050000D01*
X160195659Y-102991190D01*
X160178504Y-102934640D01*
X160150647Y-102882523D01*
X160113158Y-102836842D01*
X160067477Y-102799353D01*
X160015360Y-102771496D01*
X159958810Y-102754341D01*
X159914733Y-102750000D01*
X159980354Y-102750000D01*
X159999998Y-102751935D01*
X160019644Y-102750000D01*
X160019645Y-102750000D01*
X160078412Y-102744212D01*
X160153812Y-102721340D01*
X160223301Y-102684197D01*
X160284209Y-102634211D01*
X160296739Y-102618943D01*
X160664233Y-102251451D01*
X160850000Y-102251451D01*
X160908810Y-102245659D01*
X160965360Y-102228504D01*
X161017477Y-102200647D01*
X161063158Y-102163158D01*
X161100647Y-102117477D01*
X161128504Y-102065360D01*
X161145659Y-102008810D01*
X161151451Y-101950000D01*
X161151451Y-101900000D01*
X161334315Y-101900000D01*
X161600001Y-102165687D01*
X161600000Y-104480353D01*
X161598065Y-104500000D01*
X161600000Y-104519646D01*
X161605788Y-104578413D01*
X161628660Y-104653813D01*
X161665803Y-104723302D01*
X161715789Y-104784211D01*
X161731052Y-104796737D01*
X162203267Y-105268953D01*
X162215789Y-105284211D01*
X162231047Y-105296733D01*
X162231049Y-105296735D01*
X162276697Y-105334197D01*
X162346186Y-105371340D01*
X162421586Y-105394212D01*
X162500000Y-105401935D01*
X162519647Y-105400000D01*
X163480353Y-105400000D01*
X163500000Y-105401935D01*
X163519646Y-105400000D01*
X165480354Y-105400000D01*
X165500000Y-105401935D01*
X165519646Y-105400000D01*
X165519647Y-105400000D01*
X165578414Y-105394212D01*
X165653814Y-105371340D01*
X165723303Y-105334197D01*
X165784211Y-105284211D01*
X165796737Y-105268948D01*
X166268953Y-104796733D01*
X166284211Y-104784211D01*
X166296736Y-104768950D01*
X166334197Y-104723303D01*
X166371340Y-104653814D01*
X166394212Y-104578414D01*
X166401935Y-104500000D01*
X166400000Y-104480353D01*
X166400000Y-104448575D01*
X166443158Y-104413157D01*
X166480647Y-104367476D01*
X166508504Y-104315359D01*
X166525659Y-104258809D01*
X166531451Y-104199999D01*
X166531451Y-103100001D01*
X166525659Y-103041191D01*
X166508504Y-102984641D01*
X166480647Y-102932524D01*
X166443158Y-102886843D01*
X166397477Y-102849354D01*
X166345360Y-102821497D01*
X166288810Y-102804342D01*
X166230000Y-102798550D01*
X165770000Y-102798550D01*
X165711190Y-102804342D01*
X165654640Y-102821497D01*
X165602523Y-102849354D01*
X165556842Y-102886843D01*
X165519353Y-102932524D01*
X165491496Y-102984641D01*
X165474341Y-103041191D01*
X165468549Y-103100001D01*
X165468549Y-104199999D01*
X165474341Y-104258809D01*
X165491496Y-104315359D01*
X165519353Y-104367476D01*
X165540757Y-104393557D01*
X165334315Y-104600000D01*
X163900000Y-104600000D01*
X163900000Y-104448575D01*
X163943158Y-104413157D01*
X163980647Y-104367476D01*
X164008504Y-104315359D01*
X164025659Y-104258809D01*
X164031451Y-104199999D01*
X164031451Y-103100001D01*
X164025659Y-103041191D01*
X164008504Y-102984641D01*
X163980647Y-102932524D01*
X163943158Y-102886843D01*
X163897477Y-102849354D01*
X163845360Y-102821497D01*
X163788810Y-102804342D01*
X163730000Y-102798550D01*
X163270000Y-102798550D01*
X163211190Y-102804342D01*
X163154640Y-102821497D01*
X163102523Y-102849354D01*
X163056842Y-102886843D01*
X163019353Y-102932524D01*
X162991496Y-102984641D01*
X162974341Y-103041191D01*
X162968549Y-103100001D01*
X162968549Y-104199999D01*
X162974341Y-104258809D01*
X162991496Y-104315359D01*
X163019353Y-104367476D01*
X163056842Y-104413157D01*
X163100000Y-104448576D01*
X163100000Y-104600000D01*
X162665686Y-104600000D01*
X162400000Y-104334315D01*
X162400000Y-102019647D01*
X162401935Y-102000000D01*
X162397011Y-101950000D01*
X162394212Y-101921586D01*
X162371340Y-101846186D01*
X162334197Y-101776697D01*
X162315743Y-101754211D01*
X162296735Y-101731049D01*
X162296733Y-101731047D01*
X162284211Y-101715789D01*
X162268953Y-101703267D01*
X161796735Y-101231050D01*
X161784211Y-101215789D01*
X161723303Y-101165803D01*
X161653814Y-101128660D01*
X161578414Y-101105788D01*
X161519647Y-101100000D01*
X161519646Y-101100000D01*
X161500000Y-101098065D01*
X161480354Y-101100000D01*
X161151451Y-101100000D01*
X161151451Y-101050000D01*
X161145659Y-100991190D01*
X161128504Y-100934640D01*
X161100647Y-100882523D01*
X161063158Y-100836842D01*
X161017477Y-100799353D01*
X160965360Y-100771496D01*
X160908810Y-100754341D01*
X160850000Y-100748549D01*
X160050000Y-100748549D01*
X159991190Y-100754341D01*
X159934640Y-100771496D01*
X159882523Y-100799353D01*
X159836842Y-100836842D01*
X159799353Y-100882523D01*
X159771496Y-100934640D01*
X159754341Y-100991190D01*
X159748549Y-101050000D01*
X159748549Y-101950000D01*
X156069647Y-101950000D01*
X156050000Y-101948065D01*
X156030353Y-101950000D01*
X155971586Y-101955788D01*
X155896186Y-101978660D01*
X155826697Y-102015803D01*
X155765789Y-102065789D01*
X155753265Y-102081050D01*
X155613904Y-102220411D01*
X155595000Y-102218549D01*
X155325000Y-102218549D01*
X155239853Y-102226935D01*
X155157977Y-102251772D01*
X155082521Y-102292104D01*
X155016383Y-102346383D01*
X154962104Y-102412521D01*
X154921772Y-102487977D01*
X154896935Y-102569853D01*
X154888549Y-102655000D01*
X154888549Y-102719518D01*
X154875788Y-102761586D01*
X154868065Y-102840000D01*
X154875788Y-102918414D01*
X154888549Y-102960482D01*
X154888549Y-103025000D01*
X154896935Y-103110147D01*
X154921772Y-103192023D01*
X154962104Y-103267479D01*
X155016383Y-103333617D01*
X155082521Y-103387896D01*
X155157977Y-103428228D01*
X155239853Y-103453065D01*
X155325000Y-103461451D01*
X155595000Y-103461451D01*
X155680147Y-103453065D01*
X155762023Y-103428228D01*
X155837479Y-103387896D01*
X155903617Y-103333617D01*
X155957896Y-103267479D01*
X155998228Y-103192023D01*
X156023065Y-103110147D01*
X156031451Y-103025000D01*
X156031451Y-102934234D01*
X156215685Y-102750000D01*
X159085267Y-102750000D01*
X159041190Y-102754341D01*
X158984640Y-102771496D01*
X158932523Y-102799353D01*
X158886842Y-102836842D01*
X158849353Y-102882523D01*
X158821496Y-102934640D01*
X158804341Y-102991190D01*
X158798549Y-103050000D01*
X158798549Y-103100000D01*
X158269635Y-103100000D01*
X158249999Y-103098066D01*
X158230363Y-103100000D01*
X158230353Y-103100000D01*
X158171586Y-103105788D01*
X158096186Y-103128660D01*
X158026697Y-103165803D01*
X158026695Y-103165804D01*
X158026696Y-103165804D01*
X157981049Y-103203265D01*
X157981047Y-103203267D01*
X157965789Y-103215789D01*
X157953267Y-103231047D01*
X157231052Y-103953263D01*
X157215789Y-103965789D01*
X157165803Y-104026698D01*
X157128660Y-104096187D01*
X157111750Y-104151934D01*
X157105788Y-104171587D01*
X157098065Y-104250000D01*
X157100000Y-104269646D01*
X157100001Y-108334313D01*
X156570751Y-108863564D01*
X156522763Y-108837914D01*
X156438074Y-108812224D01*
X156350000Y-108803549D01*
X154700000Y-108803549D01*
X154611926Y-108812224D01*
X154527237Y-108837914D01*
X154449187Y-108879632D01*
X154380776Y-108935776D01*
X154324632Y-109004187D01*
X154324197Y-109005000D01*
X153864635Y-109005000D01*
X153844999Y-109003066D01*
X153825363Y-109005000D01*
X153825353Y-109005000D01*
X153766586Y-109010788D01*
X153691186Y-109033660D01*
X153621697Y-109070803D01*
X153586120Y-109100000D01*
X153522584Y-109100000D01*
X153507896Y-109072521D01*
X153453617Y-109006383D01*
X153387479Y-108952104D01*
X153312023Y-108911772D01*
X153230147Y-108886935D01*
X153145000Y-108878549D01*
X152875000Y-108878549D01*
X152789853Y-108886935D01*
X152707977Y-108911772D01*
X152632521Y-108952104D01*
X152566383Y-109006383D01*
X152512104Y-109072521D01*
X152500000Y-109095166D01*
X152487896Y-109072521D01*
X152433617Y-109006383D01*
X152367479Y-108952104D01*
X152292023Y-108911772D01*
X152210147Y-108886935D01*
X152125000Y-108878549D01*
X151855000Y-108878549D01*
X151769853Y-108886935D01*
X151758267Y-108890450D01*
X151744990Y-108877173D01*
X151744990Y-105852426D01*
X151752969Y-105826123D01*
X151761451Y-105740000D01*
X151761451Y-105400000D01*
X151752969Y-105313877D01*
X151727848Y-105231064D01*
X151687053Y-105154743D01*
X151632153Y-105087847D01*
X151565257Y-105032947D01*
X151488936Y-104992152D01*
X151406123Y-104967031D01*
X151320000Y-104958549D01*
X151040000Y-104958549D01*
X150953877Y-104967031D01*
X150871064Y-104992152D01*
X150794743Y-105032947D01*
X150780056Y-105045000D01*
X150254729Y-105045000D01*
X150222763Y-105027914D01*
X150138074Y-105002224D01*
X150050000Y-104993549D01*
X148400000Y-104993549D01*
X148311926Y-105002224D01*
X148227237Y-105027914D01*
X148195271Y-105045000D01*
X147841834Y-105045000D01*
X147736574Y-104974668D01*
X147609182Y-104921901D01*
X147473944Y-104895000D01*
X147336056Y-104895000D01*
X147200818Y-104921901D01*
X147073426Y-104974668D01*
X146958776Y-105051274D01*
X146861274Y-105148776D01*
X146784668Y-105263426D01*
X146731901Y-105390818D01*
X146705000Y-105526056D01*
X146560000Y-105526056D01*
X146560000Y-104579413D01*
X146603617Y-104543617D01*
X146657896Y-104477479D01*
X146698228Y-104402023D01*
X146723065Y-104320147D01*
X146731451Y-104235000D01*
X146731451Y-103865000D01*
X146723065Y-103779853D01*
X146698228Y-103697977D01*
X146657896Y-103622521D01*
X146603617Y-103556383D01*
X146560000Y-103520587D01*
X146560000Y-103417930D01*
X146596224Y-103393726D01*
X146693726Y-103296224D01*
X146770332Y-103181574D01*
X146823099Y-103054182D01*
X146850000Y-102918944D01*
X146850000Y-102781056D01*
X146823099Y-102645818D01*
X146770332Y-102518426D01*
X146693726Y-102403776D01*
X146689950Y-102400000D01*
X147480354Y-102400000D01*
X147500000Y-102401935D01*
X147519646Y-102400000D01*
X147519647Y-102400000D01*
X147578414Y-102394212D01*
X147653814Y-102371340D01*
X147723303Y-102334197D01*
X147784211Y-102284211D01*
X147796737Y-102268948D01*
X148258948Y-101806737D01*
X148274211Y-101794211D01*
X148324197Y-101733303D01*
X148361340Y-101663814D01*
X148384212Y-101588414D01*
X148390000Y-101529647D01*
X148390025Y-101529393D01*
X148433617Y-101493617D01*
X148487896Y-101427479D01*
X148500000Y-101404834D01*
X148512104Y-101427479D01*
X148566383Y-101493617D01*
X148632521Y-101547896D01*
X148707977Y-101588228D01*
X148789853Y-101613065D01*
X148875000Y-101621451D01*
X149145000Y-101621451D01*
X149230147Y-101613065D01*
X149312023Y-101588228D01*
X149387479Y-101547896D01*
X149453617Y-101493617D01*
X149507896Y-101427479D01*
X149548228Y-101352023D01*
X149573065Y-101270147D01*
X149581451Y-101185000D01*
X149581451Y-100815000D01*
X149573065Y-100729853D01*
X149548228Y-100647977D01*
X149507896Y-100572521D01*
X149453617Y-100506383D01*
X149422757Y-100481056D01*
X149830000Y-100481056D01*
X149830000Y-100618944D01*
X149856901Y-100754182D01*
X149909668Y-100881574D01*
X149986274Y-100996224D01*
X150083776Y-101093726D01*
X150130001Y-101124612D01*
X150130000Y-103520353D01*
X150128065Y-103540000D01*
X150130000Y-103559646D01*
X150135788Y-103618413D01*
X150158660Y-103693813D01*
X150195803Y-103763302D01*
X150245789Y-103824211D01*
X150261052Y-103836737D01*
X150853263Y-104428948D01*
X150865789Y-104444211D01*
X150926697Y-104494197D01*
X150996186Y-104531340D01*
X151071586Y-104554212D01*
X151130353Y-104560000D01*
X151130363Y-104560000D01*
X151149999Y-104561934D01*
X151169635Y-104560000D01*
X152604315Y-104560000D01*
X153500001Y-105455687D01*
X153500000Y-106080353D01*
X153498065Y-106100000D01*
X153500000Y-106119646D01*
X153500001Y-106119656D01*
X153500000Y-106830352D01*
X153498065Y-106850000D01*
X153500000Y-106869647D01*
X153500000Y-106919646D01*
X153500001Y-106919656D01*
X153500000Y-107580353D01*
X153498065Y-107600000D01*
X153500000Y-107619646D01*
X153505788Y-107678413D01*
X153528660Y-107753813D01*
X153565803Y-107823302D01*
X153615789Y-107884211D01*
X153631052Y-107896737D01*
X154138267Y-108403953D01*
X154150789Y-108419211D01*
X154166047Y-108431733D01*
X154166049Y-108431735D01*
X154169049Y-108434197D01*
X154211697Y-108469197D01*
X154281186Y-108506340D01*
X154314237Y-108516366D01*
X154324632Y-108535813D01*
X154380776Y-108604224D01*
X154449187Y-108660368D01*
X154527237Y-108702086D01*
X154611926Y-108727776D01*
X154700000Y-108736451D01*
X156350000Y-108736451D01*
X156438074Y-108727776D01*
X156522763Y-108702086D01*
X156600813Y-108660368D01*
X156669224Y-108604224D01*
X156725368Y-108535813D01*
X156767086Y-108457763D01*
X156792776Y-108373074D01*
X156801451Y-108285000D01*
X156801451Y-107985000D01*
X156792776Y-107896926D01*
X156767086Y-107812237D01*
X156725368Y-107734187D01*
X156669224Y-107665776D01*
X156600813Y-107609632D01*
X156522763Y-107567914D01*
X156438074Y-107542224D01*
X156350000Y-107533549D01*
X154700000Y-107533549D01*
X154611926Y-107542224D01*
X154527237Y-107567914D01*
X154466216Y-107600530D01*
X154300000Y-107434315D01*
X154300000Y-107250000D01*
X154316180Y-107250000D01*
X154324632Y-107265813D01*
X154380776Y-107334224D01*
X154449187Y-107390368D01*
X154527237Y-107432086D01*
X154611926Y-107457776D01*
X154700000Y-107466451D01*
X156350000Y-107466451D01*
X156438074Y-107457776D01*
X156522763Y-107432086D01*
X156600813Y-107390368D01*
X156669224Y-107334224D01*
X156725368Y-107265813D01*
X156767086Y-107187763D01*
X156792776Y-107103074D01*
X156801451Y-107015000D01*
X156801451Y-106715000D01*
X156792776Y-106626926D01*
X156767086Y-106542237D01*
X156725368Y-106464187D01*
X156669224Y-106395776D01*
X156600813Y-106339632D01*
X156522763Y-106297914D01*
X156438074Y-106272224D01*
X156350000Y-106263549D01*
X154700000Y-106263549D01*
X154611926Y-106272224D01*
X154527237Y-106297914D01*
X154449187Y-106339632D01*
X154380776Y-106395776D01*
X154336275Y-106450000D01*
X154300000Y-106450000D01*
X154300000Y-106265685D01*
X154447062Y-106118624D01*
X154449187Y-106120368D01*
X154527237Y-106162086D01*
X154611926Y-106187776D01*
X154700000Y-106196451D01*
X156350000Y-106196451D01*
X156438074Y-106187776D01*
X156522763Y-106162086D01*
X156600813Y-106120368D01*
X156669224Y-106064224D01*
X156725368Y-105995813D01*
X156767086Y-105917763D01*
X156792776Y-105833074D01*
X156801451Y-105745000D01*
X156801451Y-105445000D01*
X156792776Y-105356926D01*
X156767086Y-105272237D01*
X156725368Y-105194187D01*
X156669224Y-105125776D01*
X156600813Y-105069632D01*
X156522763Y-105027914D01*
X156438074Y-105002224D01*
X156350000Y-104993549D01*
X154700000Y-104993549D01*
X154611926Y-105002224D01*
X154527237Y-105027914D01*
X154449187Y-105069632D01*
X154380776Y-105125776D01*
X154324632Y-105194187D01*
X154320043Y-105202773D01*
X154293940Y-105210691D01*
X154271340Y-105136186D01*
X154234197Y-105066697D01*
X154206499Y-105032947D01*
X154196735Y-105021049D01*
X154196733Y-105021047D01*
X154184211Y-105005789D01*
X154168953Y-104993267D01*
X153066737Y-103891052D01*
X153054211Y-103875789D01*
X152993303Y-103825803D01*
X152923814Y-103788660D01*
X152848414Y-103765788D01*
X152789647Y-103760000D01*
X152789646Y-103760000D01*
X152770000Y-103758065D01*
X152750354Y-103760000D01*
X151315685Y-103760000D01*
X150930000Y-103374315D01*
X150930000Y-101124612D01*
X150976224Y-101093726D01*
X151073726Y-100996224D01*
X151150332Y-100881574D01*
X151203099Y-100754182D01*
X151230000Y-100618944D01*
X151230000Y-100481056D01*
X151203099Y-100345818D01*
X151150332Y-100218426D01*
X151073726Y-100103776D01*
X150976224Y-100006274D01*
X150861574Y-99929668D01*
X150734182Y-99876901D01*
X150598944Y-99850000D01*
X150461056Y-99850000D01*
X150325818Y-99876901D01*
X150198426Y-99929668D01*
X150083776Y-100006274D01*
X149986274Y-100103776D01*
X149909668Y-100218426D01*
X149856901Y-100345818D01*
X149830000Y-100481056D01*
X149422757Y-100481056D01*
X149410000Y-100470587D01*
X149410000Y-100329635D01*
X149411934Y-100309999D01*
X149410000Y-100290363D01*
X149410000Y-100290353D01*
X149406026Y-100250000D01*
X149430354Y-100250000D01*
X149450000Y-100251935D01*
X149469646Y-100250000D01*
X149469647Y-100250000D01*
X149528414Y-100244212D01*
X149603814Y-100221340D01*
X149673303Y-100184197D01*
X149734211Y-100134211D01*
X149746737Y-100118948D01*
X150858948Y-99006737D01*
X150874211Y-98994211D01*
X150924197Y-98933303D01*
X150961340Y-98863814D01*
X150984212Y-98788414D01*
X150990000Y-98729647D01*
X150990000Y-98729637D01*
X150991934Y-98710001D01*
X150990000Y-98690365D01*
X150990000Y-98524954D01*
X151042153Y-98482153D01*
X151070000Y-98448221D01*
X151097847Y-98482153D01*
X151164743Y-98537053D01*
X151241064Y-98577848D01*
X151323877Y-98602969D01*
X151410000Y-98611451D01*
X151690000Y-98611451D01*
X151776123Y-98602969D01*
X151858936Y-98577848D01*
X151935257Y-98537053D01*
X151980406Y-98500000D01*
X152075440Y-98500000D01*
X152100000Y-98502419D01*
X152124560Y-98500000D01*
X152198017Y-98492765D01*
X152292267Y-98464175D01*
X152379129Y-98417746D01*
X152432469Y-98373971D01*
X153615000Y-98373971D01*
X153615000Y-98566029D01*
X153652468Y-98754397D01*
X153725966Y-98931836D01*
X153832668Y-99091527D01*
X153968473Y-99227332D01*
X154128164Y-99334034D01*
X154305603Y-99407532D01*
X154493971Y-99445000D01*
X154686029Y-99445000D01*
X154874397Y-99407532D01*
X155051836Y-99334034D01*
X155211527Y-99227332D01*
X155347332Y-99091527D01*
X155454034Y-98931836D01*
X155527532Y-98754397D01*
X155565000Y-98566029D01*
X155565000Y-98373971D01*
X155527532Y-98185603D01*
X155454034Y-98008164D01*
X155347332Y-97848473D01*
X155211527Y-97712668D01*
X155051836Y-97605966D01*
X154874397Y-97532468D01*
X154686029Y-97495000D01*
X154493971Y-97495000D01*
X154305603Y-97532468D01*
X154128164Y-97605966D01*
X153968473Y-97712668D01*
X153832668Y-97848473D01*
X153725966Y-98008164D01*
X153652468Y-98185603D01*
X153615000Y-98373971D01*
X152432469Y-98373971D01*
X152455264Y-98355264D01*
X152470929Y-98336176D01*
X152881181Y-97925925D01*
X152900264Y-97910264D01*
X152962746Y-97834129D01*
X153009175Y-97747267D01*
X153029820Y-97679210D01*
X153037765Y-97653018D01*
X153047419Y-97555001D01*
X153045000Y-97530441D01*
X153045000Y-96265000D01*
X153260440Y-96265000D01*
X153285000Y-96267419D01*
X153309560Y-96265000D01*
X153383017Y-96257765D01*
X153477267Y-96229175D01*
X153564129Y-96182746D01*
X153640264Y-96120264D01*
X153655929Y-96101176D01*
X153709720Y-96047385D01*
X153652468Y-96185603D01*
X153615000Y-96373971D01*
X153615000Y-96566029D01*
X153652468Y-96754397D01*
X153725966Y-96931836D01*
X153832668Y-97091527D01*
X153968473Y-97227332D01*
X154128164Y-97334034D01*
X154305603Y-97407532D01*
X154493971Y-97445000D01*
X154686029Y-97445000D01*
X154874397Y-97407532D01*
X155051836Y-97334034D01*
X155211527Y-97227332D01*
X155347332Y-97091527D01*
X155454034Y-96931836D01*
X155527532Y-96754397D01*
X155565000Y-96566029D01*
X155565000Y-96373971D01*
X155527532Y-96185603D01*
X155454034Y-96008164D01*
X155347332Y-95848473D01*
X155211527Y-95712668D01*
X155051836Y-95605966D01*
X154874397Y-95532468D01*
X154686029Y-95495000D01*
X154493971Y-95495000D01*
X154305603Y-95532468D01*
X154167386Y-95589720D01*
X154281181Y-95475925D01*
X154300264Y-95460264D01*
X154311600Y-95446451D01*
X155265000Y-95446451D01*
X155323810Y-95440659D01*
X155380360Y-95423504D01*
X155432477Y-95395647D01*
X155478158Y-95358158D01*
X155515647Y-95312477D01*
X155543504Y-95260360D01*
X155560659Y-95203810D01*
X155566451Y-95145000D01*
X155566451Y-94325000D01*
X157023549Y-94325000D01*
X157023549Y-95675000D01*
X157029341Y-95733810D01*
X157046496Y-95790360D01*
X157074353Y-95842477D01*
X157111842Y-95888158D01*
X157157523Y-95925647D01*
X157209640Y-95953504D01*
X157266190Y-95970659D01*
X157325000Y-95976451D01*
X158675000Y-95976451D01*
X158733810Y-95970659D01*
X158790360Y-95953504D01*
X158842477Y-95925647D01*
X158888158Y-95888158D01*
X158925647Y-95842477D01*
X158953504Y-95790360D01*
X158970659Y-95733810D01*
X158976451Y-95675000D01*
X158976451Y-95400000D01*
X159084315Y-95400000D01*
X159350000Y-95665686D01*
X159350001Y-98230344D01*
X159348065Y-98250000D01*
X159355788Y-98328413D01*
X159378661Y-98403814D01*
X159415803Y-98473302D01*
X159453265Y-98518950D01*
X159453268Y-98518953D01*
X159465790Y-98534211D01*
X159481048Y-98546733D01*
X161203263Y-100268948D01*
X161215789Y-100284211D01*
X161245629Y-100308700D01*
X161276697Y-100334197D01*
X161346186Y-100371340D01*
X161421586Y-100394212D01*
X161500000Y-100401935D01*
X161519647Y-100400000D01*
X163084315Y-100400000D01*
X163100000Y-100415685D01*
X163100000Y-100551424D01*
X163056842Y-100586843D01*
X163019353Y-100632524D01*
X162991496Y-100684641D01*
X162974341Y-100741191D01*
X162968549Y-100800001D01*
X162968549Y-101899999D01*
X162974341Y-101958809D01*
X162991496Y-102015359D01*
X163019353Y-102067476D01*
X163056842Y-102113157D01*
X163102523Y-102150646D01*
X163154640Y-102178503D01*
X163211190Y-102195658D01*
X163270000Y-102201450D01*
X163730000Y-102201450D01*
X163788810Y-102195658D01*
X163845360Y-102178503D01*
X163897477Y-102150646D01*
X163943158Y-102113157D01*
X163980647Y-102067476D01*
X164008504Y-102015359D01*
X164025659Y-101958809D01*
X164031451Y-101899999D01*
X164031451Y-100800001D01*
X164025659Y-100741191D01*
X164008504Y-100684641D01*
X163980647Y-100632524D01*
X163943158Y-100586843D01*
X163900000Y-100551425D01*
X163900000Y-100269635D01*
X163901934Y-100249999D01*
X163900000Y-100230363D01*
X163900000Y-100230353D01*
X163894212Y-100171586D01*
X163871340Y-100096186D01*
X163834197Y-100026697D01*
X163784211Y-99965789D01*
X163768944Y-99953260D01*
X163546735Y-99731050D01*
X163534211Y-99715789D01*
X163473303Y-99665803D01*
X163403814Y-99628660D01*
X163328414Y-99605788D01*
X163269647Y-99600000D01*
X163269646Y-99600000D01*
X163250000Y-99598065D01*
X163230354Y-99600000D01*
X161665685Y-99600000D01*
X160150000Y-98084315D01*
X160150000Y-95519647D01*
X160151935Y-95500000D01*
X160149770Y-95478013D01*
X160144212Y-95421586D01*
X160121340Y-95346186D01*
X160084197Y-95276697D01*
X160064273Y-95252419D01*
X160046735Y-95231049D01*
X160046733Y-95231047D01*
X160034211Y-95215789D01*
X160018954Y-95203268D01*
X159546737Y-94731052D01*
X159534211Y-94715789D01*
X159473303Y-94665803D01*
X159403814Y-94628660D01*
X159328414Y-94605788D01*
X159269647Y-94600000D01*
X159269646Y-94600000D01*
X159250000Y-94598065D01*
X159230354Y-94600000D01*
X158976451Y-94600000D01*
X158976451Y-94325000D01*
X160523549Y-94325000D01*
X160523549Y-95675000D01*
X160529341Y-95733810D01*
X160546496Y-95790360D01*
X160574353Y-95842477D01*
X160611842Y-95888158D01*
X160657523Y-95925647D01*
X160709640Y-95953504D01*
X160766190Y-95970659D01*
X160825000Y-95976451D01*
X162175000Y-95976451D01*
X162233810Y-95970659D01*
X162290360Y-95953504D01*
X162342477Y-95925647D01*
X162388158Y-95888158D01*
X162425647Y-95842477D01*
X162453504Y-95790360D01*
X162470659Y-95733810D01*
X162476451Y-95675000D01*
X162476451Y-95542136D01*
X165600000Y-98665685D01*
X165600001Y-100551424D01*
X165556842Y-100586843D01*
X165519353Y-100632524D01*
X165491496Y-100684641D01*
X165474341Y-100741191D01*
X165468549Y-100800001D01*
X165468549Y-101899999D01*
X165474341Y-101958809D01*
X165491496Y-102015359D01*
X165519353Y-102067476D01*
X165556842Y-102113157D01*
X165602523Y-102150646D01*
X165654640Y-102178503D01*
X165711190Y-102195658D01*
X165770000Y-102201450D01*
X166230000Y-102201450D01*
X166288810Y-102195658D01*
X166345360Y-102178503D01*
X166397477Y-102150646D01*
X166443158Y-102113157D01*
X166480647Y-102067476D01*
X166508504Y-102015359D01*
X166525659Y-101958809D01*
X166531451Y-101899999D01*
X166531451Y-100800001D01*
X166525659Y-100741191D01*
X166508504Y-100684641D01*
X166480647Y-100632524D01*
X166443158Y-100586843D01*
X166400000Y-100551425D01*
X166400000Y-98519635D01*
X166401934Y-98499999D01*
X166400000Y-98480363D01*
X166400000Y-98480353D01*
X166394212Y-98421586D01*
X166371340Y-98346186D01*
X166334197Y-98276697D01*
X166284211Y-98215789D01*
X166268949Y-98203264D01*
X162796737Y-94731052D01*
X162784211Y-94715789D01*
X162723303Y-94665803D01*
X162653814Y-94628660D01*
X162578414Y-94605788D01*
X162519647Y-94600000D01*
X162519646Y-94600000D01*
X162500000Y-94598065D01*
X162480354Y-94600000D01*
X162476451Y-94600000D01*
X162476451Y-94325000D01*
X162470659Y-94266190D01*
X162453504Y-94209640D01*
X162425647Y-94157523D01*
X162388158Y-94111842D01*
X162342477Y-94074353D01*
X162290360Y-94046496D01*
X162233810Y-94029341D01*
X162175000Y-94023549D01*
X160825000Y-94023549D01*
X160766190Y-94029341D01*
X160709640Y-94046496D01*
X160657523Y-94074353D01*
X160611842Y-94111842D01*
X160574353Y-94157523D01*
X160546496Y-94209640D01*
X160529341Y-94266190D01*
X160523549Y-94325000D01*
X158976451Y-94325000D01*
X158970659Y-94266190D01*
X158953504Y-94209640D01*
X158925647Y-94157523D01*
X158888158Y-94111842D01*
X158842477Y-94074353D01*
X158790360Y-94046496D01*
X158733810Y-94029341D01*
X158675000Y-94023549D01*
X157325000Y-94023549D01*
X157266190Y-94029341D01*
X157209640Y-94046496D01*
X157157523Y-94074353D01*
X157111842Y-94111842D01*
X157074353Y-94157523D01*
X157046496Y-94209640D01*
X157029341Y-94266190D01*
X157023549Y-94325000D01*
X155566451Y-94325000D01*
X155566451Y-93795000D01*
X155560659Y-93736190D01*
X155543504Y-93679640D01*
X155515647Y-93627523D01*
X155478158Y-93581842D01*
X155432477Y-93544353D01*
X155380360Y-93516496D01*
X155323810Y-93499341D01*
X155265000Y-93493549D01*
X154300654Y-93493549D01*
X154255929Y-93448824D01*
X154240264Y-93429736D01*
X154164129Y-93367254D01*
X154077267Y-93320825D01*
X153983017Y-93292235D01*
X153909560Y-93285000D01*
X153885000Y-93282581D01*
X153860440Y-93285000D01*
X151770117Y-93285000D01*
X151730000Y-93281049D01*
X150740000Y-93281049D01*
X150681190Y-93286841D01*
X150624640Y-93303996D01*
X150572523Y-93331853D01*
X150543040Y-93356049D01*
X149495000Y-93356049D01*
X149436190Y-93361841D01*
X149379640Y-93378996D01*
X149327523Y-93406853D01*
X149281842Y-93444342D01*
X149244353Y-93490023D01*
X149216496Y-93542140D01*
X149199341Y-93598690D01*
X149193549Y-93657500D01*
X149193549Y-95892500D01*
X149199341Y-95951310D01*
X149216496Y-96007860D01*
X149244353Y-96059977D01*
X149281842Y-96105658D01*
X149327523Y-96143147D01*
X149379640Y-96171004D01*
X149436190Y-96188159D01*
X149495000Y-96193951D01*
X150543040Y-96193951D01*
X150572523Y-96218147D01*
X150624640Y-96246004D01*
X150681190Y-96263159D01*
X150740000Y-96268951D01*
X151730000Y-96268951D01*
X151770117Y-96265000D01*
X152045001Y-96265000D01*
X152045000Y-97347894D01*
X151931797Y-97461098D01*
X151858936Y-97422152D01*
X151776123Y-97397031D01*
X151690000Y-97388549D01*
X151410000Y-97388549D01*
X151323877Y-97397031D01*
X151241064Y-97422152D01*
X151164743Y-97462947D01*
X151097847Y-97517847D01*
X151070000Y-97551779D01*
X151042153Y-97517847D01*
X150975257Y-97462947D01*
X150898936Y-97422152D01*
X150816123Y-97397031D01*
X150730000Y-97388549D01*
X150450000Y-97388549D01*
X150363877Y-97397031D01*
X150281064Y-97422152D01*
X150204743Y-97462947D01*
X150137847Y-97517847D01*
X150082947Y-97584743D01*
X150042152Y-97661064D01*
X150017031Y-97743877D01*
X150008549Y-97830000D01*
X150008549Y-98170000D01*
X150017031Y-98256123D01*
X150042152Y-98338936D01*
X150082947Y-98415257D01*
X150137847Y-98482153D01*
X150190001Y-98524954D01*
X150190001Y-98544314D01*
X149284315Y-99450000D01*
X148569646Y-99450000D01*
X148550000Y-99448065D01*
X148530354Y-99450000D01*
X148212003Y-99450000D01*
X148296224Y-99393726D01*
X148393726Y-99296224D01*
X148470332Y-99181574D01*
X148523099Y-99054182D01*
X148550000Y-98918944D01*
X148550000Y-98781056D01*
X148523099Y-98645818D01*
X148470332Y-98518426D01*
X148393726Y-98403776D01*
X148296224Y-98306274D01*
X148250000Y-98275388D01*
X148250000Y-97982584D01*
X148277479Y-97967896D01*
X148343617Y-97913617D01*
X148397896Y-97847479D01*
X148438228Y-97772023D01*
X148463065Y-97690147D01*
X148471451Y-97605000D01*
X148471451Y-97235000D01*
X148463065Y-97149853D01*
X148438228Y-97067977D01*
X148397896Y-96992521D01*
X148343617Y-96926383D01*
X148277479Y-96872104D01*
X148202023Y-96831772D01*
X148120147Y-96806935D01*
X148035000Y-96798549D01*
X147951358Y-96798549D01*
X147940000Y-96787191D01*
X147940000Y-96268951D01*
X148860000Y-96268951D01*
X148918810Y-96263159D01*
X148975360Y-96246004D01*
X149027477Y-96218147D01*
X149073158Y-96180658D01*
X149110647Y-96134977D01*
X149138504Y-96082860D01*
X149155659Y-96026310D01*
X149161451Y-95967500D01*
X149161451Y-95562500D01*
X149155659Y-95503690D01*
X149138504Y-95447140D01*
X149132015Y-95435000D01*
X149138504Y-95422860D01*
X149155659Y-95366310D01*
X149161451Y-95307500D01*
X149161451Y-94902500D01*
X149155659Y-94843690D01*
X149138504Y-94787140D01*
X149132015Y-94775000D01*
X149138504Y-94762860D01*
X149155659Y-94706310D01*
X149161451Y-94647500D01*
X149161451Y-94242500D01*
X149155659Y-94183690D01*
X149138504Y-94127140D01*
X149132015Y-94115000D01*
X149138504Y-94102860D01*
X149155659Y-94046310D01*
X149161451Y-93987500D01*
X149161451Y-93582500D01*
X149155659Y-93523690D01*
X149138504Y-93467140D01*
X149110647Y-93415023D01*
X149073158Y-93369342D01*
X149027477Y-93331853D01*
X148975360Y-93303996D01*
X148918810Y-93286841D01*
X148860000Y-93281049D01*
X147870000Y-93281049D01*
X147829883Y-93285000D01*
X146872511Y-93285000D01*
X146865855Y-93217416D01*
X146834474Y-93113968D01*
X146783515Y-93018630D01*
X146714935Y-92935065D01*
X146631370Y-92866485D01*
X146536032Y-92815526D01*
X146432584Y-92784145D01*
X146325001Y-92773549D01*
X145474999Y-92773549D01*
X145367416Y-92784145D01*
X145263968Y-92815526D01*
X145168630Y-92866485D01*
X145085065Y-92935065D01*
X145016485Y-93018630D01*
X144965526Y-93113968D01*
X144934145Y-93217416D01*
X144923549Y-93324999D01*
X144923549Y-96175001D01*
X144934145Y-96282584D01*
X144965526Y-96386032D01*
X145016485Y-96481370D01*
X145085065Y-96564935D01*
X145168630Y-96633515D01*
X145263968Y-96684474D01*
X145350001Y-96710572D01*
X145350001Y-96752982D01*
X145347340Y-96780000D01*
X145350001Y-96807018D01*
X145356204Y-96870000D01*
X144597007Y-96870000D01*
X144569999Y-96867340D01*
X144542991Y-96870000D01*
X144542982Y-96870000D01*
X144462181Y-96877958D01*
X144358506Y-96909408D01*
X144326748Y-96926383D01*
X144262957Y-96960479D01*
X144200195Y-97011987D01*
X144200190Y-97011992D01*
X144179210Y-97029210D01*
X144161992Y-97050190D01*
X140580196Y-100631987D01*
X140559210Y-100649210D01*
X140490479Y-100732958D01*
X140439408Y-100828507D01*
X140407958Y-100932182D01*
X140400000Y-101012983D01*
X140400000Y-101012992D01*
X140397340Y-101040000D01*
X140400000Y-101067008D01*
X140400001Y-104298549D01*
X140300000Y-104298549D01*
X140241190Y-104304341D01*
X140184640Y-104321496D01*
X140132523Y-104349353D01*
X140086842Y-104386842D01*
X140049353Y-104432523D01*
X140021496Y-104484640D01*
X140004341Y-104541190D01*
X139998549Y-104600000D01*
X139601451Y-104600000D01*
X139595659Y-104541190D01*
X139578504Y-104484640D01*
X139550647Y-104432523D01*
X139513158Y-104386842D01*
X139467477Y-104349353D01*
X139415360Y-104321496D01*
X139358810Y-104304341D01*
X139300000Y-104298549D01*
X139050000Y-104298549D01*
X139050000Y-104171206D01*
X139083617Y-104143617D01*
X139137896Y-104077479D01*
X139178228Y-104002023D01*
X139203065Y-103920147D01*
X139211451Y-103835000D01*
X139211451Y-103465000D01*
X139203065Y-103379853D01*
X139178228Y-103297977D01*
X139137896Y-103222521D01*
X139083617Y-103156383D01*
X139017479Y-103102104D01*
X138942023Y-103061772D01*
X138860147Y-103036935D01*
X138775000Y-103028549D01*
X138584234Y-103028549D01*
X138406738Y-102851053D01*
X138394212Y-102835790D01*
X138333304Y-102785804D01*
X138263815Y-102748661D01*
X138188415Y-102725789D01*
X138129648Y-102720001D01*
X138129647Y-102720001D01*
X138110001Y-102718066D01*
X138090355Y-102720001D01*
X136304611Y-102720001D01*
X136350332Y-102651574D01*
X136403099Y-102524182D01*
X136430000Y-102388944D01*
X136430000Y-102251056D01*
X136403099Y-102115818D01*
X136350332Y-101988426D01*
X136273726Y-101873776D01*
X136176224Y-101776274D01*
X136061574Y-101699668D01*
X135934182Y-101646901D01*
X135798944Y-101620000D01*
X135661056Y-101620000D01*
X135525818Y-101646901D01*
X135398426Y-101699668D01*
X135283776Y-101776274D01*
X135186274Y-101873776D01*
X135155388Y-101920000D01*
X134125686Y-101920000D01*
X133969243Y-101763557D01*
X133990647Y-101737476D01*
X134018504Y-101685359D01*
X134035659Y-101628809D01*
X134041451Y-101569999D01*
X134041451Y-101431056D01*
X138770000Y-101431056D01*
X138770000Y-101568944D01*
X138796901Y-101704182D01*
X138849668Y-101831574D01*
X138926274Y-101946224D01*
X139023776Y-102043726D01*
X139138426Y-102120332D01*
X139265818Y-102173099D01*
X139401056Y-102200000D01*
X139538944Y-102200000D01*
X139674182Y-102173099D01*
X139801574Y-102120332D01*
X139916224Y-102043726D01*
X140013726Y-101946224D01*
X140090332Y-101831574D01*
X140143099Y-101704182D01*
X140170000Y-101568944D01*
X140170000Y-101431056D01*
X140143099Y-101295818D01*
X140090332Y-101168426D01*
X140013726Y-101053776D01*
X139916224Y-100956274D01*
X139900000Y-100945434D01*
X139900000Y-100487620D01*
X139953617Y-100443617D01*
X140007896Y-100377479D01*
X140048228Y-100302023D01*
X140073065Y-100220147D01*
X140081451Y-100135000D01*
X140081451Y-99765000D01*
X140073065Y-99679853D01*
X140048228Y-99597977D01*
X140007896Y-99522521D01*
X139953617Y-99456383D01*
X139887479Y-99402104D01*
X139812023Y-99361772D01*
X139730147Y-99336935D01*
X139645000Y-99328549D01*
X139375000Y-99328549D01*
X139289853Y-99336935D01*
X139207977Y-99361772D01*
X139132521Y-99402104D01*
X139066383Y-99456383D01*
X139012104Y-99522521D01*
X138971772Y-99597977D01*
X138946935Y-99679853D01*
X138938549Y-99765000D01*
X138938549Y-100135000D01*
X138946935Y-100220147D01*
X138971772Y-100302023D01*
X139012104Y-100377479D01*
X139066383Y-100443617D01*
X139100000Y-100471207D01*
X139100001Y-100905343D01*
X139023776Y-100956274D01*
X138926274Y-101053776D01*
X138849668Y-101168426D01*
X138796901Y-101295818D01*
X138770000Y-101431056D01*
X134041451Y-101431056D01*
X134041451Y-100470001D01*
X134035659Y-100411191D01*
X134018504Y-100354641D01*
X133990647Y-100302524D01*
X133953158Y-100256843D01*
X133907477Y-100219354D01*
X133855360Y-100191497D01*
X133798810Y-100174342D01*
X133740000Y-100168550D01*
X133280000Y-100168550D01*
X133221190Y-100174342D01*
X133164640Y-100191497D01*
X133112523Y-100219354D01*
X133066842Y-100256843D01*
X133029353Y-100302524D01*
X133001496Y-100354641D01*
X132984341Y-100411191D01*
X132978549Y-100470001D01*
X132978549Y-101569999D01*
X132984341Y-101628809D01*
X133001496Y-101685359D01*
X133029353Y-101737476D01*
X133066842Y-101783157D01*
X133110000Y-101818575D01*
X133110000Y-101850354D01*
X133108065Y-101870000D01*
X133110000Y-101889646D01*
X133115788Y-101948413D01*
X133138660Y-102023813D01*
X133158003Y-102060000D01*
X130066747Y-102060000D01*
X130032153Y-102017847D01*
X129965257Y-101962947D01*
X129890000Y-101922721D01*
X129890000Y-101748575D01*
X129933158Y-101713157D01*
X129970647Y-101667476D01*
X129998504Y-101615359D01*
X130015659Y-101558809D01*
X130021451Y-101499999D01*
X130021451Y-100400001D01*
X130015659Y-100341191D01*
X129998504Y-100284641D01*
X129970647Y-100232524D01*
X129933158Y-100186843D01*
X129887477Y-100149354D01*
X129835360Y-100121497D01*
X129778810Y-100104342D01*
X129720000Y-100098550D01*
X129260000Y-100098550D01*
X129201190Y-100104342D01*
X129144640Y-100121497D01*
X129092523Y-100149354D01*
X129046842Y-100186843D01*
X129009353Y-100232524D01*
X128981496Y-100284641D01*
X128964341Y-100341191D01*
X128958549Y-100400001D01*
X128958549Y-101499999D01*
X128964341Y-101558809D01*
X128981496Y-101615359D01*
X129009353Y-101667476D01*
X129046842Y-101713157D01*
X129090001Y-101748576D01*
X129090001Y-101999666D01*
X129067847Y-102017847D01*
X129012947Y-102084743D01*
X128972152Y-102161064D01*
X128947031Y-102243877D01*
X128938549Y-102330000D01*
X128938549Y-102610000D01*
X128947031Y-102696123D01*
X128972152Y-102778936D01*
X129012947Y-102855257D01*
X129067847Y-102922153D01*
X129134743Y-102977053D01*
X129211064Y-103017848D01*
X129293877Y-103042969D01*
X129380000Y-103051451D01*
X129720000Y-103051451D01*
X129806123Y-103042969D01*
X129888936Y-103017848D01*
X129965257Y-102977053D01*
X130032153Y-102922153D01*
X130083161Y-102860000D01*
X132715909Y-102860000D01*
X132668426Y-102879668D01*
X132553776Y-102956274D01*
X132456274Y-103053776D01*
X132379668Y-103168426D01*
X132326901Y-103295818D01*
X132300000Y-103431056D01*
X132300000Y-103568944D01*
X132326901Y-103704182D01*
X132379668Y-103831574D01*
X132456274Y-103946224D01*
X132553776Y-104043726D01*
X132668426Y-104120332D01*
X132795818Y-104173099D01*
X132850001Y-104183877D01*
X132850001Y-104298549D01*
X132600000Y-104298549D01*
X132541190Y-104304341D01*
X132484640Y-104321496D01*
X132432523Y-104349353D01*
X132386842Y-104386842D01*
X132349353Y-104432523D01*
X132321496Y-104484640D01*
X132304341Y-104541190D01*
X132298549Y-104600000D01*
X132298549Y-105900000D01*
X132304341Y-105958810D01*
X132321496Y-106015360D01*
X132349353Y-106067477D01*
X132386842Y-106113158D01*
X132432523Y-106150647D01*
X132484640Y-106178504D01*
X132541190Y-106195659D01*
X132600000Y-106201451D01*
X133900000Y-106201451D01*
X133958810Y-106195659D01*
X134015360Y-106178504D01*
X134067477Y-106150647D01*
X134113158Y-106113158D01*
X134150647Y-106067477D01*
X134178504Y-106015360D01*
X134195659Y-105958810D01*
X134201451Y-105900000D01*
X134201451Y-104600000D01*
X134195659Y-104541190D01*
X134178504Y-104484640D01*
X134150647Y-104432523D01*
X134113158Y-104386842D01*
X134067477Y-104349353D01*
X134015360Y-104321496D01*
X133958810Y-104304341D01*
X133900000Y-104298549D01*
X133650000Y-104298549D01*
X133650000Y-103769635D01*
X133651252Y-103756927D01*
X133673099Y-103704182D01*
X133700000Y-103568944D01*
X133700000Y-103431056D01*
X133675603Y-103308408D01*
X133756144Y-103388949D01*
X133768670Y-103404212D01*
X133829578Y-103454198D01*
X133899067Y-103491341D01*
X133974467Y-103514213D01*
X134033234Y-103520001D01*
X134033244Y-103520001D01*
X134052880Y-103521935D01*
X134072516Y-103520001D01*
X137944316Y-103520001D01*
X138068549Y-103644234D01*
X138068549Y-103835000D01*
X138076935Y-103920147D01*
X138101772Y-104002023D01*
X138142104Y-104077479D01*
X138196383Y-104143617D01*
X138250001Y-104187621D01*
X138250001Y-104298549D01*
X138000000Y-104298549D01*
X137941190Y-104304341D01*
X137884640Y-104321496D01*
X137832523Y-104349353D01*
X137786842Y-104386842D01*
X137749353Y-104432523D01*
X137721496Y-104484640D01*
X137704341Y-104541190D01*
X137698549Y-104600000D01*
X137698549Y-104865825D01*
X137643726Y-104783776D01*
X137546224Y-104686274D01*
X137431574Y-104609668D01*
X137304182Y-104556901D01*
X137168944Y-104530000D01*
X137031056Y-104530000D01*
X136895818Y-104556901D01*
X136768426Y-104609668D01*
X136653776Y-104686274D01*
X136640050Y-104700000D01*
X136501451Y-104700000D01*
X136501451Y-104600000D01*
X136495659Y-104541190D01*
X136478504Y-104484640D01*
X136450647Y-104432523D01*
X136413158Y-104386842D01*
X136367477Y-104349353D01*
X136315360Y-104321496D01*
X136258810Y-104304341D01*
X136200000Y-104298549D01*
X134900000Y-104298549D01*
X134841190Y-104304341D01*
X134784640Y-104321496D01*
X134732523Y-104349353D01*
X134686842Y-104386842D01*
X134649353Y-104432523D01*
X134621496Y-104484640D01*
X134604341Y-104541190D01*
X134598549Y-104600000D01*
X134598549Y-105900000D01*
X134604341Y-105958810D01*
X134621496Y-106015360D01*
X134649353Y-106067477D01*
X134686842Y-106113158D01*
X134732523Y-106150647D01*
X134784640Y-106178504D01*
X134841190Y-106195659D01*
X134900000Y-106201451D01*
X135000001Y-106201451D01*
X135000000Y-107382183D01*
X134030191Y-108351992D01*
X134009211Y-108369210D01*
X133991993Y-108390190D01*
X133991987Y-108390196D01*
X133940479Y-108452958D01*
X133911947Y-108506340D01*
X133889409Y-108548506D01*
X133859778Y-108646187D01*
X133857959Y-108652182D01*
X133847340Y-108760000D01*
X133850001Y-108787018D01*
X133850000Y-109798549D01*
X133400000Y-109798549D01*
X133341190Y-109804341D01*
X133284640Y-109821496D01*
X133232523Y-109849353D01*
X133186842Y-109886842D01*
X133149353Y-109932523D01*
X133121496Y-109984640D01*
X133104341Y-110041190D01*
X133098549Y-110100000D01*
X133098549Y-111400000D01*
X133104341Y-111458810D01*
X133121496Y-111515360D01*
X133149353Y-111567477D01*
X133186842Y-111613158D01*
X133231735Y-111650000D01*
X127850000Y-111650000D01*
X127850000Y-98070000D01*
X128937340Y-98070000D01*
X128940000Y-98097008D01*
X128940000Y-98677018D01*
X128947958Y-98757819D01*
X128958549Y-98792731D01*
X128958549Y-99199999D01*
X128964341Y-99258809D01*
X128981496Y-99315359D01*
X129009353Y-99367476D01*
X129046842Y-99413157D01*
X129092523Y-99450646D01*
X129144640Y-99478503D01*
X129201190Y-99495658D01*
X129260000Y-99501450D01*
X129720000Y-99501450D01*
X129778810Y-99495658D01*
X129835360Y-99478503D01*
X129887477Y-99450646D01*
X129933158Y-99413157D01*
X129970647Y-99367476D01*
X129998504Y-99315359D01*
X130015659Y-99258809D01*
X130021451Y-99199999D01*
X130021451Y-98792732D01*
X130032042Y-98757819D01*
X130040000Y-98677018D01*
X130040000Y-98297817D01*
X130157818Y-98180000D01*
X130562183Y-98180000D01*
X130732203Y-98350020D01*
X130756901Y-98474182D01*
X130809668Y-98601574D01*
X130886274Y-98716224D01*
X130983776Y-98813726D01*
X131098426Y-98890332D01*
X131225818Y-98943099D01*
X131361056Y-98970000D01*
X131498944Y-98970000D01*
X131634182Y-98943099D01*
X131761574Y-98890332D01*
X131876224Y-98813726D01*
X131973726Y-98716224D01*
X132050332Y-98601574D01*
X132103099Y-98474182D01*
X132130000Y-98338944D01*
X132130000Y-98201056D01*
X132123823Y-98170001D01*
X132978549Y-98170001D01*
X132978549Y-99269999D01*
X132984341Y-99328809D01*
X133001496Y-99385359D01*
X133029353Y-99437476D01*
X133066842Y-99483157D01*
X133112523Y-99520646D01*
X133164640Y-99548503D01*
X133221190Y-99565658D01*
X133280000Y-99571450D01*
X133740000Y-99571450D01*
X133798810Y-99565658D01*
X133855360Y-99548503D01*
X133907477Y-99520646D01*
X133953158Y-99483157D01*
X133990647Y-99437476D01*
X134018504Y-99385359D01*
X134035659Y-99328809D01*
X134041451Y-99269999D01*
X134041451Y-98310000D01*
X134204315Y-98310000D01*
X135253267Y-99358953D01*
X135265789Y-99374211D01*
X135281047Y-99386733D01*
X135281049Y-99386735D01*
X135311031Y-99411340D01*
X135326697Y-99424197D01*
X135396186Y-99461340D01*
X135453287Y-99478661D01*
X135471586Y-99484212D01*
X135549999Y-99491935D01*
X135569646Y-99490000D01*
X136385388Y-99490000D01*
X136416274Y-99536224D01*
X136513776Y-99633726D01*
X136628426Y-99710332D01*
X136755818Y-99763099D01*
X136891056Y-99790000D01*
X137028944Y-99790000D01*
X137164182Y-99763099D01*
X137291574Y-99710332D01*
X137406224Y-99633726D01*
X137503726Y-99536224D01*
X137580332Y-99421574D01*
X137633099Y-99294182D01*
X137660000Y-99158944D01*
X137660000Y-99021056D01*
X137633099Y-98885818D01*
X137580332Y-98758426D01*
X137503726Y-98643776D01*
X137406224Y-98546274D01*
X137291574Y-98469668D01*
X137164182Y-98416901D01*
X137028944Y-98390000D01*
X136891056Y-98390000D01*
X136755818Y-98416901D01*
X136628426Y-98469668D01*
X136513776Y-98546274D01*
X136416274Y-98643776D01*
X136385388Y-98690000D01*
X135715686Y-98690000D01*
X134666737Y-97641052D01*
X134654211Y-97625789D01*
X134593303Y-97575803D01*
X134523814Y-97538660D01*
X134448414Y-97515788D01*
X134389647Y-97510000D01*
X134389646Y-97510000D01*
X134370000Y-97508065D01*
X134350354Y-97510000D01*
X133759635Y-97510000D01*
X133739999Y-97508066D01*
X133720363Y-97510000D01*
X133720353Y-97510000D01*
X133661586Y-97515788D01*
X133586186Y-97538660D01*
X133516697Y-97575803D01*
X133455789Y-97625789D01*
X133443263Y-97641052D01*
X133241048Y-97843267D01*
X133225790Y-97855789D01*
X133213268Y-97871047D01*
X133213265Y-97871050D01*
X133207041Y-97878634D01*
X133164640Y-97891497D01*
X133112523Y-97919354D01*
X133066842Y-97956843D01*
X133029353Y-98002524D01*
X133001496Y-98054641D01*
X132984341Y-98111191D01*
X132978549Y-98170001D01*
X132123823Y-98170001D01*
X132103099Y-98065818D01*
X132050332Y-97938426D01*
X131973726Y-97823776D01*
X131876224Y-97726274D01*
X131761574Y-97649668D01*
X131634182Y-97596901D01*
X131510020Y-97572203D01*
X131198013Y-97260196D01*
X131180790Y-97239210D01*
X131143378Y-97208506D01*
X131097042Y-97170479D01*
X131075680Y-97159061D01*
X131001494Y-97119408D01*
X130897819Y-97087958D01*
X130817018Y-97080000D01*
X130817008Y-97080000D01*
X130790000Y-97077340D01*
X130762992Y-97080000D01*
X129957008Y-97080000D01*
X129930000Y-97077340D01*
X129902992Y-97080000D01*
X129902982Y-97080000D01*
X129822181Y-97087958D01*
X129718506Y-97119408D01*
X129674028Y-97143182D01*
X129622957Y-97170479D01*
X129560195Y-97221987D01*
X129560190Y-97221992D01*
X129539210Y-97239210D01*
X129521991Y-97260191D01*
X129120195Y-97661988D01*
X129099210Y-97679210D01*
X129030479Y-97762958D01*
X128979408Y-97858507D01*
X128947958Y-97962182D01*
X128940000Y-98042983D01*
X128940000Y-98042992D01*
X128937340Y-98070000D01*
X127850000Y-98070000D01*
X127850000Y-94025000D01*
X136023549Y-94025000D01*
X136023549Y-95375000D01*
X136029341Y-95433810D01*
X136046496Y-95490360D01*
X136074353Y-95542477D01*
X136111842Y-95588158D01*
X136157523Y-95625647D01*
X136209640Y-95653504D01*
X136266190Y-95670659D01*
X136325000Y-95676451D01*
X137675000Y-95676451D01*
X137733810Y-95670659D01*
X137790360Y-95653504D01*
X137842477Y-95625647D01*
X137873728Y-95600000D01*
X139123549Y-95600000D01*
X139123549Y-96175001D01*
X139134145Y-96282584D01*
X139165526Y-96386032D01*
X139216485Y-96481370D01*
X139285065Y-96564935D01*
X139368630Y-96633515D01*
X139463968Y-96684474D01*
X139567416Y-96715855D01*
X139600001Y-96719064D01*
X139600001Y-97425430D01*
X139597581Y-97450000D01*
X139607235Y-97548017D01*
X139630828Y-97625790D01*
X139635826Y-97642267D01*
X139682255Y-97729129D01*
X139744737Y-97805264D01*
X139763819Y-97820924D01*
X139860000Y-97917106D01*
X139860000Y-97978944D01*
X139886901Y-98114182D01*
X139939668Y-98241574D01*
X140016274Y-98356224D01*
X140113776Y-98453726D01*
X140228426Y-98530332D01*
X140355818Y-98583099D01*
X140491056Y-98610000D01*
X140628944Y-98610000D01*
X140764182Y-98583099D01*
X140891574Y-98530332D01*
X141006224Y-98453726D01*
X141103726Y-98356224D01*
X141180332Y-98241574D01*
X141233099Y-98114182D01*
X141260000Y-97978944D01*
X141260000Y-97841056D01*
X141233099Y-97705818D01*
X141180332Y-97578426D01*
X141103726Y-97463776D01*
X141006224Y-97366274D01*
X140891574Y-97289668D01*
X140764182Y-97236901D01*
X140628944Y-97210000D01*
X140600000Y-97210000D01*
X140600000Y-96719064D01*
X140632584Y-96715855D01*
X140736032Y-96684474D01*
X140831370Y-96633515D01*
X140914935Y-96564935D01*
X140983515Y-96481370D01*
X141034474Y-96386032D01*
X141065855Y-96282584D01*
X141076451Y-96175001D01*
X141076451Y-93324999D01*
X141065855Y-93217416D01*
X141034474Y-93113968D01*
X140983515Y-93018630D01*
X140914935Y-92935065D01*
X140831370Y-92866485D01*
X140736032Y-92815526D01*
X140632584Y-92784145D01*
X140525001Y-92773549D01*
X139674999Y-92773549D01*
X139567416Y-92784145D01*
X139463968Y-92815526D01*
X139368630Y-92866485D01*
X139285065Y-92935065D01*
X139216485Y-93018630D01*
X139165526Y-93113968D01*
X139134145Y-93217416D01*
X139123549Y-93324999D01*
X139123549Y-93800000D01*
X137873728Y-93800000D01*
X137842477Y-93774353D01*
X137790360Y-93746496D01*
X137733810Y-93729341D01*
X137675000Y-93723549D01*
X136325000Y-93723549D01*
X136266190Y-93729341D01*
X136209640Y-93746496D01*
X136157523Y-93774353D01*
X136111842Y-93811842D01*
X136074353Y-93857523D01*
X136046496Y-93909640D01*
X136029341Y-93966190D01*
X136023549Y-94025000D01*
X127850000Y-94025000D01*
X127850000Y-92350000D01*
X167150000Y-92350000D01*
X167150001Y-111650000D01*
G37*
X167150001Y-111650000D02*
X140968265Y-111650000D01*
X141013158Y-111613158D01*
X141050647Y-111567477D01*
X141078504Y-111515360D01*
X141095659Y-111458810D01*
X141101451Y-111400000D01*
X141101451Y-110100000D01*
X141095659Y-110041190D01*
X141078504Y-109984640D01*
X141050647Y-109932523D01*
X141013158Y-109886842D01*
X140967477Y-109849353D01*
X140915360Y-109821496D01*
X140858810Y-109804341D01*
X140800000Y-109798549D01*
X140350000Y-109798549D01*
X140350000Y-109469950D01*
X140363726Y-109456224D01*
X140440332Y-109341574D01*
X140476191Y-109255000D01*
X147948549Y-109255000D01*
X147948549Y-109555000D01*
X147957224Y-109643074D01*
X147982914Y-109727763D01*
X148024632Y-109805813D01*
X148080776Y-109874224D01*
X148149187Y-109930368D01*
X148227237Y-109972086D01*
X148311926Y-109997776D01*
X148400000Y-110006451D01*
X150050000Y-110006451D01*
X150138074Y-109997776D01*
X150222763Y-109972086D01*
X150300813Y-109930368D01*
X150369224Y-109874224D01*
X150425368Y-109805813D01*
X150467086Y-109727763D01*
X150492776Y-109643074D01*
X150501451Y-109555000D01*
X150501451Y-109255000D01*
X150492776Y-109166926D01*
X150467086Y-109082237D01*
X150425368Y-109004187D01*
X150369224Y-108935776D01*
X150300813Y-108879632D01*
X150222763Y-108837914D01*
X150138074Y-108812224D01*
X150050000Y-108803549D01*
X148400000Y-108803549D01*
X148311926Y-108812224D01*
X148227237Y-108837914D01*
X148149187Y-108879632D01*
X148080776Y-108935776D01*
X148024632Y-109004187D01*
X147982914Y-109082237D01*
X147957224Y-109166926D01*
X147948549Y-109255000D01*
X140476191Y-109255000D01*
X140493099Y-109214182D01*
X140520000Y-109078944D01*
X140520000Y-108941056D01*
X140493099Y-108805818D01*
X140440332Y-108678426D01*
X140363726Y-108563776D01*
X140266224Y-108466274D01*
X140151574Y-108389668D01*
X140024182Y-108336901D01*
X139888944Y-108310000D01*
X139751056Y-108310000D01*
X139615818Y-108336901D01*
X139488426Y-108389668D01*
X139373776Y-108466274D01*
X139276274Y-108563776D01*
X139199668Y-108678426D01*
X139146901Y-108805818D01*
X139120000Y-108941056D01*
X139120000Y-109078944D01*
X139146901Y-109214182D01*
X139199668Y-109341574D01*
X139250001Y-109416903D01*
X139250001Y-109798549D01*
X138800000Y-109798549D01*
X138741190Y-109804341D01*
X138684640Y-109821496D01*
X138632523Y-109849353D01*
X138586842Y-109886842D01*
X138549353Y-109932523D01*
X138521496Y-109984640D01*
X138504341Y-110041190D01*
X138498549Y-110100000D01*
X138498549Y-111400000D01*
X138504341Y-111458810D01*
X138521496Y-111515360D01*
X138549353Y-111567477D01*
X138586842Y-111613158D01*
X138631735Y-111650000D01*
X135568265Y-111650000D01*
X135613158Y-111613158D01*
X135650647Y-111567477D01*
X135678504Y-111515360D01*
X135695659Y-111458810D01*
X135701451Y-111400000D01*
X135701451Y-110100000D01*
X135695659Y-110041190D01*
X135678504Y-109984640D01*
X135650647Y-109932523D01*
X135613158Y-109886842D01*
X135567477Y-109849353D01*
X135515360Y-109821496D01*
X135458810Y-109804341D01*
X135400000Y-109798549D01*
X134950000Y-109798549D01*
X134950000Y-108987817D01*
X135919804Y-108018013D01*
X135940790Y-108000790D01*
X136009521Y-107917042D01*
X136060592Y-107821494D01*
X136092042Y-107717819D01*
X136100000Y-107637018D01*
X136100000Y-107637011D01*
X136102660Y-107610000D01*
X136100000Y-107582989D01*
X136100000Y-106201451D01*
X136200000Y-106201451D01*
X136258810Y-106195659D01*
X136315360Y-106178504D01*
X136367477Y-106150647D01*
X136413158Y-106113158D01*
X136450647Y-106067477D01*
X136478504Y-106015360D01*
X136495659Y-105958810D01*
X136501451Y-105900000D01*
X136501451Y-105800000D01*
X136693098Y-105800000D01*
X136768426Y-105850332D01*
X136895818Y-105903099D01*
X137031056Y-105930000D01*
X137168944Y-105930000D01*
X137304182Y-105903099D01*
X137431574Y-105850332D01*
X137546224Y-105773726D01*
X137643726Y-105676224D01*
X137698549Y-105594175D01*
X137698549Y-105900000D01*
X137704341Y-105958810D01*
X137721496Y-106015360D01*
X137749353Y-106067477D01*
X137786842Y-106113158D01*
X137832523Y-106150647D01*
X137884640Y-106178504D01*
X137941190Y-106195659D01*
X138000000Y-106201451D01*
X138250000Y-106201451D01*
X138250000Y-106680353D01*
X138248065Y-106700000D01*
X138250000Y-106719646D01*
X138255788Y-106778413D01*
X138278660Y-106853813D01*
X138315803Y-106923302D01*
X138365789Y-106984211D01*
X138381052Y-106996737D01*
X139153267Y-107768953D01*
X139165789Y-107784211D01*
X139181047Y-107796733D01*
X139181049Y-107796735D01*
X139226697Y-107834197D01*
X139296185Y-107871340D01*
X139371586Y-107894212D01*
X139450000Y-107901935D01*
X139469647Y-107900000D01*
X141900354Y-107900000D01*
X141920000Y-107901935D01*
X141939646Y-107900000D01*
X141939647Y-107900000D01*
X141998414Y-107894212D01*
X142073814Y-107871340D01*
X142143303Y-107834197D01*
X142204211Y-107784211D01*
X142216737Y-107768948D01*
X142720685Y-107265000D01*
X143074197Y-107265000D01*
X143074632Y-107265813D01*
X143130776Y-107334224D01*
X143199187Y-107390368D01*
X143277237Y-107432086D01*
X143361926Y-107457776D01*
X143450000Y-107466451D01*
X145100000Y-107466451D01*
X145188074Y-107457776D01*
X145272763Y-107432086D01*
X145350813Y-107390368D01*
X145419224Y-107334224D01*
X145475368Y-107265813D01*
X145517086Y-107187763D01*
X145542776Y-107103074D01*
X145551451Y-107015000D01*
X145551451Y-106715000D01*
X145542776Y-106626926D01*
X145517086Y-106542237D01*
X145475368Y-106464187D01*
X145419224Y-106395776D01*
X145350813Y-106339632D01*
X145272763Y-106297914D01*
X145188074Y-106272224D01*
X145100000Y-106263549D01*
X143450000Y-106263549D01*
X143361926Y-106272224D01*
X143277237Y-106297914D01*
X143199187Y-106339632D01*
X143130776Y-106395776D01*
X143074632Y-106464187D01*
X143074197Y-106465000D01*
X142574647Y-106465000D01*
X142555000Y-106463065D01*
X142535353Y-106465000D01*
X142476586Y-106470788D01*
X142401186Y-106493660D01*
X142331697Y-106530803D01*
X142270789Y-106580789D01*
X142258265Y-106596050D01*
X141754315Y-107100000D01*
X139615686Y-107100000D01*
X139050000Y-106534315D01*
X139050000Y-106201451D01*
X139300000Y-106201451D01*
X139358810Y-106195659D01*
X139415360Y-106178504D01*
X139467477Y-106150647D01*
X139513158Y-106113158D01*
X139550647Y-106067477D01*
X139578504Y-106015360D01*
X139595659Y-105958810D01*
X139601451Y-105900000D01*
X139601451Y-104600000D01*
X139998549Y-104600000D01*
X139998549Y-105900000D01*
X140004341Y-105958810D01*
X140021496Y-106015360D01*
X140049353Y-106067477D01*
X140086842Y-106113158D01*
X140132523Y-106150647D01*
X140184640Y-106178504D01*
X140241190Y-106195659D01*
X140270000Y-106198496D01*
X140270000Y-106318944D01*
X140296901Y-106454182D01*
X140349668Y-106581574D01*
X140426274Y-106696224D01*
X140523776Y-106793726D01*
X140638426Y-106870332D01*
X140765818Y-106923099D01*
X140901056Y-106950000D01*
X141038944Y-106950000D01*
X141174182Y-106923099D01*
X141301574Y-106870332D01*
X141416224Y-106793726D01*
X141513726Y-106696224D01*
X141590332Y-106581574D01*
X141643099Y-106454182D01*
X141670000Y-106318944D01*
X141670000Y-106192264D01*
X141715360Y-106178504D01*
X141767477Y-106150647D01*
X141813158Y-106113158D01*
X141850647Y-106067477D01*
X141878504Y-106015360D01*
X141895659Y-105958810D01*
X141901451Y-105900000D01*
X141901451Y-104987136D01*
X142778263Y-105863948D01*
X142790789Y-105879211D01*
X142837765Y-105917763D01*
X142851697Y-105929197D01*
X142921186Y-105966340D01*
X142996586Y-105989212D01*
X143075000Y-105996935D01*
X143075511Y-105996885D01*
X143130776Y-106064224D01*
X143199187Y-106120368D01*
X143277237Y-106162086D01*
X143361926Y-106187776D01*
X143450000Y-106196451D01*
X145100000Y-106196451D01*
X145188074Y-106187776D01*
X145272763Y-106162086D01*
X145350813Y-106120368D01*
X145419224Y-106064224D01*
X145475368Y-105995813D01*
X145517086Y-105917763D01*
X145542776Y-105833074D01*
X145551451Y-105745000D01*
X145551451Y-105445000D01*
X145542776Y-105356926D01*
X145517086Y-105272237D01*
X145475368Y-105194187D01*
X145419224Y-105125776D01*
X145350813Y-105069632D01*
X145272763Y-105027914D01*
X145188074Y-105002224D01*
X145100000Y-104993549D01*
X144762136Y-104993549D01*
X145084234Y-104671451D01*
X145275000Y-104671451D01*
X145360147Y-104663065D01*
X145442023Y-104638228D01*
X145517479Y-104597896D01*
X145583617Y-104543617D01*
X145637896Y-104477479D01*
X145650000Y-104454834D01*
X145662104Y-104477479D01*
X145716383Y-104543617D01*
X145760000Y-104579413D01*
X145760001Y-107414313D01*
X145459483Y-107714832D01*
X145419224Y-107665776D01*
X145350813Y-107609632D01*
X145272763Y-107567914D01*
X145188074Y-107542224D01*
X145100000Y-107533549D01*
X143450000Y-107533549D01*
X143361926Y-107542224D01*
X143277237Y-107567914D01*
X143199187Y-107609632D01*
X143130776Y-107665776D01*
X143074632Y-107734187D01*
X143032914Y-107812237D01*
X143007224Y-107896926D01*
X142998549Y-107985000D01*
X142998549Y-108285000D01*
X143007224Y-108373074D01*
X143032914Y-108457763D01*
X143074632Y-108535813D01*
X143130776Y-108604224D01*
X143199187Y-108660368D01*
X143277237Y-108702086D01*
X143361926Y-108727776D01*
X143450000Y-108736451D01*
X145100000Y-108736451D01*
X145188074Y-108727776D01*
X145272763Y-108702086D01*
X145350813Y-108660368D01*
X145419224Y-108604224D01*
X145475368Y-108535813D01*
X145475803Y-108535000D01*
X145585354Y-108535000D01*
X145605000Y-108536935D01*
X145624646Y-108535000D01*
X145624647Y-108535000D01*
X145683414Y-108529212D01*
X145758814Y-108506340D01*
X145828303Y-108469197D01*
X145889211Y-108419211D01*
X145901737Y-108403948D01*
X146320685Y-107985000D01*
X147948549Y-107985000D01*
X147948549Y-108285000D01*
X147957224Y-108373074D01*
X147982914Y-108457763D01*
X148024632Y-108535813D01*
X148080776Y-108604224D01*
X148149187Y-108660368D01*
X148227237Y-108702086D01*
X148311926Y-108727776D01*
X148400000Y-108736451D01*
X150050000Y-108736451D01*
X150138074Y-108727776D01*
X150222763Y-108702086D01*
X150300813Y-108660368D01*
X150369224Y-108604224D01*
X150425368Y-108535813D01*
X150467086Y-108457763D01*
X150492776Y-108373074D01*
X150501451Y-108285000D01*
X150501451Y-107985000D01*
X150492776Y-107896926D01*
X150467086Y-107812237D01*
X150425368Y-107734187D01*
X150369224Y-107665776D01*
X150300813Y-107609632D01*
X150222763Y-107567914D01*
X150138074Y-107542224D01*
X150050000Y-107533549D01*
X148400000Y-107533549D01*
X148311926Y-107542224D01*
X148227237Y-107567914D01*
X148149187Y-107609632D01*
X148080776Y-107665776D01*
X148024632Y-107734187D01*
X147982914Y-107812237D01*
X147957224Y-107896926D01*
X147948549Y-107985000D01*
X146320685Y-107985000D01*
X146416735Y-107888951D01*
X146416741Y-107888943D01*
X146428944Y-107876740D01*
X146444211Y-107864211D01*
X146494197Y-107803303D01*
X146531340Y-107733814D01*
X146554212Y-107658414D01*
X146560000Y-107599647D01*
X146560000Y-107599646D01*
X146561935Y-107580000D01*
X146560000Y-107560353D01*
X146560000Y-106715000D01*
X147948549Y-106715000D01*
X147948549Y-107015000D01*
X147957224Y-107103074D01*
X147982914Y-107187763D01*
X148024632Y-107265813D01*
X148080776Y-107334224D01*
X148149187Y-107390368D01*
X148227237Y-107432086D01*
X148311926Y-107457776D01*
X148400000Y-107466451D01*
X150050000Y-107466451D01*
X150138074Y-107457776D01*
X150222763Y-107432086D01*
X150300813Y-107390368D01*
X150369224Y-107334224D01*
X150425368Y-107265813D01*
X150467086Y-107187763D01*
X150492776Y-107103074D01*
X150501451Y-107015000D01*
X150501451Y-106715000D01*
X150492776Y-106626926D01*
X150467086Y-106542237D01*
X150425368Y-106464187D01*
X150369224Y-106395776D01*
X150300813Y-106339632D01*
X150222763Y-106297914D01*
X150138074Y-106272224D01*
X150050000Y-106263549D01*
X148400000Y-106263549D01*
X148311926Y-106272224D01*
X148227237Y-106297914D01*
X148149187Y-106339632D01*
X148080776Y-106395776D01*
X148024632Y-106464187D01*
X147982914Y-106542237D01*
X147957224Y-106626926D01*
X147948549Y-106715000D01*
X146560000Y-106715000D01*
X146560000Y-105526056D01*
X146705000Y-105526056D01*
X146705000Y-105663944D01*
X146731901Y-105799182D01*
X146784668Y-105926574D01*
X146861274Y-106041224D01*
X146958776Y-106138726D01*
X147073426Y-106215332D01*
X147200818Y-106268099D01*
X147336056Y-106295000D01*
X147473944Y-106295000D01*
X147609182Y-106268099D01*
X147736574Y-106215332D01*
X147841834Y-106145000D01*
X148195271Y-106145000D01*
X148227237Y-106162086D01*
X148311926Y-106187776D01*
X148400000Y-106196451D01*
X150050000Y-106196451D01*
X150138074Y-106187776D01*
X150222763Y-106162086D01*
X150254729Y-106145000D01*
X150644990Y-106145000D01*
X150644991Y-109077972D01*
X150642330Y-109104990D01*
X150644991Y-109132008D01*
X150652949Y-109212809D01*
X150661651Y-109241494D01*
X150684399Y-109316484D01*
X150735469Y-109412032D01*
X150786977Y-109474794D01*
X150786983Y-109474800D01*
X150804201Y-109495780D01*
X150825181Y-109512998D01*
X151181987Y-109869804D01*
X151199210Y-109890790D01*
X151282958Y-109959521D01*
X151378506Y-110010592D01*
X151482181Y-110042042D01*
X151562982Y-110050000D01*
X151562991Y-110050000D01*
X151589999Y-110052660D01*
X151616543Y-110050046D01*
X151687977Y-110088228D01*
X151769853Y-110113065D01*
X151855000Y-110121451D01*
X152125000Y-110121451D01*
X152210147Y-110113065D01*
X152292023Y-110088228D01*
X152367479Y-110047896D01*
X152433617Y-109993617D01*
X152487896Y-109927479D01*
X152500000Y-109904834D01*
X152512104Y-109927479D01*
X152566383Y-109993617D01*
X152632521Y-110047896D01*
X152707977Y-110088228D01*
X152789853Y-110113065D01*
X152875000Y-110121451D01*
X153145000Y-110121451D01*
X153230147Y-110113065D01*
X153312023Y-110088228D01*
X153387479Y-110047896D01*
X153453617Y-109993617D01*
X153507896Y-109927479D01*
X153522584Y-109900000D01*
X153730354Y-109900000D01*
X153750000Y-109901935D01*
X153769646Y-109900000D01*
X153769647Y-109900000D01*
X153828414Y-109894212D01*
X153903814Y-109871340D01*
X153973303Y-109834197D01*
X154008880Y-109805000D01*
X154324197Y-109805000D01*
X154324632Y-109805813D01*
X154380776Y-109874224D01*
X154449187Y-109930368D01*
X154527237Y-109972086D01*
X154611926Y-109997776D01*
X154700000Y-110006451D01*
X156350000Y-110006451D01*
X156438074Y-109997776D01*
X156522763Y-109972086D01*
X156600813Y-109930368D01*
X156669224Y-109874224D01*
X156725368Y-109805813D01*
X156739633Y-109779125D01*
X156748814Y-109776340D01*
X156818303Y-109739197D01*
X156879211Y-109689211D01*
X156891737Y-109673948D01*
X157768953Y-108796733D01*
X157784211Y-108784211D01*
X157804081Y-108760000D01*
X157834196Y-108723304D01*
X157835114Y-108721587D01*
X157871340Y-108653814D01*
X157894212Y-108578414D01*
X157900000Y-108519647D01*
X157900000Y-108519637D01*
X157901934Y-108500001D01*
X157900000Y-108480365D01*
X157900000Y-106024351D01*
X157911274Y-106041224D01*
X158008776Y-106138726D01*
X158123426Y-106215332D01*
X158250818Y-106268099D01*
X158386056Y-106295000D01*
X158523944Y-106295000D01*
X158659182Y-106268099D01*
X158786574Y-106215332D01*
X158901224Y-106138726D01*
X158998726Y-106041224D01*
X159029612Y-105995000D01*
X159274197Y-105995000D01*
X159274632Y-105995813D01*
X159330776Y-106064224D01*
X159399187Y-106120368D01*
X159477237Y-106162086D01*
X159561926Y-106187776D01*
X159650000Y-106196451D01*
X161300000Y-106196451D01*
X161388074Y-106187776D01*
X161472763Y-106162086D01*
X161550813Y-106120368D01*
X161552938Y-106118624D01*
X161800001Y-106365687D01*
X161800001Y-106465000D01*
X161675803Y-106465000D01*
X161675368Y-106464187D01*
X161619224Y-106395776D01*
X161550813Y-106339632D01*
X161472763Y-106297914D01*
X161388074Y-106272224D01*
X161300000Y-106263549D01*
X159650000Y-106263549D01*
X159561926Y-106272224D01*
X159477237Y-106297914D01*
X159399187Y-106339632D01*
X159330776Y-106395776D01*
X159274632Y-106464187D01*
X159232914Y-106542237D01*
X159207224Y-106626926D01*
X159198549Y-106715000D01*
X159198549Y-107015000D01*
X159207224Y-107103074D01*
X159232914Y-107187763D01*
X159274632Y-107265813D01*
X159330776Y-107334224D01*
X159399187Y-107390368D01*
X159477237Y-107432086D01*
X159561926Y-107457776D01*
X159650000Y-107466451D01*
X161300000Y-107466451D01*
X161388074Y-107457776D01*
X161472763Y-107432086D01*
X161550813Y-107390368D01*
X161619224Y-107334224D01*
X161675368Y-107265813D01*
X161675803Y-107265000D01*
X161800001Y-107265000D01*
X161800000Y-107735000D01*
X161675803Y-107735000D01*
X161675368Y-107734187D01*
X161619224Y-107665776D01*
X161550813Y-107609632D01*
X161472763Y-107567914D01*
X161388074Y-107542224D01*
X161300000Y-107533549D01*
X159650000Y-107533549D01*
X159561926Y-107542224D01*
X159477237Y-107567914D01*
X159399187Y-107609632D01*
X159330776Y-107665776D01*
X159274632Y-107734187D01*
X159232914Y-107812237D01*
X159207224Y-107896926D01*
X159198549Y-107985000D01*
X159198549Y-108285000D01*
X159207224Y-108373074D01*
X159232914Y-108457763D01*
X159274632Y-108535813D01*
X159330776Y-108604224D01*
X159399187Y-108660368D01*
X159477237Y-108702086D01*
X159561926Y-108727776D01*
X159650000Y-108736451D01*
X161300000Y-108736451D01*
X161388074Y-108727776D01*
X161472763Y-108702086D01*
X161550813Y-108660368D01*
X161619224Y-108604224D01*
X161675368Y-108535813D01*
X161675803Y-108535000D01*
X161800000Y-108535000D01*
X161800000Y-108634314D01*
X161552938Y-108881376D01*
X161550813Y-108879632D01*
X161472763Y-108837914D01*
X161388074Y-108812224D01*
X161300000Y-108803549D01*
X159650000Y-108803549D01*
X159561926Y-108812224D01*
X159477237Y-108837914D01*
X159399187Y-108879632D01*
X159330776Y-108935776D01*
X159274632Y-109004187D01*
X159232914Y-109082237D01*
X159207224Y-109166926D01*
X159198549Y-109255000D01*
X159198549Y-109555000D01*
X159207224Y-109643074D01*
X159232914Y-109727763D01*
X159274632Y-109805813D01*
X159330776Y-109874224D01*
X159399187Y-109930368D01*
X159477237Y-109972086D01*
X159561926Y-109997776D01*
X159650000Y-110006451D01*
X161300000Y-110006451D01*
X161388074Y-109997776D01*
X161472763Y-109972086D01*
X161550813Y-109930368D01*
X161619224Y-109874224D01*
X161675368Y-109805813D01*
X161679957Y-109797227D01*
X161748814Y-109776340D01*
X161818303Y-109739197D01*
X161879211Y-109689211D01*
X161891737Y-109673948D01*
X162468954Y-109096732D01*
X162484211Y-109084211D01*
X162498302Y-109067042D01*
X162534196Y-109023304D01*
X162534197Y-109023303D01*
X162571340Y-108953814D01*
X162594212Y-108878414D01*
X162600000Y-108819647D01*
X162600000Y-108819637D01*
X162601934Y-108800001D01*
X162600000Y-108780365D01*
X162600000Y-108119637D01*
X162601934Y-108100001D01*
X162600000Y-108080365D01*
X162600000Y-106819646D01*
X162601935Y-106800000D01*
X162600000Y-106780353D01*
X162600000Y-106219635D01*
X162601934Y-106199999D01*
X162600000Y-106180363D01*
X162600000Y-106180353D01*
X162594212Y-106121586D01*
X162571340Y-106046186D01*
X162534197Y-105976697D01*
X162522941Y-105962982D01*
X162496735Y-105931049D01*
X162496733Y-105931047D01*
X162484211Y-105915789D01*
X162468953Y-105903267D01*
X161891735Y-105326050D01*
X161879211Y-105310789D01*
X161818303Y-105260803D01*
X161748814Y-105223660D01*
X161679957Y-105202773D01*
X161675368Y-105194187D01*
X161619224Y-105125776D01*
X161550813Y-105069632D01*
X161472763Y-105027914D01*
X161388074Y-105002224D01*
X161300000Y-104993549D01*
X159650000Y-104993549D01*
X159561926Y-105002224D01*
X159477237Y-105027914D01*
X159399187Y-105069632D01*
X159330776Y-105125776D01*
X159274632Y-105194187D01*
X159274197Y-105195000D01*
X159029612Y-105195000D01*
X158998726Y-105148776D01*
X158901224Y-105051274D01*
X158786574Y-104974668D01*
X158659182Y-104921901D01*
X158523944Y-104895000D01*
X158386056Y-104895000D01*
X158250818Y-104921901D01*
X158123426Y-104974668D01*
X158008776Y-105051274D01*
X157911274Y-105148776D01*
X157900000Y-105165649D01*
X157900000Y-104415685D01*
X158415686Y-103900000D01*
X158798549Y-103900000D01*
X158798549Y-103950000D01*
X158804341Y-104008810D01*
X158821496Y-104065360D01*
X158849353Y-104117477D01*
X158886842Y-104163158D01*
X158932523Y-104200647D01*
X158984640Y-104228504D01*
X159041190Y-104245659D01*
X159100000Y-104251451D01*
X159900000Y-104251451D01*
X159958810Y-104245659D01*
X160015360Y-104228504D01*
X160067477Y-104200647D01*
X160113158Y-104163158D01*
X160150647Y-104117477D01*
X160178504Y-104065360D01*
X160195659Y-104008810D01*
X160201451Y-103950000D01*
X160201451Y-103050000D01*
X160195659Y-102991190D01*
X160178504Y-102934640D01*
X160150647Y-102882523D01*
X160113158Y-102836842D01*
X160067477Y-102799353D01*
X160015360Y-102771496D01*
X159958810Y-102754341D01*
X159914733Y-102750000D01*
X159980354Y-102750000D01*
X159999998Y-102751935D01*
X160019644Y-102750000D01*
X160019645Y-102750000D01*
X160078412Y-102744212D01*
X160153812Y-102721340D01*
X160223301Y-102684197D01*
X160284209Y-102634211D01*
X160296739Y-102618943D01*
X160664233Y-102251451D01*
X160850000Y-102251451D01*
X160908810Y-102245659D01*
X160965360Y-102228504D01*
X161017477Y-102200647D01*
X161063158Y-102163158D01*
X161100647Y-102117477D01*
X161128504Y-102065360D01*
X161145659Y-102008810D01*
X161151451Y-101950000D01*
X161151451Y-101900000D01*
X161334315Y-101900000D01*
X161600001Y-102165687D01*
X161600000Y-104480353D01*
X161598065Y-104500000D01*
X161600000Y-104519646D01*
X161605788Y-104578413D01*
X161628660Y-104653813D01*
X161665803Y-104723302D01*
X161715789Y-104784211D01*
X161731052Y-104796737D01*
X162203267Y-105268953D01*
X162215789Y-105284211D01*
X162231047Y-105296733D01*
X162231049Y-105296735D01*
X162276697Y-105334197D01*
X162346186Y-105371340D01*
X162421586Y-105394212D01*
X162500000Y-105401935D01*
X162519647Y-105400000D01*
X163480353Y-105400000D01*
X163500000Y-105401935D01*
X163519646Y-105400000D01*
X165480354Y-105400000D01*
X165500000Y-105401935D01*
X165519646Y-105400000D01*
X165519647Y-105400000D01*
X165578414Y-105394212D01*
X165653814Y-105371340D01*
X165723303Y-105334197D01*
X165784211Y-105284211D01*
X165796737Y-105268948D01*
X166268953Y-104796733D01*
X166284211Y-104784211D01*
X166296736Y-104768950D01*
X166334197Y-104723303D01*
X166371340Y-104653814D01*
X166394212Y-104578414D01*
X166401935Y-104500000D01*
X166400000Y-104480353D01*
X166400000Y-104448575D01*
X166443158Y-104413157D01*
X166480647Y-104367476D01*
X166508504Y-104315359D01*
X166525659Y-104258809D01*
X166531451Y-104199999D01*
X166531451Y-103100001D01*
X166525659Y-103041191D01*
X166508504Y-102984641D01*
X166480647Y-102932524D01*
X166443158Y-102886843D01*
X166397477Y-102849354D01*
X166345360Y-102821497D01*
X166288810Y-102804342D01*
X166230000Y-102798550D01*
X165770000Y-102798550D01*
X165711190Y-102804342D01*
X165654640Y-102821497D01*
X165602523Y-102849354D01*
X165556842Y-102886843D01*
X165519353Y-102932524D01*
X165491496Y-102984641D01*
X165474341Y-103041191D01*
X165468549Y-103100001D01*
X165468549Y-104199999D01*
X165474341Y-104258809D01*
X165491496Y-104315359D01*
X165519353Y-104367476D01*
X165540757Y-104393557D01*
X165334315Y-104600000D01*
X163900000Y-104600000D01*
X163900000Y-104448575D01*
X163943158Y-104413157D01*
X163980647Y-104367476D01*
X164008504Y-104315359D01*
X164025659Y-104258809D01*
X164031451Y-104199999D01*
X164031451Y-103100001D01*
X164025659Y-103041191D01*
X164008504Y-102984641D01*
X163980647Y-102932524D01*
X163943158Y-102886843D01*
X163897477Y-102849354D01*
X163845360Y-102821497D01*
X163788810Y-102804342D01*
X163730000Y-102798550D01*
X163270000Y-102798550D01*
X163211190Y-102804342D01*
X163154640Y-102821497D01*
X163102523Y-102849354D01*
X163056842Y-102886843D01*
X163019353Y-102932524D01*
X162991496Y-102984641D01*
X162974341Y-103041191D01*
X162968549Y-103100001D01*
X162968549Y-104199999D01*
X162974341Y-104258809D01*
X162991496Y-104315359D01*
X163019353Y-104367476D01*
X163056842Y-104413157D01*
X163100000Y-104448576D01*
X163100000Y-104600000D01*
X162665686Y-104600000D01*
X162400000Y-104334315D01*
X162400000Y-102019647D01*
X162401935Y-102000000D01*
X162397011Y-101950000D01*
X162394212Y-101921586D01*
X162371340Y-101846186D01*
X162334197Y-101776697D01*
X162315743Y-101754211D01*
X162296735Y-101731049D01*
X162296733Y-101731047D01*
X162284211Y-101715789D01*
X162268953Y-101703267D01*
X161796735Y-101231050D01*
X161784211Y-101215789D01*
X161723303Y-101165803D01*
X161653814Y-101128660D01*
X161578414Y-101105788D01*
X161519647Y-101100000D01*
X161519646Y-101100000D01*
X161500000Y-101098065D01*
X161480354Y-101100000D01*
X161151451Y-101100000D01*
X161151451Y-101050000D01*
X161145659Y-100991190D01*
X161128504Y-100934640D01*
X161100647Y-100882523D01*
X161063158Y-100836842D01*
X161017477Y-100799353D01*
X160965360Y-100771496D01*
X160908810Y-100754341D01*
X160850000Y-100748549D01*
X160050000Y-100748549D01*
X159991190Y-100754341D01*
X159934640Y-100771496D01*
X159882523Y-100799353D01*
X159836842Y-100836842D01*
X159799353Y-100882523D01*
X159771496Y-100934640D01*
X159754341Y-100991190D01*
X159748549Y-101050000D01*
X159748549Y-101950000D01*
X156069647Y-101950000D01*
X156050000Y-101948065D01*
X156030353Y-101950000D01*
X155971586Y-101955788D01*
X155896186Y-101978660D01*
X155826697Y-102015803D01*
X155765789Y-102065789D01*
X155753265Y-102081050D01*
X155613904Y-102220411D01*
X155595000Y-102218549D01*
X155325000Y-102218549D01*
X155239853Y-102226935D01*
X155157977Y-102251772D01*
X155082521Y-102292104D01*
X155016383Y-102346383D01*
X154962104Y-102412521D01*
X154921772Y-102487977D01*
X154896935Y-102569853D01*
X154888549Y-102655000D01*
X154888549Y-102719518D01*
X154875788Y-102761586D01*
X154868065Y-102840000D01*
X154875788Y-102918414D01*
X154888549Y-102960482D01*
X154888549Y-103025000D01*
X154896935Y-103110147D01*
X154921772Y-103192023D01*
X154962104Y-103267479D01*
X155016383Y-103333617D01*
X155082521Y-103387896D01*
X155157977Y-103428228D01*
X155239853Y-103453065D01*
X155325000Y-103461451D01*
X155595000Y-103461451D01*
X155680147Y-103453065D01*
X155762023Y-103428228D01*
X155837479Y-103387896D01*
X155903617Y-103333617D01*
X155957896Y-103267479D01*
X155998228Y-103192023D01*
X156023065Y-103110147D01*
X156031451Y-103025000D01*
X156031451Y-102934234D01*
X156215685Y-102750000D01*
X159085267Y-102750000D01*
X159041190Y-102754341D01*
X158984640Y-102771496D01*
X158932523Y-102799353D01*
X158886842Y-102836842D01*
X158849353Y-102882523D01*
X158821496Y-102934640D01*
X158804341Y-102991190D01*
X158798549Y-103050000D01*
X158798549Y-103100000D01*
X158269635Y-103100000D01*
X158249999Y-103098066D01*
X158230363Y-103100000D01*
X158230353Y-103100000D01*
X158171586Y-103105788D01*
X158096186Y-103128660D01*
X158026697Y-103165803D01*
X158026695Y-103165804D01*
X158026696Y-103165804D01*
X157981049Y-103203265D01*
X157981047Y-103203267D01*
X157965789Y-103215789D01*
X157953267Y-103231047D01*
X157231052Y-103953263D01*
X157215789Y-103965789D01*
X157165803Y-104026698D01*
X157128660Y-104096187D01*
X157111750Y-104151934D01*
X157105788Y-104171587D01*
X157098065Y-104250000D01*
X157100000Y-104269646D01*
X157100001Y-108334313D01*
X156570751Y-108863564D01*
X156522763Y-108837914D01*
X156438074Y-108812224D01*
X156350000Y-108803549D01*
X154700000Y-108803549D01*
X154611926Y-108812224D01*
X154527237Y-108837914D01*
X154449187Y-108879632D01*
X154380776Y-108935776D01*
X154324632Y-109004187D01*
X154324197Y-109005000D01*
X153864635Y-109005000D01*
X153844999Y-109003066D01*
X153825363Y-109005000D01*
X153825353Y-109005000D01*
X153766586Y-109010788D01*
X153691186Y-109033660D01*
X153621697Y-109070803D01*
X153586120Y-109100000D01*
X153522584Y-109100000D01*
X153507896Y-109072521D01*
X153453617Y-109006383D01*
X153387479Y-108952104D01*
X153312023Y-108911772D01*
X153230147Y-108886935D01*
X153145000Y-108878549D01*
X152875000Y-108878549D01*
X152789853Y-108886935D01*
X152707977Y-108911772D01*
X152632521Y-108952104D01*
X152566383Y-109006383D01*
X152512104Y-109072521D01*
X152500000Y-109095166D01*
X152487896Y-109072521D01*
X152433617Y-109006383D01*
X152367479Y-108952104D01*
X152292023Y-108911772D01*
X152210147Y-108886935D01*
X152125000Y-108878549D01*
X151855000Y-108878549D01*
X151769853Y-108886935D01*
X151758267Y-108890450D01*
X151744990Y-108877173D01*
X151744990Y-105852426D01*
X151752969Y-105826123D01*
X151761451Y-105740000D01*
X151761451Y-105400000D01*
X151752969Y-105313877D01*
X151727848Y-105231064D01*
X151687053Y-105154743D01*
X151632153Y-105087847D01*
X151565257Y-105032947D01*
X151488936Y-104992152D01*
X151406123Y-104967031D01*
X151320000Y-104958549D01*
X151040000Y-104958549D01*
X150953877Y-104967031D01*
X150871064Y-104992152D01*
X150794743Y-105032947D01*
X150780056Y-105045000D01*
X150254729Y-105045000D01*
X150222763Y-105027914D01*
X150138074Y-105002224D01*
X150050000Y-104993549D01*
X148400000Y-104993549D01*
X148311926Y-105002224D01*
X148227237Y-105027914D01*
X148195271Y-105045000D01*
X147841834Y-105045000D01*
X147736574Y-104974668D01*
X147609182Y-104921901D01*
X147473944Y-104895000D01*
X147336056Y-104895000D01*
X147200818Y-104921901D01*
X147073426Y-104974668D01*
X146958776Y-105051274D01*
X146861274Y-105148776D01*
X146784668Y-105263426D01*
X146731901Y-105390818D01*
X146705000Y-105526056D01*
X146560000Y-105526056D01*
X146560000Y-104579413D01*
X146603617Y-104543617D01*
X146657896Y-104477479D01*
X146698228Y-104402023D01*
X146723065Y-104320147D01*
X146731451Y-104235000D01*
X146731451Y-103865000D01*
X146723065Y-103779853D01*
X146698228Y-103697977D01*
X146657896Y-103622521D01*
X146603617Y-103556383D01*
X146560000Y-103520587D01*
X146560000Y-103417930D01*
X146596224Y-103393726D01*
X146693726Y-103296224D01*
X146770332Y-103181574D01*
X146823099Y-103054182D01*
X146850000Y-102918944D01*
X146850000Y-102781056D01*
X146823099Y-102645818D01*
X146770332Y-102518426D01*
X146693726Y-102403776D01*
X146689950Y-102400000D01*
X147480354Y-102400000D01*
X147500000Y-102401935D01*
X147519646Y-102400000D01*
X147519647Y-102400000D01*
X147578414Y-102394212D01*
X147653814Y-102371340D01*
X147723303Y-102334197D01*
X147784211Y-102284211D01*
X147796737Y-102268948D01*
X148258948Y-101806737D01*
X148274211Y-101794211D01*
X148324197Y-101733303D01*
X148361340Y-101663814D01*
X148384212Y-101588414D01*
X148390000Y-101529647D01*
X148390025Y-101529393D01*
X148433617Y-101493617D01*
X148487896Y-101427479D01*
X148500000Y-101404834D01*
X148512104Y-101427479D01*
X148566383Y-101493617D01*
X148632521Y-101547896D01*
X148707977Y-101588228D01*
X148789853Y-101613065D01*
X148875000Y-101621451D01*
X149145000Y-101621451D01*
X149230147Y-101613065D01*
X149312023Y-101588228D01*
X149387479Y-101547896D01*
X149453617Y-101493617D01*
X149507896Y-101427479D01*
X149548228Y-101352023D01*
X149573065Y-101270147D01*
X149581451Y-101185000D01*
X149581451Y-100815000D01*
X149573065Y-100729853D01*
X149548228Y-100647977D01*
X149507896Y-100572521D01*
X149453617Y-100506383D01*
X149422757Y-100481056D01*
X149830000Y-100481056D01*
X149830000Y-100618944D01*
X149856901Y-100754182D01*
X149909668Y-100881574D01*
X149986274Y-100996224D01*
X150083776Y-101093726D01*
X150130001Y-101124612D01*
X150130000Y-103520353D01*
X150128065Y-103540000D01*
X150130000Y-103559646D01*
X150135788Y-103618413D01*
X150158660Y-103693813D01*
X150195803Y-103763302D01*
X150245789Y-103824211D01*
X150261052Y-103836737D01*
X150853263Y-104428948D01*
X150865789Y-104444211D01*
X150926697Y-104494197D01*
X150996186Y-104531340D01*
X151071586Y-104554212D01*
X151130353Y-104560000D01*
X151130363Y-104560000D01*
X151149999Y-104561934D01*
X151169635Y-104560000D01*
X152604315Y-104560000D01*
X153500001Y-105455687D01*
X153500000Y-106080353D01*
X153498065Y-106100000D01*
X153500000Y-106119646D01*
X153500001Y-106119656D01*
X153500000Y-106830352D01*
X153498065Y-106850000D01*
X153500000Y-106869647D01*
X153500000Y-106919646D01*
X153500001Y-106919656D01*
X153500000Y-107580353D01*
X153498065Y-107600000D01*
X153500000Y-107619646D01*
X153505788Y-107678413D01*
X153528660Y-107753813D01*
X153565803Y-107823302D01*
X153615789Y-107884211D01*
X153631052Y-107896737D01*
X154138267Y-108403953D01*
X154150789Y-108419211D01*
X154166047Y-108431733D01*
X154166049Y-108431735D01*
X154169049Y-108434197D01*
X154211697Y-108469197D01*
X154281186Y-108506340D01*
X154314237Y-108516366D01*
X154324632Y-108535813D01*
X154380776Y-108604224D01*
X154449187Y-108660368D01*
X154527237Y-108702086D01*
X154611926Y-108727776D01*
X154700000Y-108736451D01*
X156350000Y-108736451D01*
X156438074Y-108727776D01*
X156522763Y-108702086D01*
X156600813Y-108660368D01*
X156669224Y-108604224D01*
X156725368Y-108535813D01*
X156767086Y-108457763D01*
X156792776Y-108373074D01*
X156801451Y-108285000D01*
X156801451Y-107985000D01*
X156792776Y-107896926D01*
X156767086Y-107812237D01*
X156725368Y-107734187D01*
X156669224Y-107665776D01*
X156600813Y-107609632D01*
X156522763Y-107567914D01*
X156438074Y-107542224D01*
X156350000Y-107533549D01*
X154700000Y-107533549D01*
X154611926Y-107542224D01*
X154527237Y-107567914D01*
X154466216Y-107600530D01*
X154300000Y-107434315D01*
X154300000Y-107250000D01*
X154316180Y-107250000D01*
X154324632Y-107265813D01*
X154380776Y-107334224D01*
X154449187Y-107390368D01*
X154527237Y-107432086D01*
X154611926Y-107457776D01*
X154700000Y-107466451D01*
X156350000Y-107466451D01*
X156438074Y-107457776D01*
X156522763Y-107432086D01*
X156600813Y-107390368D01*
X156669224Y-107334224D01*
X156725368Y-107265813D01*
X156767086Y-107187763D01*
X156792776Y-107103074D01*
X156801451Y-107015000D01*
X156801451Y-106715000D01*
X156792776Y-106626926D01*
X156767086Y-106542237D01*
X156725368Y-106464187D01*
X156669224Y-106395776D01*
X156600813Y-106339632D01*
X156522763Y-106297914D01*
X156438074Y-106272224D01*
X156350000Y-106263549D01*
X154700000Y-106263549D01*
X154611926Y-106272224D01*
X154527237Y-106297914D01*
X154449187Y-106339632D01*
X154380776Y-106395776D01*
X154336275Y-106450000D01*
X154300000Y-106450000D01*
X154300000Y-106265685D01*
X154447062Y-106118624D01*
X154449187Y-106120368D01*
X154527237Y-106162086D01*
X154611926Y-106187776D01*
X154700000Y-106196451D01*
X156350000Y-106196451D01*
X156438074Y-106187776D01*
X156522763Y-106162086D01*
X156600813Y-106120368D01*
X156669224Y-106064224D01*
X156725368Y-105995813D01*
X156767086Y-105917763D01*
X156792776Y-105833074D01*
X156801451Y-105745000D01*
X156801451Y-105445000D01*
X156792776Y-105356926D01*
X156767086Y-105272237D01*
X156725368Y-105194187D01*
X156669224Y-105125776D01*
X156600813Y-105069632D01*
X156522763Y-105027914D01*
X156438074Y-105002224D01*
X156350000Y-104993549D01*
X154700000Y-104993549D01*
X154611926Y-105002224D01*
X154527237Y-105027914D01*
X154449187Y-105069632D01*
X154380776Y-105125776D01*
X154324632Y-105194187D01*
X154320043Y-105202773D01*
X154293940Y-105210691D01*
X154271340Y-105136186D01*
X154234197Y-105066697D01*
X154206499Y-105032947D01*
X154196735Y-105021049D01*
X154196733Y-105021047D01*
X154184211Y-105005789D01*
X154168953Y-104993267D01*
X153066737Y-103891052D01*
X153054211Y-103875789D01*
X152993303Y-103825803D01*
X152923814Y-103788660D01*
X152848414Y-103765788D01*
X152789647Y-103760000D01*
X152789646Y-103760000D01*
X152770000Y-103758065D01*
X152750354Y-103760000D01*
X151315685Y-103760000D01*
X150930000Y-103374315D01*
X150930000Y-101124612D01*
X150976224Y-101093726D01*
X151073726Y-100996224D01*
X151150332Y-100881574D01*
X151203099Y-100754182D01*
X151230000Y-100618944D01*
X151230000Y-100481056D01*
X151203099Y-100345818D01*
X151150332Y-100218426D01*
X151073726Y-100103776D01*
X150976224Y-100006274D01*
X150861574Y-99929668D01*
X150734182Y-99876901D01*
X150598944Y-99850000D01*
X150461056Y-99850000D01*
X150325818Y-99876901D01*
X150198426Y-99929668D01*
X150083776Y-100006274D01*
X149986274Y-100103776D01*
X149909668Y-100218426D01*
X149856901Y-100345818D01*
X149830000Y-100481056D01*
X149422757Y-100481056D01*
X149410000Y-100470587D01*
X149410000Y-100329635D01*
X149411934Y-100309999D01*
X149410000Y-100290363D01*
X149410000Y-100290353D01*
X149406026Y-100250000D01*
X149430354Y-100250000D01*
X149450000Y-100251935D01*
X149469646Y-100250000D01*
X149469647Y-100250000D01*
X149528414Y-100244212D01*
X149603814Y-100221340D01*
X149673303Y-100184197D01*
X149734211Y-100134211D01*
X149746737Y-100118948D01*
X150858948Y-99006737D01*
X150874211Y-98994211D01*
X150924197Y-98933303D01*
X150961340Y-98863814D01*
X150984212Y-98788414D01*
X150990000Y-98729647D01*
X150990000Y-98729637D01*
X150991934Y-98710001D01*
X150990000Y-98690365D01*
X150990000Y-98524954D01*
X151042153Y-98482153D01*
X151070000Y-98448221D01*
X151097847Y-98482153D01*
X151164743Y-98537053D01*
X151241064Y-98577848D01*
X151323877Y-98602969D01*
X151410000Y-98611451D01*
X151690000Y-98611451D01*
X151776123Y-98602969D01*
X151858936Y-98577848D01*
X151935257Y-98537053D01*
X151980406Y-98500000D01*
X152075440Y-98500000D01*
X152100000Y-98502419D01*
X152124560Y-98500000D01*
X152198017Y-98492765D01*
X152292267Y-98464175D01*
X152379129Y-98417746D01*
X152432469Y-98373971D01*
X153615000Y-98373971D01*
X153615000Y-98566029D01*
X153652468Y-98754397D01*
X153725966Y-98931836D01*
X153832668Y-99091527D01*
X153968473Y-99227332D01*
X154128164Y-99334034D01*
X154305603Y-99407532D01*
X154493971Y-99445000D01*
X154686029Y-99445000D01*
X154874397Y-99407532D01*
X155051836Y-99334034D01*
X155211527Y-99227332D01*
X155347332Y-99091527D01*
X155454034Y-98931836D01*
X155527532Y-98754397D01*
X155565000Y-98566029D01*
X155565000Y-98373971D01*
X155527532Y-98185603D01*
X155454034Y-98008164D01*
X155347332Y-97848473D01*
X155211527Y-97712668D01*
X155051836Y-97605966D01*
X154874397Y-97532468D01*
X154686029Y-97495000D01*
X154493971Y-97495000D01*
X154305603Y-97532468D01*
X154128164Y-97605966D01*
X153968473Y-97712668D01*
X153832668Y-97848473D01*
X153725966Y-98008164D01*
X153652468Y-98185603D01*
X153615000Y-98373971D01*
X152432469Y-98373971D01*
X152455264Y-98355264D01*
X152470929Y-98336176D01*
X152881181Y-97925925D01*
X152900264Y-97910264D01*
X152962746Y-97834129D01*
X153009175Y-97747267D01*
X153029820Y-97679210D01*
X153037765Y-97653018D01*
X153047419Y-97555001D01*
X153045000Y-97530441D01*
X153045000Y-96265000D01*
X153260440Y-96265000D01*
X153285000Y-96267419D01*
X153309560Y-96265000D01*
X153383017Y-96257765D01*
X153477267Y-96229175D01*
X153564129Y-96182746D01*
X153640264Y-96120264D01*
X153655929Y-96101176D01*
X153709720Y-96047385D01*
X153652468Y-96185603D01*
X153615000Y-96373971D01*
X153615000Y-96566029D01*
X153652468Y-96754397D01*
X153725966Y-96931836D01*
X153832668Y-97091527D01*
X153968473Y-97227332D01*
X154128164Y-97334034D01*
X154305603Y-97407532D01*
X154493971Y-97445000D01*
X154686029Y-97445000D01*
X154874397Y-97407532D01*
X155051836Y-97334034D01*
X155211527Y-97227332D01*
X155347332Y-97091527D01*
X155454034Y-96931836D01*
X155527532Y-96754397D01*
X155565000Y-96566029D01*
X155565000Y-96373971D01*
X155527532Y-96185603D01*
X155454034Y-96008164D01*
X155347332Y-95848473D01*
X155211527Y-95712668D01*
X155051836Y-95605966D01*
X154874397Y-95532468D01*
X154686029Y-95495000D01*
X154493971Y-95495000D01*
X154305603Y-95532468D01*
X154167386Y-95589720D01*
X154281181Y-95475925D01*
X154300264Y-95460264D01*
X154311600Y-95446451D01*
X155265000Y-95446451D01*
X155323810Y-95440659D01*
X155380360Y-95423504D01*
X155432477Y-95395647D01*
X155478158Y-95358158D01*
X155515647Y-95312477D01*
X155543504Y-95260360D01*
X155560659Y-95203810D01*
X155566451Y-95145000D01*
X155566451Y-94325000D01*
X157023549Y-94325000D01*
X157023549Y-95675000D01*
X157029341Y-95733810D01*
X157046496Y-95790360D01*
X157074353Y-95842477D01*
X157111842Y-95888158D01*
X157157523Y-95925647D01*
X157209640Y-95953504D01*
X157266190Y-95970659D01*
X157325000Y-95976451D01*
X158675000Y-95976451D01*
X158733810Y-95970659D01*
X158790360Y-95953504D01*
X158842477Y-95925647D01*
X158888158Y-95888158D01*
X158925647Y-95842477D01*
X158953504Y-95790360D01*
X158970659Y-95733810D01*
X158976451Y-95675000D01*
X158976451Y-95400000D01*
X159084315Y-95400000D01*
X159350000Y-95665686D01*
X159350001Y-98230344D01*
X159348065Y-98250000D01*
X159355788Y-98328413D01*
X159378661Y-98403814D01*
X159415803Y-98473302D01*
X159453265Y-98518950D01*
X159453268Y-98518953D01*
X159465790Y-98534211D01*
X159481048Y-98546733D01*
X161203263Y-100268948D01*
X161215789Y-100284211D01*
X161245629Y-100308700D01*
X161276697Y-100334197D01*
X161346186Y-100371340D01*
X161421586Y-100394212D01*
X161500000Y-100401935D01*
X161519647Y-100400000D01*
X163084315Y-100400000D01*
X163100000Y-100415685D01*
X163100000Y-100551424D01*
X163056842Y-100586843D01*
X163019353Y-100632524D01*
X162991496Y-100684641D01*
X162974341Y-100741191D01*
X162968549Y-100800001D01*
X162968549Y-101899999D01*
X162974341Y-101958809D01*
X162991496Y-102015359D01*
X163019353Y-102067476D01*
X163056842Y-102113157D01*
X163102523Y-102150646D01*
X163154640Y-102178503D01*
X163211190Y-102195658D01*
X163270000Y-102201450D01*
X163730000Y-102201450D01*
X163788810Y-102195658D01*
X163845360Y-102178503D01*
X163897477Y-102150646D01*
X163943158Y-102113157D01*
X163980647Y-102067476D01*
X164008504Y-102015359D01*
X164025659Y-101958809D01*
X164031451Y-101899999D01*
X164031451Y-100800001D01*
X164025659Y-100741191D01*
X164008504Y-100684641D01*
X163980647Y-100632524D01*
X163943158Y-100586843D01*
X163900000Y-100551425D01*
X163900000Y-100269635D01*
X163901934Y-100249999D01*
X163900000Y-100230363D01*
X163900000Y-100230353D01*
X163894212Y-100171586D01*
X163871340Y-100096186D01*
X163834197Y-100026697D01*
X163784211Y-99965789D01*
X163768944Y-99953260D01*
X163546735Y-99731050D01*
X163534211Y-99715789D01*
X163473303Y-99665803D01*
X163403814Y-99628660D01*
X163328414Y-99605788D01*
X163269647Y-99600000D01*
X163269646Y-99600000D01*
X163250000Y-99598065D01*
X163230354Y-99600000D01*
X161665685Y-99600000D01*
X160150000Y-98084315D01*
X160150000Y-95519647D01*
X160151935Y-95500000D01*
X160149770Y-95478013D01*
X160144212Y-95421586D01*
X160121340Y-95346186D01*
X160084197Y-95276697D01*
X160064273Y-95252419D01*
X160046735Y-95231049D01*
X160046733Y-95231047D01*
X160034211Y-95215789D01*
X160018954Y-95203268D01*
X159546737Y-94731052D01*
X159534211Y-94715789D01*
X159473303Y-94665803D01*
X159403814Y-94628660D01*
X159328414Y-94605788D01*
X159269647Y-94600000D01*
X159269646Y-94600000D01*
X159250000Y-94598065D01*
X159230354Y-94600000D01*
X158976451Y-94600000D01*
X158976451Y-94325000D01*
X160523549Y-94325000D01*
X160523549Y-95675000D01*
X160529341Y-95733810D01*
X160546496Y-95790360D01*
X160574353Y-95842477D01*
X160611842Y-95888158D01*
X160657523Y-95925647D01*
X160709640Y-95953504D01*
X160766190Y-95970659D01*
X160825000Y-95976451D01*
X162175000Y-95976451D01*
X162233810Y-95970659D01*
X162290360Y-95953504D01*
X162342477Y-95925647D01*
X162388158Y-95888158D01*
X162425647Y-95842477D01*
X162453504Y-95790360D01*
X162470659Y-95733810D01*
X162476451Y-95675000D01*
X162476451Y-95542136D01*
X165600000Y-98665685D01*
X165600001Y-100551424D01*
X165556842Y-100586843D01*
X165519353Y-100632524D01*
X165491496Y-100684641D01*
X165474341Y-100741191D01*
X165468549Y-100800001D01*
X165468549Y-101899999D01*
X165474341Y-101958809D01*
X165491496Y-102015359D01*
X165519353Y-102067476D01*
X165556842Y-102113157D01*
X165602523Y-102150646D01*
X165654640Y-102178503D01*
X165711190Y-102195658D01*
X165770000Y-102201450D01*
X166230000Y-102201450D01*
X166288810Y-102195658D01*
X166345360Y-102178503D01*
X166397477Y-102150646D01*
X166443158Y-102113157D01*
X166480647Y-102067476D01*
X166508504Y-102015359D01*
X166525659Y-101958809D01*
X166531451Y-101899999D01*
X166531451Y-100800001D01*
X166525659Y-100741191D01*
X166508504Y-100684641D01*
X166480647Y-100632524D01*
X166443158Y-100586843D01*
X166400000Y-100551425D01*
X166400000Y-98519635D01*
X166401934Y-98499999D01*
X166400000Y-98480363D01*
X166400000Y-98480353D01*
X166394212Y-98421586D01*
X166371340Y-98346186D01*
X166334197Y-98276697D01*
X166284211Y-98215789D01*
X166268949Y-98203264D01*
X162796737Y-94731052D01*
X162784211Y-94715789D01*
X162723303Y-94665803D01*
X162653814Y-94628660D01*
X162578414Y-94605788D01*
X162519647Y-94600000D01*
X162519646Y-94600000D01*
X162500000Y-94598065D01*
X162480354Y-94600000D01*
X162476451Y-94600000D01*
X162476451Y-94325000D01*
X162470659Y-94266190D01*
X162453504Y-94209640D01*
X162425647Y-94157523D01*
X162388158Y-94111842D01*
X162342477Y-94074353D01*
X162290360Y-94046496D01*
X162233810Y-94029341D01*
X162175000Y-94023549D01*
X160825000Y-94023549D01*
X160766190Y-94029341D01*
X160709640Y-94046496D01*
X160657523Y-94074353D01*
X160611842Y-94111842D01*
X160574353Y-94157523D01*
X160546496Y-94209640D01*
X160529341Y-94266190D01*
X160523549Y-94325000D01*
X158976451Y-94325000D01*
X158970659Y-94266190D01*
X158953504Y-94209640D01*
X158925647Y-94157523D01*
X158888158Y-94111842D01*
X158842477Y-94074353D01*
X158790360Y-94046496D01*
X158733810Y-94029341D01*
X158675000Y-94023549D01*
X157325000Y-94023549D01*
X157266190Y-94029341D01*
X157209640Y-94046496D01*
X157157523Y-94074353D01*
X157111842Y-94111842D01*
X157074353Y-94157523D01*
X157046496Y-94209640D01*
X157029341Y-94266190D01*
X157023549Y-94325000D01*
X155566451Y-94325000D01*
X155566451Y-93795000D01*
X155560659Y-93736190D01*
X155543504Y-93679640D01*
X155515647Y-93627523D01*
X155478158Y-93581842D01*
X155432477Y-93544353D01*
X155380360Y-93516496D01*
X155323810Y-93499341D01*
X155265000Y-93493549D01*
X154300654Y-93493549D01*
X154255929Y-93448824D01*
X154240264Y-93429736D01*
X154164129Y-93367254D01*
X154077267Y-93320825D01*
X153983017Y-93292235D01*
X153909560Y-93285000D01*
X153885000Y-93282581D01*
X153860440Y-93285000D01*
X151770117Y-93285000D01*
X151730000Y-93281049D01*
X150740000Y-93281049D01*
X150681190Y-93286841D01*
X150624640Y-93303996D01*
X150572523Y-93331853D01*
X150543040Y-93356049D01*
X149495000Y-93356049D01*
X149436190Y-93361841D01*
X149379640Y-93378996D01*
X149327523Y-93406853D01*
X149281842Y-93444342D01*
X149244353Y-93490023D01*
X149216496Y-93542140D01*
X149199341Y-93598690D01*
X149193549Y-93657500D01*
X149193549Y-95892500D01*
X149199341Y-95951310D01*
X149216496Y-96007860D01*
X149244353Y-96059977D01*
X149281842Y-96105658D01*
X149327523Y-96143147D01*
X149379640Y-96171004D01*
X149436190Y-96188159D01*
X149495000Y-96193951D01*
X150543040Y-96193951D01*
X150572523Y-96218147D01*
X150624640Y-96246004D01*
X150681190Y-96263159D01*
X150740000Y-96268951D01*
X151730000Y-96268951D01*
X151770117Y-96265000D01*
X152045001Y-96265000D01*
X152045000Y-97347894D01*
X151931797Y-97461098D01*
X151858936Y-97422152D01*
X151776123Y-97397031D01*
X151690000Y-97388549D01*
X151410000Y-97388549D01*
X151323877Y-97397031D01*
X151241064Y-97422152D01*
X151164743Y-97462947D01*
X151097847Y-97517847D01*
X151070000Y-97551779D01*
X151042153Y-97517847D01*
X150975257Y-97462947D01*
X150898936Y-97422152D01*
X150816123Y-97397031D01*
X150730000Y-97388549D01*
X150450000Y-97388549D01*
X150363877Y-97397031D01*
X150281064Y-97422152D01*
X150204743Y-97462947D01*
X150137847Y-97517847D01*
X150082947Y-97584743D01*
X150042152Y-97661064D01*
X150017031Y-97743877D01*
X150008549Y-97830000D01*
X150008549Y-98170000D01*
X150017031Y-98256123D01*
X150042152Y-98338936D01*
X150082947Y-98415257D01*
X150137847Y-98482153D01*
X150190001Y-98524954D01*
X150190001Y-98544314D01*
X149284315Y-99450000D01*
X148569646Y-99450000D01*
X148550000Y-99448065D01*
X148530354Y-99450000D01*
X148212003Y-99450000D01*
X148296224Y-99393726D01*
X148393726Y-99296224D01*
X148470332Y-99181574D01*
X148523099Y-99054182D01*
X148550000Y-98918944D01*
X148550000Y-98781056D01*
X148523099Y-98645818D01*
X148470332Y-98518426D01*
X148393726Y-98403776D01*
X148296224Y-98306274D01*
X148250000Y-98275388D01*
X148250000Y-97982584D01*
X148277479Y-97967896D01*
X148343617Y-97913617D01*
X148397896Y-97847479D01*
X148438228Y-97772023D01*
X148463065Y-97690147D01*
X148471451Y-97605000D01*
X148471451Y-97235000D01*
X148463065Y-97149853D01*
X148438228Y-97067977D01*
X148397896Y-96992521D01*
X148343617Y-96926383D01*
X148277479Y-96872104D01*
X148202023Y-96831772D01*
X148120147Y-96806935D01*
X148035000Y-96798549D01*
X147951358Y-96798549D01*
X147940000Y-96787191D01*
X147940000Y-96268951D01*
X148860000Y-96268951D01*
X148918810Y-96263159D01*
X148975360Y-96246004D01*
X149027477Y-96218147D01*
X149073158Y-96180658D01*
X149110647Y-96134977D01*
X149138504Y-96082860D01*
X149155659Y-96026310D01*
X149161451Y-95967500D01*
X149161451Y-95562500D01*
X149155659Y-95503690D01*
X149138504Y-95447140D01*
X149132015Y-95435000D01*
X149138504Y-95422860D01*
X149155659Y-95366310D01*
X149161451Y-95307500D01*
X149161451Y-94902500D01*
X149155659Y-94843690D01*
X149138504Y-94787140D01*
X149132015Y-94775000D01*
X149138504Y-94762860D01*
X149155659Y-94706310D01*
X149161451Y-94647500D01*
X149161451Y-94242500D01*
X149155659Y-94183690D01*
X149138504Y-94127140D01*
X149132015Y-94115000D01*
X149138504Y-94102860D01*
X149155659Y-94046310D01*
X149161451Y-93987500D01*
X149161451Y-93582500D01*
X149155659Y-93523690D01*
X149138504Y-93467140D01*
X149110647Y-93415023D01*
X149073158Y-93369342D01*
X149027477Y-93331853D01*
X148975360Y-93303996D01*
X148918810Y-93286841D01*
X148860000Y-93281049D01*
X147870000Y-93281049D01*
X147829883Y-93285000D01*
X146872511Y-93285000D01*
X146865855Y-93217416D01*
X146834474Y-93113968D01*
X146783515Y-93018630D01*
X146714935Y-92935065D01*
X146631370Y-92866485D01*
X146536032Y-92815526D01*
X146432584Y-92784145D01*
X146325001Y-92773549D01*
X145474999Y-92773549D01*
X145367416Y-92784145D01*
X145263968Y-92815526D01*
X145168630Y-92866485D01*
X145085065Y-92935065D01*
X145016485Y-93018630D01*
X144965526Y-93113968D01*
X144934145Y-93217416D01*
X144923549Y-93324999D01*
X144923549Y-96175001D01*
X144934145Y-96282584D01*
X144965526Y-96386032D01*
X145016485Y-96481370D01*
X145085065Y-96564935D01*
X145168630Y-96633515D01*
X145263968Y-96684474D01*
X145350001Y-96710572D01*
X145350001Y-96752982D01*
X145347340Y-96780000D01*
X145350001Y-96807018D01*
X145356204Y-96870000D01*
X144597007Y-96870000D01*
X144569999Y-96867340D01*
X144542991Y-96870000D01*
X144542982Y-96870000D01*
X144462181Y-96877958D01*
X144358506Y-96909408D01*
X144326748Y-96926383D01*
X144262957Y-96960479D01*
X144200195Y-97011987D01*
X144200190Y-97011992D01*
X144179210Y-97029210D01*
X144161992Y-97050190D01*
X140580196Y-100631987D01*
X140559210Y-100649210D01*
X140490479Y-100732958D01*
X140439408Y-100828507D01*
X140407958Y-100932182D01*
X140400000Y-101012983D01*
X140400000Y-101012992D01*
X140397340Y-101040000D01*
X140400000Y-101067008D01*
X140400001Y-104298549D01*
X140300000Y-104298549D01*
X140241190Y-104304341D01*
X140184640Y-104321496D01*
X140132523Y-104349353D01*
X140086842Y-104386842D01*
X140049353Y-104432523D01*
X140021496Y-104484640D01*
X140004341Y-104541190D01*
X139998549Y-104600000D01*
X139601451Y-104600000D01*
X139595659Y-104541190D01*
X139578504Y-104484640D01*
X139550647Y-104432523D01*
X139513158Y-104386842D01*
X139467477Y-104349353D01*
X139415360Y-104321496D01*
X139358810Y-104304341D01*
X139300000Y-104298549D01*
X139050000Y-104298549D01*
X139050000Y-104171206D01*
X139083617Y-104143617D01*
X139137896Y-104077479D01*
X139178228Y-104002023D01*
X139203065Y-103920147D01*
X139211451Y-103835000D01*
X139211451Y-103465000D01*
X139203065Y-103379853D01*
X139178228Y-103297977D01*
X139137896Y-103222521D01*
X139083617Y-103156383D01*
X139017479Y-103102104D01*
X138942023Y-103061772D01*
X138860147Y-103036935D01*
X138775000Y-103028549D01*
X138584234Y-103028549D01*
X138406738Y-102851053D01*
X138394212Y-102835790D01*
X138333304Y-102785804D01*
X138263815Y-102748661D01*
X138188415Y-102725789D01*
X138129648Y-102720001D01*
X138129647Y-102720001D01*
X138110001Y-102718066D01*
X138090355Y-102720001D01*
X136304611Y-102720001D01*
X136350332Y-102651574D01*
X136403099Y-102524182D01*
X136430000Y-102388944D01*
X136430000Y-102251056D01*
X136403099Y-102115818D01*
X136350332Y-101988426D01*
X136273726Y-101873776D01*
X136176224Y-101776274D01*
X136061574Y-101699668D01*
X135934182Y-101646901D01*
X135798944Y-101620000D01*
X135661056Y-101620000D01*
X135525818Y-101646901D01*
X135398426Y-101699668D01*
X135283776Y-101776274D01*
X135186274Y-101873776D01*
X135155388Y-101920000D01*
X134125686Y-101920000D01*
X133969243Y-101763557D01*
X133990647Y-101737476D01*
X134018504Y-101685359D01*
X134035659Y-101628809D01*
X134041451Y-101569999D01*
X134041451Y-101431056D01*
X138770000Y-101431056D01*
X138770000Y-101568944D01*
X138796901Y-101704182D01*
X138849668Y-101831574D01*
X138926274Y-101946224D01*
X139023776Y-102043726D01*
X139138426Y-102120332D01*
X139265818Y-102173099D01*
X139401056Y-102200000D01*
X139538944Y-102200000D01*
X139674182Y-102173099D01*
X139801574Y-102120332D01*
X139916224Y-102043726D01*
X140013726Y-101946224D01*
X140090332Y-101831574D01*
X140143099Y-101704182D01*
X140170000Y-101568944D01*
X140170000Y-101431056D01*
X140143099Y-101295818D01*
X140090332Y-101168426D01*
X140013726Y-101053776D01*
X139916224Y-100956274D01*
X139900000Y-100945434D01*
X139900000Y-100487620D01*
X139953617Y-100443617D01*
X140007896Y-100377479D01*
X140048228Y-100302023D01*
X140073065Y-100220147D01*
X140081451Y-100135000D01*
X140081451Y-99765000D01*
X140073065Y-99679853D01*
X140048228Y-99597977D01*
X140007896Y-99522521D01*
X139953617Y-99456383D01*
X139887479Y-99402104D01*
X139812023Y-99361772D01*
X139730147Y-99336935D01*
X139645000Y-99328549D01*
X139375000Y-99328549D01*
X139289853Y-99336935D01*
X139207977Y-99361772D01*
X139132521Y-99402104D01*
X139066383Y-99456383D01*
X139012104Y-99522521D01*
X138971772Y-99597977D01*
X138946935Y-99679853D01*
X138938549Y-99765000D01*
X138938549Y-100135000D01*
X138946935Y-100220147D01*
X138971772Y-100302023D01*
X139012104Y-100377479D01*
X139066383Y-100443617D01*
X139100000Y-100471207D01*
X139100001Y-100905343D01*
X139023776Y-100956274D01*
X138926274Y-101053776D01*
X138849668Y-101168426D01*
X138796901Y-101295818D01*
X138770000Y-101431056D01*
X134041451Y-101431056D01*
X134041451Y-100470001D01*
X134035659Y-100411191D01*
X134018504Y-100354641D01*
X133990647Y-100302524D01*
X133953158Y-100256843D01*
X133907477Y-100219354D01*
X133855360Y-100191497D01*
X133798810Y-100174342D01*
X133740000Y-100168550D01*
X133280000Y-100168550D01*
X133221190Y-100174342D01*
X133164640Y-100191497D01*
X133112523Y-100219354D01*
X133066842Y-100256843D01*
X133029353Y-100302524D01*
X133001496Y-100354641D01*
X132984341Y-100411191D01*
X132978549Y-100470001D01*
X132978549Y-101569999D01*
X132984341Y-101628809D01*
X133001496Y-101685359D01*
X133029353Y-101737476D01*
X133066842Y-101783157D01*
X133110000Y-101818575D01*
X133110000Y-101850354D01*
X133108065Y-101870000D01*
X133110000Y-101889646D01*
X133115788Y-101948413D01*
X133138660Y-102023813D01*
X133158003Y-102060000D01*
X130066747Y-102060000D01*
X130032153Y-102017847D01*
X129965257Y-101962947D01*
X129890000Y-101922721D01*
X129890000Y-101748575D01*
X129933158Y-101713157D01*
X129970647Y-101667476D01*
X129998504Y-101615359D01*
X130015659Y-101558809D01*
X130021451Y-101499999D01*
X130021451Y-100400001D01*
X130015659Y-100341191D01*
X129998504Y-100284641D01*
X129970647Y-100232524D01*
X129933158Y-100186843D01*
X129887477Y-100149354D01*
X129835360Y-100121497D01*
X129778810Y-100104342D01*
X129720000Y-100098550D01*
X129260000Y-100098550D01*
X129201190Y-100104342D01*
X129144640Y-100121497D01*
X129092523Y-100149354D01*
X129046842Y-100186843D01*
X129009353Y-100232524D01*
X128981496Y-100284641D01*
X128964341Y-100341191D01*
X128958549Y-100400001D01*
X128958549Y-101499999D01*
X128964341Y-101558809D01*
X128981496Y-101615359D01*
X129009353Y-101667476D01*
X129046842Y-101713157D01*
X129090001Y-101748576D01*
X129090001Y-101999666D01*
X129067847Y-102017847D01*
X129012947Y-102084743D01*
X128972152Y-102161064D01*
X128947031Y-102243877D01*
X128938549Y-102330000D01*
X128938549Y-102610000D01*
X128947031Y-102696123D01*
X128972152Y-102778936D01*
X129012947Y-102855257D01*
X129067847Y-102922153D01*
X129134743Y-102977053D01*
X129211064Y-103017848D01*
X129293877Y-103042969D01*
X129380000Y-103051451D01*
X129720000Y-103051451D01*
X129806123Y-103042969D01*
X129888936Y-103017848D01*
X129965257Y-102977053D01*
X130032153Y-102922153D01*
X130083161Y-102860000D01*
X132715909Y-102860000D01*
X132668426Y-102879668D01*
X132553776Y-102956274D01*
X132456274Y-103053776D01*
X132379668Y-103168426D01*
X132326901Y-103295818D01*
X132300000Y-103431056D01*
X132300000Y-103568944D01*
X132326901Y-103704182D01*
X132379668Y-103831574D01*
X132456274Y-103946224D01*
X132553776Y-104043726D01*
X132668426Y-104120332D01*
X132795818Y-104173099D01*
X132850001Y-104183877D01*
X132850001Y-104298549D01*
X132600000Y-104298549D01*
X132541190Y-104304341D01*
X132484640Y-104321496D01*
X132432523Y-104349353D01*
X132386842Y-104386842D01*
X132349353Y-104432523D01*
X132321496Y-104484640D01*
X132304341Y-104541190D01*
X132298549Y-104600000D01*
X132298549Y-105900000D01*
X132304341Y-105958810D01*
X132321496Y-106015360D01*
X132349353Y-106067477D01*
X132386842Y-106113158D01*
X132432523Y-106150647D01*
X132484640Y-106178504D01*
X132541190Y-106195659D01*
X132600000Y-106201451D01*
X133900000Y-106201451D01*
X133958810Y-106195659D01*
X134015360Y-106178504D01*
X134067477Y-106150647D01*
X134113158Y-106113158D01*
X134150647Y-106067477D01*
X134178504Y-106015360D01*
X134195659Y-105958810D01*
X134201451Y-105900000D01*
X134201451Y-104600000D01*
X134195659Y-104541190D01*
X134178504Y-104484640D01*
X134150647Y-104432523D01*
X134113158Y-104386842D01*
X134067477Y-104349353D01*
X134015360Y-104321496D01*
X133958810Y-104304341D01*
X133900000Y-104298549D01*
X133650000Y-104298549D01*
X133650000Y-103769635D01*
X133651252Y-103756927D01*
X133673099Y-103704182D01*
X133700000Y-103568944D01*
X133700000Y-103431056D01*
X133675603Y-103308408D01*
X133756144Y-103388949D01*
X133768670Y-103404212D01*
X133829578Y-103454198D01*
X133899067Y-103491341D01*
X133974467Y-103514213D01*
X134033234Y-103520001D01*
X134033244Y-103520001D01*
X134052880Y-103521935D01*
X134072516Y-103520001D01*
X137944316Y-103520001D01*
X138068549Y-103644234D01*
X138068549Y-103835000D01*
X138076935Y-103920147D01*
X138101772Y-104002023D01*
X138142104Y-104077479D01*
X138196383Y-104143617D01*
X138250001Y-104187621D01*
X138250001Y-104298549D01*
X138000000Y-104298549D01*
X137941190Y-104304341D01*
X137884640Y-104321496D01*
X137832523Y-104349353D01*
X137786842Y-104386842D01*
X137749353Y-104432523D01*
X137721496Y-104484640D01*
X137704341Y-104541190D01*
X137698549Y-104600000D01*
X137698549Y-104865825D01*
X137643726Y-104783776D01*
X137546224Y-104686274D01*
X137431574Y-104609668D01*
X137304182Y-104556901D01*
X137168944Y-104530000D01*
X137031056Y-104530000D01*
X136895818Y-104556901D01*
X136768426Y-104609668D01*
X136653776Y-104686274D01*
X136640050Y-104700000D01*
X136501451Y-104700000D01*
X136501451Y-104600000D01*
X136495659Y-104541190D01*
X136478504Y-104484640D01*
X136450647Y-104432523D01*
X136413158Y-104386842D01*
X136367477Y-104349353D01*
X136315360Y-104321496D01*
X136258810Y-104304341D01*
X136200000Y-104298549D01*
X134900000Y-104298549D01*
X134841190Y-104304341D01*
X134784640Y-104321496D01*
X134732523Y-104349353D01*
X134686842Y-104386842D01*
X134649353Y-104432523D01*
X134621496Y-104484640D01*
X134604341Y-104541190D01*
X134598549Y-104600000D01*
X134598549Y-105900000D01*
X134604341Y-105958810D01*
X134621496Y-106015360D01*
X134649353Y-106067477D01*
X134686842Y-106113158D01*
X134732523Y-106150647D01*
X134784640Y-106178504D01*
X134841190Y-106195659D01*
X134900000Y-106201451D01*
X135000001Y-106201451D01*
X135000000Y-107382183D01*
X134030191Y-108351992D01*
X134009211Y-108369210D01*
X133991993Y-108390190D01*
X133991987Y-108390196D01*
X133940479Y-108452958D01*
X133911947Y-108506340D01*
X133889409Y-108548506D01*
X133859778Y-108646187D01*
X133857959Y-108652182D01*
X133847340Y-108760000D01*
X133850001Y-108787018D01*
X133850000Y-109798549D01*
X133400000Y-109798549D01*
X133341190Y-109804341D01*
X133284640Y-109821496D01*
X133232523Y-109849353D01*
X133186842Y-109886842D01*
X133149353Y-109932523D01*
X133121496Y-109984640D01*
X133104341Y-110041190D01*
X133098549Y-110100000D01*
X133098549Y-111400000D01*
X133104341Y-111458810D01*
X133121496Y-111515360D01*
X133149353Y-111567477D01*
X133186842Y-111613158D01*
X133231735Y-111650000D01*
X127850000Y-111650000D01*
X127850000Y-98070000D01*
X128937340Y-98070000D01*
X128940000Y-98097008D01*
X128940000Y-98677018D01*
X128947958Y-98757819D01*
X128958549Y-98792731D01*
X128958549Y-99199999D01*
X128964341Y-99258809D01*
X128981496Y-99315359D01*
X129009353Y-99367476D01*
X129046842Y-99413157D01*
X129092523Y-99450646D01*
X129144640Y-99478503D01*
X129201190Y-99495658D01*
X129260000Y-99501450D01*
X129720000Y-99501450D01*
X129778810Y-99495658D01*
X129835360Y-99478503D01*
X129887477Y-99450646D01*
X129933158Y-99413157D01*
X129970647Y-99367476D01*
X129998504Y-99315359D01*
X130015659Y-99258809D01*
X130021451Y-99199999D01*
X130021451Y-98792732D01*
X130032042Y-98757819D01*
X130040000Y-98677018D01*
X130040000Y-98297817D01*
X130157818Y-98180000D01*
X130562183Y-98180000D01*
X130732203Y-98350020D01*
X130756901Y-98474182D01*
X130809668Y-98601574D01*
X130886274Y-98716224D01*
X130983776Y-98813726D01*
X131098426Y-98890332D01*
X131225818Y-98943099D01*
X131361056Y-98970000D01*
X131498944Y-98970000D01*
X131634182Y-98943099D01*
X131761574Y-98890332D01*
X131876224Y-98813726D01*
X131973726Y-98716224D01*
X132050332Y-98601574D01*
X132103099Y-98474182D01*
X132130000Y-98338944D01*
X132130000Y-98201056D01*
X132123823Y-98170001D01*
X132978549Y-98170001D01*
X132978549Y-99269999D01*
X132984341Y-99328809D01*
X133001496Y-99385359D01*
X133029353Y-99437476D01*
X133066842Y-99483157D01*
X133112523Y-99520646D01*
X133164640Y-99548503D01*
X133221190Y-99565658D01*
X133280000Y-99571450D01*
X133740000Y-99571450D01*
X133798810Y-99565658D01*
X133855360Y-99548503D01*
X133907477Y-99520646D01*
X133953158Y-99483157D01*
X133990647Y-99437476D01*
X134018504Y-99385359D01*
X134035659Y-99328809D01*
X134041451Y-99269999D01*
X134041451Y-98310000D01*
X134204315Y-98310000D01*
X135253267Y-99358953D01*
X135265789Y-99374211D01*
X135281047Y-99386733D01*
X135281049Y-99386735D01*
X135311031Y-99411340D01*
X135326697Y-99424197D01*
X135396186Y-99461340D01*
X135453287Y-99478661D01*
X135471586Y-99484212D01*
X135549999Y-99491935D01*
X135569646Y-99490000D01*
X136385388Y-99490000D01*
X136416274Y-99536224D01*
X136513776Y-99633726D01*
X136628426Y-99710332D01*
X136755818Y-99763099D01*
X136891056Y-99790000D01*
X137028944Y-99790000D01*
X137164182Y-99763099D01*
X137291574Y-99710332D01*
X137406224Y-99633726D01*
X137503726Y-99536224D01*
X137580332Y-99421574D01*
X137633099Y-99294182D01*
X137660000Y-99158944D01*
X137660000Y-99021056D01*
X137633099Y-98885818D01*
X137580332Y-98758426D01*
X137503726Y-98643776D01*
X137406224Y-98546274D01*
X137291574Y-98469668D01*
X137164182Y-98416901D01*
X137028944Y-98390000D01*
X136891056Y-98390000D01*
X136755818Y-98416901D01*
X136628426Y-98469668D01*
X136513776Y-98546274D01*
X136416274Y-98643776D01*
X136385388Y-98690000D01*
X135715686Y-98690000D01*
X134666737Y-97641052D01*
X134654211Y-97625789D01*
X134593303Y-97575803D01*
X134523814Y-97538660D01*
X134448414Y-97515788D01*
X134389647Y-97510000D01*
X134389646Y-97510000D01*
X134370000Y-97508065D01*
X134350354Y-97510000D01*
X133759635Y-97510000D01*
X133739999Y-97508066D01*
X133720363Y-97510000D01*
X133720353Y-97510000D01*
X133661586Y-97515788D01*
X133586186Y-97538660D01*
X133516697Y-97575803D01*
X133455789Y-97625789D01*
X133443263Y-97641052D01*
X133241048Y-97843267D01*
X133225790Y-97855789D01*
X133213268Y-97871047D01*
X133213265Y-97871050D01*
X133207041Y-97878634D01*
X133164640Y-97891497D01*
X133112523Y-97919354D01*
X133066842Y-97956843D01*
X133029353Y-98002524D01*
X133001496Y-98054641D01*
X132984341Y-98111191D01*
X132978549Y-98170001D01*
X132123823Y-98170001D01*
X132103099Y-98065818D01*
X132050332Y-97938426D01*
X131973726Y-97823776D01*
X131876224Y-97726274D01*
X131761574Y-97649668D01*
X131634182Y-97596901D01*
X131510020Y-97572203D01*
X131198013Y-97260196D01*
X131180790Y-97239210D01*
X131143378Y-97208506D01*
X131097042Y-97170479D01*
X131075680Y-97159061D01*
X131001494Y-97119408D01*
X130897819Y-97087958D01*
X130817018Y-97080000D01*
X130817008Y-97080000D01*
X130790000Y-97077340D01*
X130762992Y-97080000D01*
X129957008Y-97080000D01*
X129930000Y-97077340D01*
X129902992Y-97080000D01*
X129902982Y-97080000D01*
X129822181Y-97087958D01*
X129718506Y-97119408D01*
X129674028Y-97143182D01*
X129622957Y-97170479D01*
X129560195Y-97221987D01*
X129560190Y-97221992D01*
X129539210Y-97239210D01*
X129521991Y-97260191D01*
X129120195Y-97661988D01*
X129099210Y-97679210D01*
X129030479Y-97762958D01*
X128979408Y-97858507D01*
X128947958Y-97962182D01*
X128940000Y-98042983D01*
X128940000Y-98042992D01*
X128937340Y-98070000D01*
X127850000Y-98070000D01*
X127850000Y-94025000D01*
X136023549Y-94025000D01*
X136023549Y-95375000D01*
X136029341Y-95433810D01*
X136046496Y-95490360D01*
X136074353Y-95542477D01*
X136111842Y-95588158D01*
X136157523Y-95625647D01*
X136209640Y-95653504D01*
X136266190Y-95670659D01*
X136325000Y-95676451D01*
X137675000Y-95676451D01*
X137733810Y-95670659D01*
X137790360Y-95653504D01*
X137842477Y-95625647D01*
X137873728Y-95600000D01*
X139123549Y-95600000D01*
X139123549Y-96175001D01*
X139134145Y-96282584D01*
X139165526Y-96386032D01*
X139216485Y-96481370D01*
X139285065Y-96564935D01*
X139368630Y-96633515D01*
X139463968Y-96684474D01*
X139567416Y-96715855D01*
X139600001Y-96719064D01*
X139600001Y-97425430D01*
X139597581Y-97450000D01*
X139607235Y-97548017D01*
X139630828Y-97625790D01*
X139635826Y-97642267D01*
X139682255Y-97729129D01*
X139744737Y-97805264D01*
X139763819Y-97820924D01*
X139860000Y-97917106D01*
X139860000Y-97978944D01*
X139886901Y-98114182D01*
X139939668Y-98241574D01*
X140016274Y-98356224D01*
X140113776Y-98453726D01*
X140228426Y-98530332D01*
X140355818Y-98583099D01*
X140491056Y-98610000D01*
X140628944Y-98610000D01*
X140764182Y-98583099D01*
X140891574Y-98530332D01*
X141006224Y-98453726D01*
X141103726Y-98356224D01*
X141180332Y-98241574D01*
X141233099Y-98114182D01*
X141260000Y-97978944D01*
X141260000Y-97841056D01*
X141233099Y-97705818D01*
X141180332Y-97578426D01*
X141103726Y-97463776D01*
X141006224Y-97366274D01*
X140891574Y-97289668D01*
X140764182Y-97236901D01*
X140628944Y-97210000D01*
X140600000Y-97210000D01*
X140600000Y-96719064D01*
X140632584Y-96715855D01*
X140736032Y-96684474D01*
X140831370Y-96633515D01*
X140914935Y-96564935D01*
X140983515Y-96481370D01*
X141034474Y-96386032D01*
X141065855Y-96282584D01*
X141076451Y-96175001D01*
X141076451Y-93324999D01*
X141065855Y-93217416D01*
X141034474Y-93113968D01*
X140983515Y-93018630D01*
X140914935Y-92935065D01*
X140831370Y-92866485D01*
X140736032Y-92815526D01*
X140632584Y-92784145D01*
X140525001Y-92773549D01*
X139674999Y-92773549D01*
X139567416Y-92784145D01*
X139463968Y-92815526D01*
X139368630Y-92866485D01*
X139285065Y-92935065D01*
X139216485Y-93018630D01*
X139165526Y-93113968D01*
X139134145Y-93217416D01*
X139123549Y-93324999D01*
X139123549Y-93800000D01*
X137873728Y-93800000D01*
X137842477Y-93774353D01*
X137790360Y-93746496D01*
X137733810Y-93729341D01*
X137675000Y-93723549D01*
X136325000Y-93723549D01*
X136266190Y-93729341D01*
X136209640Y-93746496D01*
X136157523Y-93774353D01*
X136111842Y-93811842D01*
X136074353Y-93857523D01*
X136046496Y-93909640D01*
X136029341Y-93966190D01*
X136023549Y-94025000D01*
X127850000Y-94025000D01*
X127850000Y-92350000D01*
X167150000Y-92350000D01*
X167150001Y-111650000D01*
M02*
